<?xml version="1.0" standalone="no"?>
<!DOCTYPE svg PUBLIC "-//W3C//DTD SVG 20010904//EN"
 "http://www.w3.org/TR/2001/REC-SVG-20010904/DTD/svg10.dtd">
<svg version="1.0" xmlns="http://www.w3.org/2000/svg"
 width="451.000000pt" height="178.000000pt" viewBox="0 0 451.000000 178.000000"
 preserveAspectRatio="xMidYMid meet">

<g transform="translate(0.000000,178.000000) scale(0.100000,-0.100000)"
fill="#000000" stroke="none">
<path d="M2550 1757 c-3 -2 -40 -7 -83 -11 -87 -7 -262 -50 -401 -98 -50 -17
-284 -108 -521 -203 -236 -95 -545 -216 -685 -271 l-254 -99 44 -8 c48 -8 388
-3 430 7 216 51 269 73 716 295 468 233 522 253 684 253 104 0 141 -9 273 -69
89 -41 110 -47 168 -46 87 0 94 5 69 52 -42 83 -176 170 -286 185 -96 13 -149
17 -154 13z m196 -68 c59 -18 157 -89 143 -103 -5 -6 -62 10 -239 65 -36 11
-95 21 -132 22 -38 1 -68 5 -68 8 0 6 45 20 105 33 33 7 126 -5 191 -25z
m-961 -235 c-136 -78 -316 -171 -414 -214 -88 -38 -290 -109 -356 -124 l-30
-7 32 33 c49 51 124 91 278 152 77 29 190 78 250 106 117 56 241 98 290 99 26
1 18 -6 -50 -45z"/>
<path d="M4075 1494 c-55 -14 -120 -44 -215 -98 -58 -32 -181 -96 -275 -142
-191 -93 -329 -167 -412 -220 l-56 -36 31 -24 c17 -14 59 -63 92 -109 61 -84
84 -105 115 -105 8 0 104 85 213 189 229 220 281 265 379 331 92 61 172 92
246 93 52 0 63 -4 126 -47 44 -31 79 -48 100 -48 32 -1 81 19 81 33 0 5 -27
36 -59 69 -81 83 -149 113 -261 116 -47 2 -94 1 -105 -2z m232 -56 c55 -20
154 -100 141 -114 -3 -3 -57 16 -119 42 -106 44 -120 48 -201 48 -72 1 -85 3
-74 14 45 45 149 49 253 10z m-477 -133 c0 -8 -12 -25 -27 -38 -14 -12 -61
-53 -102 -90 -86 -78 -143 -114 -185 -119 -81 -9 -5 77 136 155 57 31 117 68
133 81 35 29 45 32 45 11z m-375 -267 c29 -25 31 -45 9 -76 -22 -32 -68 -29
-105 7 -49 50 -34 91 33 91 25 0 47 -8 63 -22z m-195 -43 c20 -24 4 -45 -34
-45 -43 0 -68 32 -39 49 26 15 59 13 73 -4z m115 -130 c0 -15 -8 -21 -34 -23
-38 -4 -57 9 -47 33 4 12 16 15 43 13 30 -2 38 -7 38 -23z"/>
<path d="M317 975 c-17 -22 -82 -92 -144 -156 -62 -64 -113 -120 -113 -125 0
-4 12 -25 26 -46 15 -21 43 -94 64 -162 21 -72 51 -146 69 -175 74 -115 214
-206 386 -252 113 -30 308 -30 419 0 143 38 277 128 338 227 13 21 32 73 42
114 20 86 48 139 103 194 91 92 228 113 329 50 67 -41 110 -102 198 -280 108
-217 161 -264 352 -313 164 -43 283 -44 414 -5 205 60 356 241 464 553 36 103
36 104 16 118 -11 8 -47 54 -80 103 -94 140 -140 173 -251 186 -77 8 -577 8
-704 0 -205 -14 -230 -22 -293 -90 -21 -23 -50 -51 -65 -63 -26 -20 -27 -20
-79 -2 -66 22 -150 18 -205 -9 l-40 -21 -14 26 c-29 54 -108 112 -192 140
l-82 28 -463 0 -463 0 -32 -40z m738 -181 c127 -29 202 -90 231 -192 21 -70
10 -169 -27 -247 -83 -176 -357 -281 -598 -230 -226 48 -341 186 -329 394 11
189 127 271 411 289 139 10 222 6 312 -14z m1737 17 c91 -12 147 -38 181 -83
83 -110 83 -334 0 -452 -141 -200 -585 -225 -768 -41 -101 100 -142 265 -96
386 27 72 97 139 167 162 95 32 372 47 516 28z m-2488 -23 c9 -14 4 -25 -27
-56 l-38 -39 15 -38 c21 -50 21 -89 0 -81 -9 3 -19 6 -23 6 -5 0 -20 12 -35
26 -48 49 -29 144 37 185 37 22 55 21 71 -3z m2825 7 c29 -14 63 -73 75 -128
5 -21 1 -33 -19 -53 -39 -39 -58 -29 -60 32 -1 36 -10 66 -29 98 -37 63 -25
81 33 51z"/>
</g>
</svg>
