<svg width="30" height="30" viewBox="0 0 30 30" fill="none" xmlns="http://www.w3.org/2000/svg">
<circle cx="15" cy="15" r="14.5" fill="white" stroke="white"/>
<path d="M22.4318 15.4753C22.4318 11.7476 19.2427 8.72739 15.3067 8.72739C11.3707 8.72739 8.18164 11.7476 8.18164 15.4753C8.18164 18.8433 10.7872 21.635 14.1934 22.1417V17.426H12.3834V15.4753H14.1934V13.9886C14.1934 12.2975 15.2564 11.3634 16.8846 11.3634C17.6643 11.3634 18.4797 11.4951 18.4797 11.4951V13.1549H17.581C16.6961 13.1549 16.42 13.6752 16.42 14.2087V15.4753H18.396L18.08 17.426H16.42V22.1417C19.8262 21.635 22.4318 18.8433 22.4318 15.4753Z" fill="#2B7730"/>
</svg>
