<svg width="30" height="30" viewBox="0 0 30 30" fill="none" xmlns="http://www.w3.org/2000/svg">
<circle cx="15" cy="15" r="14.5" fill="white" stroke="white"/>
<path d="M18.2687 8.53631H11.7371C9.62947 8.53631 7.9209 10.1544 7.9209 12.1505V18.3364C7.9209 20.3324 9.62947 21.9506 11.7371 21.9506H18.2687C20.3763 21.9506 22.0848 20.3324 22.0848 18.3364V12.1505C22.0849 10.1544 20.3763 8.53631 18.2687 8.53631Z" stroke="#2B7730" stroke-miterlimit="10"/>
<path d="M15.0039 18.4815C16.8921 18.4815 18.4227 17.0318 18.4227 15.2436C18.4227 13.4553 16.8921 12.0056 15.0039 12.0056C13.1157 12.0056 11.585 13.4553 11.585 15.2436C11.585 17.0318 13.1157 18.4815 15.0039 18.4815Z" stroke="#2B7730" stroke-miterlimit="10"/>
<path d="M19.1562 11.1179C19.3107 11.1179 19.3887 11.2305 19.3887 11.3123C19.3884 11.394 19.3104 11.5056 19.1562 11.5056C19.0022 11.5055 18.9241 11.394 18.9238 11.3123C18.9238 11.2305 19.0019 11.118 19.1562 11.1179Z" fill="white" stroke="#2B7730"/>
</svg>
