<svg width="30" height="30" viewBox="0 0 30 30" fill="none" xmlns="http://www.w3.org/2000/svg">
<circle cx="15" cy="15" r="14.5" fill="white" stroke="white"/>
<path d="M12.95 19.9058C13.8227 19.9334 14.6923 19.7951 15.5076 19.499C16.3229 19.203 17.0672 18.7551 17.6966 18.1819C18.326 17.6088 18.8277 16.9219 19.1721 16.162C19.5164 15.4021 19.6964 14.5845 19.7015 13.7576C20.1014 13.2889 20.3984 12.7492 20.5749 12.1702C20.5881 12.1245 20.587 12.0761 20.5719 12.0309C20.5567 11.9857 20.528 11.9457 20.4894 11.9155C20.4507 11.8854 20.4037 11.8665 20.3539 11.8611C20.3042 11.8557 20.2539 11.8641 20.209 11.8852C19.9998 11.9805 19.7642 12.0113 19.5355 11.9732C19.3069 11.9351 19.0966 11.83 18.9343 11.6728C18.7271 11.4579 18.4765 11.2846 18.1973 11.1631C17.9181 11.0417 17.616 10.9745 17.3089 10.9657C17.0018 10.9568 16.696 11.0064 16.4095 11.1116C16.123 11.2167 15.8617 11.3752 15.6411 11.5777C15.3391 11.8548 15.1179 12.2011 14.9989 12.5831C14.88 12.965 14.8674 13.3696 14.9625 13.7576C12.9854 13.8693 11.628 12.9807 10.5421 11.7622C10.5095 11.7272 10.4668 11.702 10.4193 11.6896C10.3718 11.6772 10.3215 11.6781 10.2746 11.6924C10.2276 11.7066 10.1861 11.7335 10.155 11.7697C10.1239 11.8059 10.1046 11.8499 10.0995 11.8963C9.89264 12.9831 10.0419 14.1038 10.5271 15.108C11.0124 16.1121 11.8105 16.9515 12.8143 17.5136C12.1413 18.2445 11.1962 18.7011 10.1762 18.7879C10.1216 18.7965 10.0711 18.821 10.032 18.8581C9.99278 18.8952 9.96682 18.943 9.95772 18.9947C9.94861 19.0464 9.95681 19.0996 9.98118 19.1467C10.0055 19.1938 10.0449 19.2325 10.0936 19.2574C10.9809 19.6774 11.9581 19.8992 12.95 19.9058Z" fill="#2B7730"/>
</svg>
