<svg width="21" height="18" viewBox="0 0 21 18" fill="none" xmlns="http://www.w3.org/2000/svg">
<path d="M5.51064 12.8518H12.0292M12.0292 12.8518L17.218 8.70073C17.6735 8.33631 18.2898 8.24499 18.8315 8.46164V8.46164C19.858 8.87224 20.1806 10.1678 19.4664 11.0118L14.9987 16.2919C14.6187 16.741 14.0602 17 13.4719 17H2.7699C1.66533 17 0.769897 16.1045 0.769897 15V10.1111C0.769897 9.00652 1.66533 8.11108 2.7699 8.11108H7.68297C7.81467 8.11108 7.94649 8.12184 8.07302 8.15841C9.13154 8.46435 11.1383 9.73393 12.0292 12.8518Z" stroke="black" stroke-opacity="0.8"/>
<path fill-rule="evenodd" clip-rule="evenodd" d="M9.54475 4.39718C9.14195 3.0736 9.61269 1.56077 10.9329 1.11313C11.6274 0.877251 12.394 1.01633 12.9713 1.47346C13.5175 1.02897 14.3122 0.878832 15.0059 1.11313C16.3262 1.56077 16.7999 3.0736 16.3975 4.39718C15.7706 6.49516 12.9713 8.11111 12.9713 8.11111C12.9713 8.11111 10.1927 6.51965 9.54475 4.39718Z" stroke="black" stroke-opacity="0.8" stroke-linecap="round" stroke-linejoin="round"/>
</svg>
