<svg width="20" height="20" viewBox="0 0 20 20" fill="none" xmlns="http://www.w3.org/2000/svg">
<path d="M2 19.5H11.62C12.197 19.5 12.7672 19.3751 13.2914 19.134C13.8157 18.8928 14.2815 18.5411 14.657 18.103L19.759 12.151C19.8658 12.0266 19.9404 11.8778 19.9762 11.7178C20.012 11.5577 20.0079 11.3913 19.9642 11.2333C19.9206 11.0752 19.8387 10.9303 19.7258 10.8113C19.6129 10.6923 19.4726 10.6029 19.317 10.551L17.349 9.89501C16.8734 9.74013 16.3669 9.70501 15.8745 9.79275C15.382 9.8805 14.9188 10.0884 14.526 10.398L11.341 12.945L10.724 11.71C10.3935 11.0443 9.8831 10.4844 9.25073 10.0938C8.61837 9.70325 7.88926 9.49754 7.146 9.50001H2C0.897 9.50001 0 10.397 0 11.5V17.5C0 18.603 0.897 19.5 2 19.5ZM2 11.5H7.146C7.909 11.5 8.594 11.923 8.935 12.605L9.382 13.5H5V15.5H11.014C11.1678 15.4978 11.3191 15.4602 11.456 15.39L11.459 15.389L11.463 15.387H11.466L11.468 15.386H11.472L11.473 15.385C11.482 15.388 11.476 15.384 11.476 15.384C11.486 15.384 11.478 15.383 11.478 15.383H11.479L11.481 15.382L11.484 15.381L11.486 15.38L11.488 15.379L11.491 15.378L11.493 15.377C11.496 15.377 11.494 15.376 11.495 15.376L11.498 15.374L11.5 15.373L11.502 15.372L11.505 15.371L11.507 15.37H11.508L11.51 15.369L11.513 15.368L11.515 15.367C11.524 15.366 11.518 15.366 11.518 15.366L11.52 15.365C11.5584 15.3415 11.5951 15.3155 11.63 15.287L15.776 11.97C16.038 11.762 16.399 11.697 16.716 11.803L17.273 11.989L13.14 16.812C12.9498 17.0278 12.716 17.2008 12.4539 17.3194C12.1919 17.438 11.9076 17.4996 11.62 17.5H2V11.5ZM14 0.500007H13.983C13.82 0.502007 12.977 0.539007 12 1.20501C11.049 0.557007 10.226 0.505007 10.032 0.501007L10.002 0.500007H9.998C9.197 0.500007 8.443 0.813007 7.879 1.37801C7.313 1.94501 7 2.69801 7 3.50001C7 4.30201 7.313 5.05501 7.861 5.60401L11.275 9.19001C11.3689 9.28752 11.4816 9.36506 11.6062 9.418C11.7308 9.47093 11.8648 9.49817 12.0002 9.49808C12.1356 9.49798 12.2696 9.47056 12.3941 9.41745C12.5187 9.36435 12.6312 9.28665 12.725 9.18901L16.121 5.62101C16.688 5.05501 17 4.30201 17 3.50001C17 2.69801 16.687 1.94501 16.122 1.37901C15.8443 1.09964 15.5139 0.878114 15.15 0.727237C14.7861 0.57636 14.3959 0.499128 14.002 0.500007H14ZM15 3.50001C15 3.76701 14.896 4.01801 14.689 4.22501L12 7.05001L9.293 4.20701C9.104 4.01801 9 3.76701 9 3.50001C9 3.23301 9.104 2.98201 9.294 2.79201C9.47502 2.60834 9.72114 2.50342 9.979 2.50001C10.004 2.50101 10.481 2.53201 11.046 2.98501C11.1267 3.05034 11.209 3.12434 11.293 3.20701L12 3.91401L12.707 3.20701C12.791 3.12434 12.8733 3.05034 12.954 2.98501C13.483 2.56001 13.93 2.50701 14.006 2.50101C14.269 2.50238 14.5208 2.60729 14.707 2.79301C14.896 2.98201 15 3.23301 15 3.50001Z" fill="black"/>
</svg>
