<svg width="20" height="17" viewBox="0 0 20 17" fill="none" xmlns="http://www.w3.org/2000/svg">
<path d="M16 9.25C16.2833 9.25 16.521 9.154 16.713 8.962C16.905 8.77 17.0007 8.53267 17 8.25C16.9993 7.96733 16.9033 7.73 16.712 7.538C16.5207 7.346 16.2833 7.25 16 7.25H13C12.7167 7.25 12.4793 7.346 12.288 7.538C12.0967 7.73 12.0007 7.96733 12 8.25C11.9993 8.53267 12.0953 8.77033 12.288 8.963C12.4807 9.15567 12.718 9.25133 13 9.25H16ZM16 6.25C16.2833 6.25 16.521 6.154 16.713 5.962C16.905 5.77 17.0007 5.53267 17 5.25C16.9993 4.96733 16.9033 4.73 16.712 4.538C16.5207 4.346 16.2833 4.25 16 4.25H13C12.7167 4.25 12.4793 4.346 12.288 4.538C12.0967 4.73 12.0007 4.96733 12 5.25C11.9993 5.53267 12.0953 5.77033 12.288 5.963C12.4807 6.15567 12.718 6.25133 13 6.25H16ZM7 9.25C6.4 9.25 5.85833 9.30433 5.375 9.413C4.89167 9.52167 4.46667 9.69233 4.1 9.925C3.75 10.1417 3.48333 10.3877 3.3 10.663C3.11667 10.9383 3.025 11.234 3.025 11.55C3.025 11.75 3.1 11.9167 3.25 12.05C3.4 12.1833 3.58333 12.25 3.8 12.25H10.2C10.4167 12.25 10.6 12.179 10.75 12.037C10.9 11.895 10.975 11.716 10.975 11.5C10.975 11.2167 10.8833 10.9417 10.7 10.675C10.5167 10.4083 10.25 10.1583 9.9 9.925C9.53333 9.69167 9.10833 9.52067 8.625 9.412C8.14167 9.30333 7.6 9.24933 7 9.25ZM7 8.25C7.55 8.25 8.02067 8.05433 8.412 7.663C8.80333 7.27167 8.99933 6.80067 9 6.25C9.00067 5.69933 8.805 5.22867 8.413 4.838C8.021 4.44733 7.55 4.25133 7 4.25C6.45 4.24867 5.97933 4.44467 5.588 4.838C5.19667 5.23133 5.00067 5.702 5 6.25C4.99933 6.798 5.19533 7.269 5.588 7.663C5.98067 8.057 6.45133 8.25267 7 8.25ZM2 16.25C1.45 16.25 0.979333 16.0543 0.588 15.663C0.196667 15.2717 0.000666667 14.8007 0 14.25V2.25C0 1.7 0.196 1.22933 0.588 0.838C0.98 0.446666 1.45067 0.250667 2 0.25H18C18.55 0.25 19.021 0.446 19.413 0.838C19.805 1.23 20.0007 1.70067 20 2.25V14.25C20 14.8 19.8043 15.271 19.413 15.663C19.0217 16.055 18.5507 16.2507 18 16.25H2Z" fill="black" fill-opacity="0.5"/>
</svg>
