<?xml version="1.0" standalone="no"?>
<!DOCTYPE svg PUBLIC "-//W3C//DTD SVG 20010904//EN"
 "http://www.w3.org/TR/2001/REC-SVG-20010904/DTD/svg10.dtd">
<svg version="1.0" xmlns="http://www.w3.org/2000/svg"
 width="457.000000pt" height="434.000000pt" viewBox="0 0 457.000000 434.000000"
 preserveAspectRatio="xMidYMid meet">

<g transform="translate(0.000000,434.000000) scale(0.100000,-0.100000)"
fill="#000000" stroke="none">
<path d="M744 4285 c-329 -59 -592 -304 -674 -625 -43 -167 -33 -348 25 -491
14 -34 25 -66 25 -70 0 -17 87 -149 134 -203 97 -112 269 -223 396 -257 25 -6
59 -16 75 -23 21 -7 159 -11 442 -11 403 0 412 0 440 21 15 12 36 41 46 65 28
67 12 117 -53 167 -27 20 -49 41 -49 46 -1 5 15 30 33 57 97 134 155 312 156
474 0 88 -22 230 -44 285 -41 104 -55 131 -98 195 -188 284 -525 430 -854 370z
m286 -209 c116 -28 205 -75 286 -149 49 -44 144 -164 144 -181 0 -3 9 -25 19
-49 41 -89 46 -120 45 -252 -1 -111 -5 -140 -26 -195 -33 -91 -79 -166 -140
-235 -29 -31 -58 -67 -65 -79 -17 -29 -16 -68 2 -92 8 -10 15 -23 15 -27 0 -5
-120 -7 -267 -5 -292 4 -315 8 -444 74 -221 111 -363 360 -345 606 20 290 233
531 519 588 66 12 197 11 257 -4z"/>
<path d="M734 3730 c-51 -21 -54 -38 -54 -282 0 -225 0 -227 24 -255 43 -49
77 -40 281 77 99 56 188 111 199 120 26 25 27 94 1 118 -30 29 -376 223 -405
227 -14 3 -35 0 -46 -5z"/>
<path d="M2736 4285 c-49 -17 -90 -57 -116 -111 -19 -42 -20 -62 -20 -404 0
-345 1 -362 21 -405 26 -55 76 -100 126 -114 23 -7 163 -11 348 -11 l310 0
140 -141 c77 -77 157 -149 177 -160 60 -31 115 -33 177 -7 78 33 107 74 139
199 l27 104 155 5 c155 5 155 5 202 37 30 21 54 49 70 80 23 47 23 55 26 381
2 216 -1 352 -8 386 -13 62 -43 108 -97 145 l-38 26 -800 2 c-662 2 -807 0
-839 -12z m1569 -515 l0 -315 -145 -5 c-153 -6 -177 -12 -229 -55 -41 -35 -64
-81 -86 -175 -10 -41 -21 -78 -24 -82 -4 -5 -68 53 -141 127 -195 195 -164
185 -554 185 l-316 0 0 320 0 320 748 -2 747 -3 0 -315z"/>
<path d="M3059 3841 c-23 -23 -29 -38 -29 -71 0 -89 100 -133 169 -74 27 22
31 32 31 74 0 42 -4 52 -31 74 -44 37 -101 36 -140 -3z"/>
<path d="M3485 3840 c-64 -67 -20 -170 73 -170 36 0 49 5 73 31 63 67 19 169
-73 169 -36 0 -50 -6 -73 -30z"/>
<path d="M3916 3847 c-14 -14 -28 -37 -32 -51 -9 -37 3 -74 32 -103 22 -22 32
-25 75 -21 35 4 55 12 69 28 61 70 24 159 -69 168 -43 4 -53 1 -75 -21z"/>
<path d="M2329 3000 c-103 -25 -142 -54 -371 -279 -266 -260 -344 -329 -463
-408 -168 -112 -320 -176 -575 -242 -311 -81 -328 -86 -387 -127 -28 -19 -63
-52 -77 -72 -26 -39 -56 -113 -56 -141 0 -12 -20 -23 -71 -39 -119 -37 -195
-102 -245 -210 -23 -48 -27 -71 -28 -147 0 -81 3 -97 32 -156 38 -79 110 -151
185 -183 86 -38 163 -41 289 -10 22 5 32 0 57 -28 39 -45 112 -84 186 -98 50
-10 71 -9 120 4 47 12 62 13 72 3 11 -12 143 -333 143 -349 0 -5 8 -27 19 -51
10 -23 33 -79 51 -124 39 -100 79 -163 128 -201 178 -141 428 -100 548 89 43
69 57 125 52 214 -5 83 -9 93 -149 442 -27 68 -49 130 -49 139 0 31 302 8 460
-35 144 -39 219 -63 374 -116 117 -40 151 -48 215 -48 97 0 168 31 247 110
133 133 192 352 181 665 -16 420 -159 837 -389 1133 -106 137 -258 243 -372
258 -25 4 -56 9 -68 11 -13 2 -39 0 -59 -4z m154 -236 c62 -32 174 -143 239
-240 87 -128 208 -412 238 -559 4 -22 16 -78 26 -125 13 -65 18 -133 18 -285
1 -194 -3 -233 -36 -330 -32 -97 -97 -177 -154 -191 -64 -16 -179 48 -272 152
-55 62 -132 166 -132 178 0 3 26 23 58 45 138 94 197 212 190 376 -3 75 -9
101 -35 155 -75 159 -220 250 -398 250 l-68 0 6 133 c15 368 135 534 320 441z
m-513 -769 c7 -33 16 -73 20 -90 4 -16 13 -57 20 -90 15 -72 85 -284 111 -339
10 -22 19 -44 19 -49 0 -4 27 -57 60 -117 33 -60 60 -112 60 -115 0 -4 -7 -4
-16 -1 -27 11 -154 34 -252 47 -148 19 -395 6 -567 -30 -77 -17 -157 -35 -177
-40 -21 -6 -55 -16 -75 -22 -21 -6 -54 -14 -73 -19 -19 -4 -51 -13 -70 -20
-152 -50 -211 -53 -249 -16 -23 23 -38 69 -85 256 -2 8 -21 76 -42 150 -73
263 -71 267 173 331 227 59 258 68 323 87 94 28 161 56 285 119 167 84 277
163 450 323 l60 55 7 -180 c4 -99 12 -207 18 -240z m335 -26 c26 -7 56 -28 85
-58 88 -90 85 -211 -6 -298 -49 -48 -68 -53 -84 -23 -32 60 -115 363 -104 381
7 12 60 11 109 -2z m-1862 -509 c4 -19 10 -46 13 -60 3 -14 9 -34 14 -45 5
-11 11 -31 14 -45 2 -14 10 -45 16 -69 12 -50 8 -56 -48 -67 -104 -20 -207 85
-188 190 9 46 50 94 101 117 53 25 68 21 78 -21z m1096 -501 c11 -29 21 -56
21 -60 0 -5 9 -28 19 -52 60 -133 154 -387 154 -417 2 -46 -32 -110 -73 -137
-25 -17 -47 -23 -90 -23 -52 0 -61 3 -98 38 -28 25 -49 58 -66 102 -13 36 -45
119 -71 185 -26 66 -58 149 -72 185 -13 36 -32 82 -40 103 -23 52 -21 54 117
87 19 4 55 15 80 23 82 27 95 24 119 -34z"/>
<path d="M3595 2411 c-45 -12 -110 -47 -149 -82 -74 -65 -110 -156 -110 -279
0 -81 6 -108 40 -187 45 -101 361 -421 473 -478 58 -29 120 -24 184 15 79 48
190 148 299 270 148 164 178 217 192 330 14 118 -38 267 -116 334 -73 63 -121
80 -228 81 -102 0 -136 -9 -207 -57 l-43 -29 -42 28 c-24 16 -56 35 -73 42
-36 16 -177 24 -220 12z m164 -218 c13 -9 44 -35 68 -59 84 -80 122 -80 205
-1 66 64 92 77 147 77 39 0 56 -6 81 -26 58 -50 77 -142 42 -216 -25 -54 -161
-207 -270 -304 -52 -46 -98 -84 -103 -84 -16 0 -259 238 -332 325 -76 92 -75
213 3 279 25 21 42 26 84 26 32 0 61 -6 75 -17z"/>
</g>
</svg>
