<svg width="24" height="20" viewBox="0 0 24 20" fill="none" xmlns="http://www.w3.org/2000/svg">
<path d="M21.75 19.5H2.25C1.78587 19.5 1.34075 19.3156 1.01256 18.9874C0.684374 18.6592 0.5 18.2141 0.5 17.75V2.25C0.5 1.284 1.284 0.5 2.25 0.5H21.75C22.716 0.5 23.5 1.284 23.5 2.25V17.75C23.5 18.2141 23.3156 18.6592 22.9874 18.9874C22.6592 19.3156 22.2141 19.5 21.75 19.5ZM2.25 2C2.1837 2 2.12011 2.02634 2.07322 2.07322C2.02634 2.12011 2 2.1837 2 2.25V17.75C2 17.888 2.112 18 2.25 18H5.428L14 8.977C14.1609 8.80768 14.354 8.67229 14.5681 8.57879C14.7821 8.4853 15.0127 8.4356 15.2463 8.43261C15.4798 8.42963 15.7116 8.47343 15.9279 8.56143C16.1443 8.64943 16.3408 8.77985 16.506 8.945L22 14.44V2.25C22 2.1837 21.9737 2.12011 21.9268 2.07322C21.8799 2.02634 21.8163 2 21.75 2H2.25ZM22 17.75V16.56L15.445 10.006C15.4214 9.98244 15.3933 9.96384 15.3624 9.9513C15.3315 9.93877 15.2984 9.93254 15.265 9.933C15.2317 9.93333 15.1988 9.94031 15.1682 9.95354C15.1377 9.96676 15.11 9.98596 15.087 10.01L7.497 18H21.75C21.8163 18 21.8799 17.9737 21.9268 17.9268C21.9737 17.8799 22 17.8163 22 17.75ZM10.5 7.25C10.5 8.11195 10.1576 8.9386 9.5481 9.5481C8.9386 10.1576 8.11195 10.5 7.25 10.5C6.38805 10.5 5.5614 10.1576 4.9519 9.5481C4.34241 8.9386 4 8.11195 4 7.25C4 6.38805 4.34241 5.5614 4.9519 4.9519C5.5614 4.34241 6.38805 4 7.25 4C8.11195 4 8.9386 4.34241 9.5481 4.9519C10.1576 5.5614 10.5 6.38805 10.5 7.25ZM9 7.25C8.99993 7.02012 8.95459 6.79251 8.86656 6.58015C8.77853 6.3678 8.64953 6.17486 8.48694 6.01236C8.32434 5.84985 8.13133 5.72097 7.91893 5.63306C7.70652 5.54515 7.47888 5.49993 7.249 5.5C7.01912 5.50007 6.79151 5.54541 6.57915 5.63344C6.3668 5.72147 6.17386 5.85047 6.01136 6.01306C5.84885 6.17566 5.71997 6.36867 5.63206 6.58107C5.54415 6.79348 5.49893 7.02112 5.499 7.251C5.49913 7.71526 5.68369 8.16045 6.01206 8.48864C6.34044 8.81683 6.78574 9.00113 7.25 9.001C7.71426 9.00087 8.15946 8.81631 8.48764 8.48794C8.81583 8.15956 9.00013 7.71426 9 7.25Z" fill="black"/>
</svg>
