<svg width="20" height="20" viewBox="0 0 20 20" fill="none" xmlns="http://www.w3.org/2000/svg">
<path d="M19 9.99987C19.0028 11.7866 18.4714 13.5334 17.474 15.0159C16.6514 16.2429 15.5391 17.2483 14.2356 17.9432C12.932 18.638 11.4772 19.001 10 18.9999C8.52277 19.001 7.06804 18.638 5.76444 17.9432C4.46085 17.2483 3.34858 16.2429 2.526 15.0159C1.74273 13.8483 1.2439 12.5134 1.06951 11.1183C0.895109 9.72319 1.05 8.30662 1.52175 6.98215C1.9935 5.65768 2.769 4.46216 3.78607 3.49142C4.80314 2.52068 6.0335 1.80173 7.37851 1.39221C8.72352 0.982677 10.1458 0.893962 11.5312 1.13317C12.9167 1.37238 14.2269 1.93286 15.3567 2.76969C16.4865 3.60651 17.4046 4.69639 18.0373 5.95197C18.67 7.20755 18.9997 8.59389 19 9.99987Z" stroke="black" stroke-width="2"/>
<path d="M11 7C11 7.26522 10.8946 7.51957 10.7071 7.70711C10.5196 7.89464 10.2652 8 10 8V10C10.7957 10 11.5587 9.68393 12.1213 9.12132C12.6839 8.55871 13 7.79565 13 7H11ZM10 8C9.73479 8 9.48043 7.89464 9.2929 7.70711C9.10536 7.51957 9 7.26522 9 7H7C7 7.79565 7.31607 8.55871 7.87868 9.12132C8.44129 9.68393 9.20435 10 10 10V8ZM9 7C9 6.73478 9.10536 6.48043 9.2929 6.29289C9.48043 6.10536 9.73479 6 10 6V4C9.20435 4 8.44129 4.31607 7.87868 4.87868C7.31607 5.44129 7 6.20435 7 7H9ZM10 6C10.2652 6 10.5196 6.10536 10.7071 6.29289C10.8946 6.48043 11 6.73478 11 7H13C13 6.20435 12.6839 5.44129 12.1213 4.87868C11.5587 4.31607 10.7957 4 10 4V6ZM3.166 15.856L2.207 15.571L2.052 16.094L2.407 16.507L3.166 15.856ZM16.834 15.856L17.594 16.507L17.948 16.094L17.793 15.571L16.834 15.856ZM7 14H13V12H7V14ZM7 12C5.92306 11.9997 4.87478 12.3471 4.01118 12.9905C3.14757 13.6339 2.51479 14.539 2.207 15.571L4.124 16.141C4.30897 15.5221 4.68879 14.9793 5.20697 14.5936C5.72515 14.2078 6.354 13.9997 7 14V12ZM10 18C8.84549 18.0013 7.70444 17.7521 6.65561 17.2695C5.60678 16.787 4.67515 16.0826 3.925 15.205L2.407 16.507C3.34489 17.6035 4.50939 18.4836 5.82023 19.0866C7.13108 19.6897 8.5571 20.0013 10 20V18ZM13 14C14.357 14 15.506 14.902 15.876 16.142L17.793 15.571C17.4853 14.5391 16.8516 13.6342 15.9882 12.9908C15.1248 12.3474 14.0768 11.9999 13 12V14ZM16.075 15.205C15.3249 16.0826 14.3932 16.787 13.3444 17.2695C12.2956 17.7521 11.1545 18.0013 10 18V20C11.4429 20.0013 12.8689 19.6897 14.1798 19.0866C15.4906 18.4836 16.6561 17.6035 17.594 16.507L16.075 15.205Z" fill="black"/>
</svg>
