<svg width="20" height="25" viewBox="0 0 20 25" fill="none" xmlns="http://www.w3.org/2000/svg">
<path d="M6.13513 0.749067C5.92128 0.78974 5.72869 0.904681 5.59137 1.07359C5.45405 1.24249 5.38084 1.45449 5.38467 1.67214V2.59522H2.06713C1.32867 2.59522 0.769287 3.15461 0.769287 3.89307V23.3645C0.769287 24.1952 1.32867 24.7491 2.06713 24.7491H17.8462C18.5847 24.7491 19.1441 24.1897 19.1441 23.4512V3.89307C19.2364 3.15461 18.6714 2.59522 17.933 2.59522H14.6154V1.67214C14.6154 1.42733 14.5182 1.19254 14.3451 1.01943C14.172 0.846319 13.9372 0.749067 13.6924 0.749067H6.30775C6.27884 0.747707 6.24989 0.747707 6.22098 0.749067C6.19207 0.747707 6.16404 0.747707 6.13513 0.749067ZM7.23083 2.59522H12.7693V4.44137H7.23083V2.59522ZM2.61544 4.44137H5.38467V5.36445C5.38467 5.60927 5.48192 5.84405 5.65504 6.01717C5.82815 6.19028 6.06293 6.28753 6.30775 6.28753H13.6924C13.9372 6.28753 14.172 6.19028 14.3451 6.01717C14.5182 5.84405 14.6154 5.60927 14.6154 5.36445V4.44137H17.3847V22.9029H2.61544V4.44137ZM4.4616 9.05676V12.7491H8.1539V9.05676H4.4616ZM5.38467 9.97984H7.23083V11.826H5.38467V9.97984ZM10.0001 9.97984V11.826H15.5385V9.97984H10.0001ZM4.4616 14.5952V18.2875H8.1539V14.5952H4.4616ZM10.0001 15.5183V17.3645H15.5385V15.5183H10.0001Z" fill="black" fill-opacity="0.5"/>
</svg>
