<svg width="14" height="16" viewBox="0 0 14 16" fill="none" xmlns="http://www.w3.org/2000/svg">
<path d="M4.11111 2.55556H2.55556C2.143 2.55556 1.74733 2.71944 1.45561 3.01117C1.16389 3.30289 1 3.69855 1 4.11111V13.4444C1 13.857 1.16389 14.2527 1.45561 14.5444C1.74733 14.8361 2.143 15 2.55556 15H11.8889C12.3014 15 12.6971 14.8361 12.9888 14.5444C13.2806 14.2527 13.4444 13.857 13.4444 13.4444V4.11111C13.4444 3.69855 13.2806 3.30289 12.9888 3.01117C12.6971 2.71944 12.3014 2.55556 11.8889 2.55556H10.3333M4.11111 2.55556C4.11111 2.143 4.275 1.74733 4.56672 1.45561C4.85845 1.16389 5.25411 1 5.66667 1H8.77778C9.19034 1 9.586 1.16389 9.87772 1.45561C10.1694 1.74733 10.3333 2.143 10.3333 2.55556M4.11111 2.55556C4.11111 2.96811 4.275 3.36378 4.56672 3.6555C4.85845 3.94722 5.25411 4.11111 5.66667 4.11111H8.77778C9.19034 4.11111 9.586 3.94722 9.87772 3.6555C10.1694 3.36378 10.3333 2.96811 10.3333 2.55556M4.11111 7.22222H10.3333M4.11111 10.3333H7.22222" stroke="black" stroke-linecap="round" stroke-linejoin="round"/>
</svg>
