<svg width="22" height="19" viewBox="0 0 22 19" fill="none" xmlns="http://www.w3.org/2000/svg">
<path d="M11.306 11.0162C12.0447 11.092 12.7291 11.439 13.2268 11.9902C13.7244 12.5414 13.9999 13.2576 14 14.0002C14 15.5422 13.06 16.8182 11.796 17.6602C10.526 18.5082 8.826 19.0002 7 19.0002C5.174 19.0002 3.474 18.5082 2.204 17.6602C0.938 16.8202 0 15.5422 0 14.0002C0 13.2046 0.31607 12.4415 0.87868 11.8789C1.44129 11.3163 2.20435 11.0002 3 11.0002H11L11.306 11.0162ZM18.996 11.0002C19.7916 11.0002 20.5547 11.3163 21.1173 11.8789C21.6799 12.4415 21.996 13.2046 21.996 14.0002C21.996 15.3902 21.134 16.4222 20.03 17.0562C18.934 17.6862 17.5 18.0002 15.996 18.0002C15.4907 17.9989 14.9973 17.9622 14.516 17.8902C14.984 17.3382 15.376 16.7042 15.638 15.9902C15.7567 15.9969 15.876 16.0002 15.996 16.0002C17.254 16.0002 18.32 15.7342 19.034 15.3242C19.74 14.9182 19.996 14.4502 19.996 14.0002C19.996 13.735 19.8906 13.4807 19.7031 13.2931C19.5156 13.1056 19.2612 13.0002 18.996 13.0002H15.896C15.7453 12.2745 15.4352 11.5914 14.988 11.0002H18.996ZM3 13.0002C2.73478 13.0002 2.48043 13.1056 2.29289 13.2931C2.10536 13.4807 2 13.735 2 14.0002C2 14.6662 2.406 15.3922 3.312 15.9962C4.212 16.5962 5.512 17.0002 7 17.0002C8.486 17.0002 9.788 16.5962 10.688 15.9962C11.594 15.3922 12 14.6662 12 14.0002C12 13.7697 11.9204 13.5462 11.7747 13.3677C11.6289 13.1891 11.4259 13.0663 11.2 13.0202L11 13.0002H3ZM7.462 0.0182343C8.57118 0.13206 9.59876 0.653083 10.3461 1.48057C11.0934 2.30806 11.5074 3.38323 11.508 4.49823L11.484 4.95823C11.3692 6.06669 10.8478 7.0933 10.0204 7.8398C9.19304 8.5863 8.11838 8.99973 7.004 9.00023L6.544 8.97623C5.51366 8.87111 4.55112 8.4138 3.81878 7.68146C3.08644 6.94911 2.62912 5.98657 2.524 4.95623L2.5 4.49623C2.5 3.30151 2.97446 2.1557 3.81907 1.31072C4.66368 0.465737 5.80928 -0.00923535 7.004 -0.00976562L7.462 0.0182343ZM16.5 1.99423C16.9596 1.99423 17.4148 2.08476 17.8394 2.26066C18.264 2.43655 18.6499 2.69436 18.9749 3.01936C19.2999 3.34437 19.5577 3.7302 19.7336 4.15484C19.9095 4.57948 20 5.03461 20 5.49424C20 5.95386 19.9095 6.40899 19.7336 6.83363C19.5577 7.25827 19.2999 7.6441 18.9749 7.96911C18.6499 8.29411 18.264 8.55192 17.8394 8.72781C17.4148 8.9037 16.9596 8.99424 16.5 8.99424C15.5717 8.99424 14.6815 8.62549 14.0251 7.96911C13.3687 7.31273 13 6.42249 13 5.49424C13 4.56598 13.3687 3.67574 14.0251 3.01936C14.6815 2.36298 15.5717 1.99423 16.5 1.99423ZM7.004 1.99423C6.67517 1.99423 6.34956 2.059 6.04576 2.18484C5.74196 2.31068 5.46592 2.49512 5.2334 2.72764C5.00089 2.96016 4.81644 3.2362 4.69061 3.53999C4.56477 3.84379 4.5 4.1694 4.5 4.49823C4.5 4.82706 4.56477 5.15268 4.69061 5.45647C4.81644 5.76027 5.00089 6.03631 5.2334 6.26883C5.46592 6.50135 5.74196 6.68579 6.04576 6.81163C6.34956 6.93747 6.67517 7.00223 7.004 7.00223C7.6681 7.00223 8.305 6.73842 8.7746 6.26883C9.24419 5.79924 9.508 5.16234 9.508 4.49823C9.508 3.83413 9.24419 3.19723 8.7746 2.72764C8.305 2.25805 7.6681 1.99423 7.004 1.99423ZM16.5 3.99423C16.1022 3.99423 15.7206 4.15227 15.4393 4.43357C15.158 4.71488 15 5.09641 15 5.49424C15 5.89206 15.158 6.27359 15.4393 6.55489C15.7206 6.8362 16.1022 6.99424 16.5 6.99424C16.8978 6.99424 17.2794 6.8362 17.5607 6.55489C17.842 6.27359 18 5.89206 18 5.49424C18 5.09641 17.842 4.71488 17.5607 4.43357C17.2794 4.15227 16.8978 3.99423 16.5 3.99423Z" fill="white"/>
</svg>
