<svg width="25" height="15" viewBox="0 0 25 15" fill="none" xmlns="http://www.w3.org/2000/svg">
<path d="M19.97 2.74629L18.185 0.979883C17.79 0.592388 17.2562 0.374988 16.7 0.375H8.195C7.64 0.375 7.10375 0.593945 6.71 0.979883L4.925 2.74629H0.5V12.2352H2.9C3.56 12.2352 4.0925 11.7082 4.09625 11.0588H4.4375L7.61 13.8939C8.76875 14.8254 10.3775 14.8477 11.57 14.035C12.0388 14.4357 12.545 14.625 13.1112 14.625C13.7937 14.625 14.435 14.3504 14.9413 13.7344C15.77 14.0572 16.7488 13.8309 17.3413 13.1109L18.3237 11.9123C18.5338 11.6562 18.665 11.3631 18.7325 11.0588H20.9037C20.9075 11.7082 21.4438 12.2352 22.1 12.2352H24.5V2.74629H19.97ZM2.3 11.0477C1.97 11.0477 1.7 10.7805 1.7 10.4539C1.7 10.1273 1.97 9.86016 2.3 9.86016C2.63 9.86016 2.9 10.1273 2.9 10.4539C2.9 10.7842 2.63 11.0477 2.3 11.0477ZM16.925 10.7916L15.9462 11.9865C15.8413 12.1127 15.6538 12.135 15.5225 12.0311L14.6263 11.3111L13.5013 12.6656C13.2763 12.9365 12.9388 12.8438 12.8263 12.7547L11.4462 11.5857L10.8612 12.2982C10.34 12.9328 9.39125 13.0293 8.7875 12.5432L5.13875 9.27754H4.1V4.52383H5.67125L7.985 2.23789C8.06 2.2082 8.12375 2.18223 8.19875 2.15254H10.325L8.87375 3.46992C7.77125 4.46816 7.7075 6.15293 8.70875 7.2291C9.26375 7.83027 11.0037 8.75801 12.515 7.39238L12.8225 7.11406L16.88 10.3723C17.0075 10.4762 17.0263 10.6654 16.925 10.7916ZM20.9 9.27754H18.305C18.2188 9.17363 18.1213 9.07715 18.0163 8.9918L14.165 5.89687L14.6337 5.47383C14.8775 5.25117 14.8963 4.87637 14.6713 4.63516L14.2625 4.20098C14.0375 3.95977 13.6588 3.94492 13.415 4.16387L11.345 6.0416C10.9888 6.36445 10.3813 6.39043 10.0475 6.0416C9.69875 5.67422 9.72875 5.11016 10.0925 4.78359L12.5525 2.55332C12.83 2.30098 13.19 2.16367 13.565 2.16367L16.7038 2.15625C16.7825 2.15625 16.8575 2.18594 16.91 2.2416L19.2238 4.52754H20.9V9.27754ZM22.7 11.0477C22.37 11.0477 22.1 10.7805 22.1 10.4539C22.1 10.1273 22.37 9.86016 22.7 9.86016C23.03 9.86016 23.3 10.1273 23.3 10.4539C23.3 10.7842 23.03 11.0477 22.7 11.0477Z" fill="white"/>
</svg>
