<svg width="18" height="20" viewBox="0 0 18 20" fill="none" xmlns="http://www.w3.org/2000/svg">
<path d="M7.17365 4.93204H2.29452C1.70659 4.93204 1.22998 5.40149 1.22998 5.98058V15.5922C1.22998 16.1713 1.70659 16.6408 2.29452 16.6408H4.15746C4.35343 16.6408 4.5123 16.7973 4.5123 16.9903V19L7.70591 16.6408H14.9803C15.5682 16.6408 16.0448 16.1713 16.0448 15.5922V7.99029M10.8108 1.61165V1.52427C10.8108 1.23472 10.5725 1 10.2785 1H8.85916C8.5652 1 8.32689 1.23472 8.32689 1.52427V5.80583C8.32689 6.09537 8.5652 6.3301 8.85916 6.3301H10.2785C10.5725 6.3301 10.8108 6.09537 10.8108 5.80583V5.71845M10.8108 1.61165H15.2775C15.7357 1.61165 16.1425 1.90045 16.2874 2.32862L17.1745 4.94998C17.4043 5.62894 16.8912 6.3301 16.1646 6.3301H14.2706L14.5367 8.51456C14.4184 8.95146 13.9689 9.61553 13.1173 8.7767L11.6979 6.3301C11.6388 6.15534 11.3786 5.78835 10.8108 5.71845M10.8108 1.61165V5.71845M9.56885 4V4.54369M4.06875 8.95146H11.0769M4.06875 11.2233H13.206M4.06875 13.4951H9.56885" stroke="black" stroke-opacity="0.8" stroke-linecap="round"/>
</svg>
