<?xml version="1.0" standalone="no"?>
<!DOCTYPE svg PUBLIC "-//W3C//DTD SVG 20010904//EN"
 "http://www.w3.org/TR/2001/REC-SVG-20010904/DTD/svg10.dtd">
<svg version="1.0" xmlns="http://www.w3.org/2000/svg"
 width="234.000000pt" height="237.000000pt" viewBox="0 0 234.000000 237.000000"
 preserveAspectRatio="xMidYMid meet">

<g transform="translate(0.000000,237.000000) scale(0.100000,-0.100000)"
fill="#000000" stroke="none">
<path d="M1046 2340 c-210 -24 -420 -108 -586 -235 -79 -61 -208 -199 -263
-282 -344 -519 -225 -1212 273 -1585 336 -252 782 -302 1172 -133 246 106 487
347 593 593 158 364 130 765 -76 1098 -62 101 -219 267 -319 336 -227 159
-527 238 -794 208z m384 -138 c187 -52 322 -129 461 -260 194 -184 304 -407
328 -665 49 -520 -278 -990 -784 -1127 -121 -33 -348 -39 -475 -12 -327 68
-588 269 -735 567 -30 60 -63 143 -74 184 -103 377 2 766 280 1040 141 140
326 240 518 282 119 26 371 21 481 -9z"/>
<path d="M1077 1599 c-82 -20 -147 -77 -166 -146 -17 -60 -16 -63 37 -63 47 0
48 1 62 42 20 57 67 88 133 88 44 0 53 -4 88 -39 31 -31 39 -46 39 -75 0 -51
-22 -98 -59 -127 -111 -85 -133 -117 -146 -216 l-7 -53 50 0 49 0 6 51 c8 65
22 86 94 141 91 69 121 140 102 236 -23 117 -156 192 -282 161z"/>
<path d="M1065 895 c-30 -30 -31 -54 -4 -89 42 -53 122 -23 122 46 0 62 -73
89 -118 43z"/>
</g>
</svg>
