<svg width="19" height="20" viewBox="0 0 19 20" fill="none" xmlns="http://www.w3.org/2000/svg">
<path d="M9.00879 0.5C13.7131 0.5 17.5185 4.27325 17.5186 8.91699C17.5186 10.5143 16.4377 12.3479 14.9307 14.0986C13.4442 15.8253 11.6309 17.3724 10.3428 18.3848C9.55194 19.0063 8.46662 19.0063 7.67578 18.3848C6.38766 17.3724 4.57443 15.8254 3.08789 14.0986C1.58078 12.3479 0.5 10.5143 0.5 8.91699C0.500032 4.27339 4.30464 0.500228 9.00879 0.5Z" stroke="black"/>
<path d="M8.98682 3.35693C11.6374 3.35708 13.7856 5.50611 13.7856 8.15674C13.7855 10.8072 11.6373 12.9554 8.98682 12.9556C6.33619 12.9556 4.18715 10.8073 4.18701 8.15674C4.18701 5.50603 6.33611 3.35693 8.98682 3.35693Z" stroke="black"/>
<path d="M8.98633 4.59961C9.82992 4.59961 10.5145 5.2834 10.5146 6.12695C10.5146 6.97065 9.83002 7.65527 8.98633 7.65527C8.14277 7.65511 7.45898 6.97055 7.45898 6.12695C7.45915 5.2835 8.14287 4.59977 8.98633 4.59961Z" stroke="black"/>
<mask id="path-4-inside-1_566_1070" fill="white">
<path d="M4.97238 11.6188C5.1662 10.6962 5.67021 9.86785 6.40049 9.2717C7.13076 8.67554 8.04323 8.34755 8.98593 8.34235C9.92862 8.33714 10.8447 8.65504 11.5815 9.24309C12.3183 9.83115 12.8314 10.6539 13.0354 11.5742L12.0452 11.7937C11.8914 11.0997 11.5044 10.4792 10.9488 10.0358C10.3932 9.59235 9.70241 9.35262 8.99152 9.35655C8.28064 9.36047 7.59256 9.60781 7.04186 10.0574C6.49116 10.5069 6.11109 11.1316 5.96493 11.8273L4.97238 11.6188Z"/>
</mask>
<path d="M4.97238 11.6188C5.1662 10.6962 5.67021 9.86785 6.40049 9.2717C7.13076 8.67554 8.04323 8.34755 8.98593 8.34235C9.92862 8.33714 10.8447 8.65504 11.5815 9.24309C12.3183 9.83115 12.8314 10.6539 13.0354 11.5742L12.0452 11.7937C11.8914 11.0997 11.5044 10.4792 10.9488 10.0358C10.3932 9.59235 9.70241 9.35262 8.99152 9.35655C8.28064 9.36047 7.59256 9.60781 7.04186 10.0574C6.49116 10.5069 6.11109 11.1316 5.96493 11.8273L4.97238 11.6188Z" stroke="black" stroke-width="2" mask="url(#path-4-inside-1_566_1070)"/>
</svg>
