<?xml version="1.0" standalone="no"?>
<!DOCTYPE svg PUBLIC "-//W3C//DTD SVG 20010904//EN"
 "http://www.w3.org/TR/2001/REC-SVG-20010904/DTD/svg10.dtd">
<svg version="1.0" xmlns="http://www.w3.org/2000/svg"
 width="512.000000pt" height="512.000000pt" viewBox="0 0 512.000000 512.000000"
 preserveAspectRatio="xMidYMid meet">

<g transform="translate(0.000000,512.000000) scale(0.100000,-0.100000)"
fill="#000000" stroke="none">
<path d="M4401 5101 c-49 -17 -86 -52 -420 -385 l-366 -366 -1585 0 c-1392 0
-1593 -2 -1645 -15 -180 -47 -327 -197 -370 -376 -22 -97 -22 -2871 0 -2968
43 -180 189 -328 370 -376 42 -10 108 -15 222 -15 122 0 165 -3 168 -13 2 -6
13 -99 25 -204 22 -218 37 -261 102 -318 72 -61 164 -80 248 -50 23 8 241 143
485 300 l442 285 1044 0 c1150 0 1100 -2 1221 62 74 39 177 147 212 223 57
120 56 70 56 1590 l0 1400 231 230 c127 127 239 247 251 269 29 56 34 132 13
197 -16 49 -39 76 -239 277 -136 137 -236 230 -261 242 -62 30 -140 34 -204
11z m336 -364 c255 -254 250 -242 137 -357 l-79 -80 -248 248 -248 248 81 78
c116 113 103 118 357 -137z m-307 -312 l245 -245 -93 -92 -92 -93 -247 247
-248 248 90 90 c49 49 92 90 95 90 3 0 115 -110 250 -245z m-465 -155 l90 -90
-546 -546 -546 -546 -64 45 c-35 24 -84 55 -109 67 -25 12 -47 24 -50 27 -4 4
1121 1133 1130 1133 3 0 46 -41 95 -90z m-996 -567 l-477 -478 -137 -414
c-115 -345 -136 -420 -132 -454 9 -69 65 -125 134 -134 34 -4 109 17 454 132
l414 137 600 599 c330 330 604 599 608 599 4 0 6 -597 5 -1327 l-3 -1328 -29
-62 c-33 -73 -103 -144 -174 -176 l-47 -22 -1085 -5 -1085 -5 -450 -291 c-247
-160 -456 -294 -463 -298 -24 -14 -81 4 -99 30 -11 18 -23 90 -39 242 -13 119
-24 227 -24 239 0 12 -11 35 -24 50 l-24 28 -234 5 c-225 5 -235 6 -288 31
-70 33 -132 95 -167 167 l-28 57 0 1450 0 1450 28 57 c30 61 93 130 141 155
81 43 46 42 1606 42 l1495 1 -476 -477z m1306 257 l90 -90 -565 -565 c-311
-311 -568 -565 -571 -565 -4 0 -12 14 -19 30 -7 17 -37 67 -67 112 l-54 82
543 543 c299 299 545 543 548 543 3 0 46 -41 95 -90z m-1525 -933 c99 -56 221
-178 277 -277 70 -125 71 -120 -47 -159 -56 -18 -102 -31 -104 -29 -1 1 -15
32 -31 68 -20 42 -51 85 -90 125 -40 39 -83 70 -125 90 -36 16 -67 30 -68 31
-2 2 11 48 29 104 39 118 34 117 159 47z m-173 -347 c28 -16 63 -44 76 -62 28
-37 57 -92 57 -107 0 -9 -300 -114 -307 -107 -8 8 100 306 111 306 6 0 34 -14
63 -30z"/>
<path d="M1290 3919 c-188 -20 -356 -116 -469 -266 -80 -107 -139 -275 -141
-400 0 -46 42 -93 85 -93 58 0 76 25 91 125 17 114 44 186 97 256 73 98 171
166 282 195 65 18 196 18 261 0 244 -65 410 -312 375 -559 -30 -212 -186 -383
-393 -432 -35 -8 -77 -15 -95 -15 -44 0 -79 -18 -92 -47 -6 -14 -11 -85 -11
-173 0 -141 1 -150 23 -175 33 -39 91 -39 123 -1 22 25 24 36 24 130 l0 103
45 7 c118 16 272 102 368 206 190 205 237 503 118 755 -122 260 -403 416 -691
384z"/>
<path d="M1305 2105 c-52 -51 -14 -139 60 -139 29 0 43 7 61 28 49 56 13 136
-61 136 -25 0 -44 -8 -60 -25z"/>
<path d="M455 1765 c-25 -24 -32 -65 -19 -100 18 -47 -59 -45 1874 -45 l1812
0 29 29 c37 38 39 82 4 116 l-24 25 -1826 0 -1826 0 -24 -25z"/>
<path d="M495 1363 c-65 -16 -88 -98 -39 -144 l26 -24 1355 0 1355 0 24 28
c31 36 31 78 0 114 l-24 28 -1339 1 c-736 1 -1347 0 -1358 -3z"/>
</g>
</svg>
