<?xml version="1.0" encoding="UTF-8"?>
<svg version="1.1" xmlns="http://www.w3.org/2000/svg" width="512" height="512">
<path d="M0 0 C0.82894775 0.0105542 1.65789551 0.0211084 2.51196289 0.03198242 C17.28396279 0.35232508 17.28396279 0.35232508 23.5625 5.3125 C24.26375 5.621875 24.965 5.93125 25.6875 6.25 C28.05377982 7.5908919 28.39399906 8.90246682 29.5625 11.3125 C31.50305478 12.9498431 33.29463843 14.17856921 35.5625 15.3125 C36.15605614 17.96110427 36.30459269 20.60447322 36.5625 23.3125 C29.42981346 25.04163613 24.06530853 24.56390427 17.5625 21.3125 C16.386875 20.075 16.386875 20.075 15.1875 18.8125 C11.11664572 14.93549592 8.10892275 15.09904899 2.52734375 15.140625 C-0.02795087 15.36414978 -2.10565014 16.28374271 -4.4375 17.3125 C-5.0975 16.9825 -5.7575 16.6525 -6.4375 16.3125 C-6.7675 16.9725 -7.0975 17.6325 -7.4375 18.3125 C-9.41638961 19.03943904 -11.41704558 19.71066251 -13.4375 20.3125 C-13.4375 20.9725 -13.4375 21.6325 -13.4375 22.3125 C-14.1490625 22.39886719 -14.860625 22.48523438 -15.59375 22.57421875 C-25.39441321 25.1186217 -34.45976986 35.79768279 -41.66308594 42.63525391 C-43.5276007 44.39766673 -45.40657783 46.14352106 -47.2890625 47.88671875 C-54.90755838 54.95658622 -62.37466901 62.14558142 -69.65380859 69.56567383 C-70.23855957 70.15888428 -70.82331055 70.75209473 -71.42578125 71.36328125 C-72.19208862 72.14699097 -72.19208862 72.14699097 -72.97387695 72.9465332 C-75.21660519 75.03962153 -76.67432402 76.33258358 -79.8125 76.25 C-85.51244568 74.21430511 -89.04164362 68.40350946 -92.5625 63.6875 C-96.21573147 58.75426195 -96.21573147 58.75426195 -100.4375 54.3125 C-100.7675 54.6425 -101.0975 54.9725 -101.4375 55.3125 C-100.963125 55.725 -100.48875 56.1375 -100 56.5625 C-98.4375 58.3125 -98.4375 58.3125 -98.05078125 60.06640625 C-97.22698293 63.08350201 -95.7321313 65.36170075 -94.0625 68 C-93.45664062 68.97324219 -92.85078125 69.94648438 -92.2265625 70.94921875 C-90.58805031 73.57649448 -90.58805031 73.57649448 -87.4375 74.3125 C-86.75 76.375 -86.75 76.375 -86.4375 78.3125 C-85.1175 78.6425 -83.7975 78.9725 -82.4375 79.3125 C-83.0975 79.6425 -83.7575 79.9725 -84.4375 80.3125 C-84.64629594 81.87846955 -84.84826261 83.44553897 -85.0234375 85.015625 C-85.72928566 88.93108462 -87.16374107 92.60907889 -88.5 96.34765625 C-89.52841756 99.30973392 -89.52841756 99.30973392 -89.875 102.49609375 C-90.5127252 105.6891484 -91.1221842 106.1815419 -93.4375 108.3125 C-94.71181064 110.48532679 -95.9299528 112.65997809 -97.125 114.875 C-102.77722045 125.00739981 -109.58316331 132.8175428 -118.4375 140.3125 C-119.0975 140.9725 -119.7575 141.6325 -120.4375 142.3125 C-121.4275 142.6425 -122.4175 142.9725 -123.4375 143.3125 C-125.29259847 144.12287026 -127.1466327 144.93567825 -129 145.75 C-143.63736815 151.80081168 -158.11744982 151.49397086 -173.328125 147.96875 C-176.56015138 147.1748293 -176.56015138 147.1748293 -180.4375 147.3125 C-180.4375 146.6525 -180.4375 145.9925 -180.4375 145.3125 C-181.4275 145.6425 -182.4175 145.9725 -183.4375 146.3125 C-183.4375 145.6525 -183.4375 144.9925 -183.4375 144.3125 C-183.994375 144.16554688 -184.55125 144.01859375 -185.125 143.8671875 C-194.90899432 140.99148647 -200.35902857 136.10171829 -205.90234375 127.62890625 C-207.45343575 125.17402103 -207.45343575 125.17402103 -209.75 122.6875 C-211.4375 120.3125 -211.4375 120.3125 -212.296875 116.66015625 C-213.35798946 112.17752018 -215.17788084 108.40237989 -217.375 104.375 C-217.72240234 103.70404297 -218.06980469 103.03308594 -218.42773438 102.34179688 C-220.48628917 98.29118623 -220.48628917 98.29118623 -224.4375 96.3125 C-224.58960938 95.69761719 -224.74171875 95.08273437 -224.8984375 94.44921875 C-225.78975721 90.91623409 -228.39394623 89.59476256 -231.26953125 87.57421875 C-234.39601201 85.75466328 -236.82707389 85.43488733 -240.4375 85.3125 C-241.29601562 85.25191406 -242.15453125 85.19132812 -243.0390625 85.12890625 C-249.56924832 84.83207962 -253.97147422 85.72698768 -259.4375 89.3125 C-260.30375 89.84875 -261.17 90.385 -262.0625 90.9375 C-265.64896964 94.52396964 -268.2241693 98.7565375 -270.4375 103.3125 C-270.4375 104.3025 -270.4375 105.2925 -270.4375 106.3125 C-271.0975 106.3125 -271.7575 106.3125 -272.4375 106.3125 C-272.5921875 108.045 -272.5921875 108.045 -272.75 109.8125 C-274.36360829 121.75739252 -281.43936111 129.47582535 -290.609375 136.99609375 C-299.38112018 143.3125 -299.38112018 143.3125 -304.4375 143.3125 C-304.7675 143.9725 -305.0975 144.6325 -305.4375 145.3125 C-306.0975 144.9825 -306.7575 144.6525 -307.4375 144.3125 C-307.7675 144.9725 -308.0975 145.6325 -308.4375 146.3125 C-309.0975 145.9825 -309.7575 145.6525 -310.4375 145.3125 C-310.7675 145.9725 -311.0975 146.6325 -311.4375 147.3125 C-312.4275 146.9825 -313.4175 146.6525 -314.4375 146.3125 C-314.7675 146.9725 -315.0975 147.6325 -315.4375 148.3125 C-327.3175 148.3125 -339.1975 148.3125 -351.4375 148.3125 C-351.4375 147.6525 -351.4375 146.9925 -351.4375 146.3125 C-352.7575 146.6425 -354.0775 146.9725 -355.4375 147.3125 C-355.4375 146.6525 -355.4375 145.9925 -355.4375 145.3125 C-356.200625 145.51875 -356.96375 145.725 -357.75 145.9375 C-360.4375 146.3125 -360.4375 146.3125 -363.4375 144.3125 C-365.09954844 143.49074371 -366.76182344 142.66943704 -368.42602539 141.85205078 C-382.31784698 134.88786814 -392.44488991 125.55742158 -398.3125 110.875 C-399.4375 107.3125 -399.4375 107.3125 -399.4375 104.3125 C-400.0975 103.9825 -400.7575 103.6525 -401.4375 103.3125 C-401.89453125 101.59765625 -401.89453125 101.59765625 -402.25 99.375 C-403.18463249 94.68688341 -404.96965792 90.86835169 -407.21875 86.671875 C-408.4604827 84.26800785 -409.47037602 81.83776817 -410.4375 79.3125 C-409.89480469 79.09335937 -409.35210937 78.87421875 -408.79296875 78.6484375 C-405.65340627 76.86779013 -403.27293363 74.4771418 -400.75 71.9375 C-400.25177734 71.45539063 -399.75355469 70.97328125 -399.24023438 70.4765625 C-396.60493018 67.84483402 -395.06464194 65.99390462 -394.4375 62.3125 C-392.3125 60.4375 -392.3125 60.4375 -389.4375 58.3125 C-388.21954224 57.3242448 -387.01157424 56.32358378 -385.8125 55.3125 C-385.24273437 54.838125 -384.67296875 54.36375 -384.0859375 53.875 C-382.32951034 52.38213001 -382.32951034 52.38213001 -381.37091064 50.24421692 C-378.84263226 47.71815339 -376.83807505 47.83543728 -373.36701965 47.80371094 C-372.12331856 47.82292603 -372.12331856 47.82292603 -370.85449219 47.8425293 C-369.97772324 47.8403389 -369.10095428 47.8381485 -368.19761658 47.83589172 C-365.29282166 47.8335763 -362.38903528 47.85986866 -359.484375 47.88671875 C-357.46519289 47.8916425 -355.44600621 47.89494148 -353.42681885 47.89668274 C-349.18983433 47.9043313 -344.95318656 47.924912 -340.71630859 47.95581055 C-335.29476264 47.99528462 -329.87343637 48.01340324 -324.45176315 48.02311993 C-319.27510419 48.03311911 -314.09849831 48.05298964 -308.921875 48.07421875 C-307.93744164 48.0776145 -306.95300827 48.08101025 -305.93874359 48.0845089 C-303.1384612 48.09614447 -300.33831337 48.11467739 -297.53808594 48.13549805 C-296.7170488 48.13818695 -295.89601166 48.14087585 -295.0500946 48.14364624 C-287.77819065 48.21113568 -281.96700476 48.90580187 -275.4375 52.3125 C-273.77230481 52.65310811 -272.10592534 52.98808396 -270.4375 53.3125 C-269.7775 53.9725 -269.1175 54.6325 -268.4375 55.3125 C-266.46803306 56.34085213 -266.46803306 56.34085213 -264.4375 57.0625 C-261.77653725 58.72560172 -261.49750685 60.41514794 -260.4375 63.3125 C-258.91742158 65.08527259 -258.91742158 65.08527259 -257.4375 66.3125 C-256.591875 65.8175 -255.74625 65.3225 -254.875 64.8125 C-248.49179587 62.04688178 -239.1300244 61.86486259 -232.6875 64.390625 C-231.945 64.69484375 -231.2025 64.9990625 -230.4375 65.3125 C-224.42637022 63.64274173 -220.3021055 60.18730633 -216.4375 55.3125 C-216.4375 54.6525 -216.4375 53.9925 -216.4375 53.3125 C-215.4475 53.3125 -214.4575 53.3125 -213.4375 53.3125 C-213.1075 52.6525 -212.7775 51.9925 -212.4375 51.3125 C-209.9307831 50.82268175 -207.53615709 50.49687075 -205 50.25 C-204.18523193 50.16766113 -203.37046387 50.08532227 -202.53100586 50.00048828 C-181.66989421 48.10828148 -160.36924327 47.916546 -139.4375 48.3125 C-137.79467041 48.33932861 -137.79467041 48.33932861 -136.11865234 48.36669922 C-132.47424942 48.43428866 -128.83117917 48.52610744 -125.1875 48.625 C-124.0435376 48.64739746 -122.8995752 48.66979492 -121.72094727 48.69287109 C-115.30152743 48.90284546 -110.2983248 49.64653945 -104.4375 52.3125 C-104.004375 51.69375 -103.57125 51.075 -103.125 50.4375 C-101.4375 48.3125 -101.4375 48.3125 -98.4375 46.3125 C-97.65375 45.631875 -96.87 44.95125 -96.0625 44.25 C-93.4375 42.3125 -93.4375 42.3125 -90.875 41.8125 C-88.28338527 41.51397771 -88.28338527 41.51397771 -86.5 39.375 C-83.98246 36.85746 -81.83529938 36.25231685 -78.4375 35.3125 C-75.51439878 34.59862706 -75.51439878 34.59862706 -74.1875 33 C-69.61059849 28.58655926 -64.41060633 27.00300179 -58.4375 25.3125 C-57.09474831 24.32518258 -55.76017727 23.32655257 -54.4375 22.3125 C-53.591875 22.1475 -52.74625 21.9825 -51.875 21.8125 C-48.99315948 21.22135323 -48.43226483 20.38705543 -46.4375 18.3125 C-41.10416667 15.3125 -41.10416667 15.3125 -37.4375 15.3125 C-36.81875 14.673125 -36.2 14.03375 -35.5625 13.375 C-33.14910978 11.03259185 -31.7211126 10.67734584 -28.4375 10.3125 C-28.4375 9.6525 -28.4375 8.9925 -28.4375 8.3125 C-27.53 8.044375 -26.6225 7.77625 -25.6875 7.5 C-22.52719638 6.53853284 -22.52719638 6.53853284 -20.625 4.875 C-14.49318471 0.49513193 -7.32380515 -0.16338121 0 0 Z M-35.4375 22.3125 C-34.4375 24.3125 -34.4375 24.3125 -34.4375 24.3125 Z M-65.4375 42.3125 C-64.4375 44.3125 -64.4375 44.3125 -64.4375 44.3125 Z M-63.4375 42.3125 C-63.4375 42.9725 -63.4375 43.6325 -63.4375 44.3125 C-62.4475 43.9825 -61.4575 43.6525 -60.4375 43.3125 C-61.4275 42.9825 -62.4175 42.6525 -63.4375 42.3125 Z M-96.4375 52.3125 C-95.4375 54.3125 -95.4375 54.3125 -95.4375 54.3125 Z M-83.4375 64.3125 C-83.4375 64.9725 -83.4375 65.6325 -83.4375 66.3125 C-81.7875 66.3125 -80.1375 66.3125 -78.4375 66.3125 C-79.0975 65.6525 -79.7575 64.9925 -80.4375 64.3125 C-81.4275 64.3125 -82.4175 64.3125 -83.4375 64.3125 Z M-179.4375 72.3125 C-181.355625 72.4671875 -181.355625 72.4671875 -183.3125 72.625 C-187.3260651 73.06613058 -188.71425211 74.30753681 -191.4375 77.3125 C-192.613125 77.43625 -192.613125 77.43625 -193.8125 77.5625 C-198.15757795 78.80395084 -200.23873126 82.51462672 -202.4375 86.3125 C-205.94684577 94.80630637 -205.74334305 105.53417648 -202.875 114.25 C-200.63947377 119.52743871 -197.5012357 124.25819292 -193.4375 128.3125 C-192.4475 128.6425 -191.4575 128.9725 -190.4375 129.3125 C-189.7775 129.9725 -189.1175 130.6325 -188.4375 131.3125 C-185.5690587 133.41482344 -185.5690587 133.41482344 -182.4375 134.3125 C-181.81101562 134.64121094 -181.18453125 134.96992188 -180.5390625 135.30859375 C-178.29152008 136.3822339 -176.25099821 136.88974701 -173.8125 137.375 C-171.45559665 137.84872974 -169.59093684 138.23578158 -167.4375 139.3125 C-164.38090388 139.55120255 -161.31489258 139.4976973 -158.25 139.5 C-157.41146484 139.51224609 -156.57292969 139.52449219 -155.70898438 139.53710938 C-150.58264684 139.54911485 -146.34583039 138.95855005 -141.4375 137.3125 C-140.52484375 137.06628906 -139.6121875 136.82007813 -138.671875 136.56640625 C-137.85203125 136.33824219 -137.0321875 136.11007812 -136.1875 135.875 C-135.35734375 135.64941406 -134.5271875 135.42382812 -133.671875 135.19140625 C-131.26761885 134.24567612 -130.17071273 133.18214639 -128.4375 131.3125 C-126.25 130.625 -126.25 130.625 -124.4375 130.3125 C-124.4375 129.6525 -124.4375 128.9925 -124.4375 128.3125 C-123.54224609 128.16748047 -123.54224609 128.16748047 -122.62890625 128.01953125 C-118.44054792 126.66820708 -116.50866817 123.01391539 -114.4375 119.3125 C-109.9772987 107.67286686 -109.96573902 94.93143452 -114.4375 83.3125 C-116.79790928 78.98508299 -119.21113 75.88507305 -123.4375 73.3125 C-126.02552513 72.62971928 -128.58808686 72.1309216 -131.23046875 71.70703125 C-133.4375 71.3125 -133.4375 71.3125 -135.4375 70.3125 C-137.8976534 70.21367619 -140.32877951 70.17265622 -142.7890625 70.1796875 C-143.88835587 70.17825241 -143.88835587 70.17825241 -145.00985718 70.17678833 C-146.56500331 70.17610702 -148.12015228 70.17795791 -149.67529297 70.18212891 C-152.03229353 70.18743204 -154.3890995 70.18220627 -156.74609375 70.17578125 C-158.26041708 70.17644294 -159.77474029 70.17772597 -161.2890625 70.1796875 C-161.9852066 70.17766327 -162.68135071 70.17563904 -163.39859009 70.17355347 C-171.64842926 70.07979344 -171.64842926 70.07979344 -179.4375 72.3125 Z M-343.1875 71.25 C-344.10660156 71.33701172 -345.02570313 71.42402344 -345.97265625 71.51367188 C-350.1924216 71.92587761 -354.28325601 72.45030665 -358.4375 73.3125 C-359.076875 73.395 -359.71625 73.4775 -360.375 73.5625 C-362.7681747 74.30076344 -362.7681747 74.30076344 -365.4375 76.8125 C-368.4375 79.3125 -368.4375 79.3125 -370.5 79.8125 C-373.81633398 80.66832812 -375.2908541 82.72551648 -377.4375 85.3125 C-382.05590944 93.5937859 -381.65677685 104.49165856 -379.74609375 113.61328125 C-377.82096582 119.43699461 -374.99763922 124.16928779 -370.4375 128.3125 C-369.7775 128.6425 -369.1175 128.9725 -368.4375 129.3125 C-367.4475 129.9725 -366.4575 130.6325 -365.4375 131.3125 C-364.7775 131.3125 -364.1175 131.3125 -363.4375 131.3125 C-363.025 131.76625 -362.6125 132.22 -362.1875 132.6875 C-359.81036382 134.89484074 -357.54413842 135.4163543 -354.4375 136.3125 C-353.24125 136.663125 -352.045 137.01375 -350.8125 137.375 C-349.141875 137.8390625 -349.141875 137.8390625 -347.4375 138.3125 C-346.86128906 138.49425781 -346.28507812 138.67601562 -345.69140625 138.86328125 C-342.44777387 139.50975911 -339.30394843 139.44404896 -336 139.4375 C-334.05287109 139.44136719 -334.05287109 139.44136719 -332.06640625 139.4453125 C-329.01143641 139.33350521 -326.39433343 139.01793742 -323.4375 138.3125 C-322.6846875 138.15910156 -321.931875 138.00570312 -321.15625 137.84765625 C-313.92396999 136.55398859 -313.92396999 136.55398859 -307.875 132.75 C-306.4375 131.3125 -306.4375 131.3125 -304.5 130.875 C-301.62876212 130.09193512 -300.42766136 128.48923898 -298.4375 126.3125 C-296.2826855 124.1576855 -294.13837208 122.0425553 -291.875 120 C-285.97454898 113.49437451 -285.1059597 105.58500206 -285.23046875 97.15234375 C-285.83643577 88.84030552 -289.24880073 82.8623658 -295.4375 77.3125 C-297.41881599 76.16289851 -297.41881599 76.16289851 -299.4375 75.3125 C-300.51 74.8175 -301.5825 74.3225 -302.6875 73.8125 C-315.4046363 69.11217007 -329.949393 69.91863546 -343.1875 71.25 Z M-106.4375 71.3125 C-106.1075 72.3025 -105.7775 73.2925 -105.4375 74.3125 C-103.7875 73.9825 -102.1375 73.6525 -100.4375 73.3125 C-103.25259993 71.0351499 -103.25259993 71.0351499 -106.4375 71.3125 Z M-385.4375 72.3125 C-384.4375 75.3125 -384.4375 75.3125 -384.4375 75.3125 Z M-395.4375 76.3125 C-394.4375 78.3125 -394.4375 78.3125 -394.4375 78.3125 Z " fill="#050505" transform="translate(460.4375,182.6875)"/>
<path d="M0 0 C0 0.66 0 1.32 0 2 C0.99 1.67 1.98 1.34 3 1 C3 1.66 3 2.32 3 3 C4.7015625 3.185625 4.7015625 3.185625 6.4375 3.375 C8.2009375 3.684375 8.2009375 3.684375 10 4 C10.33 4.66 10.66 5.32 11 6 C11.99 6.495 11.99 6.495 13 7 C18.03839113 11.96251174 21.53293756 17.88960981 25 24 C14.31774405 27.19420398 4.65705348 24.82169714 -5 20 C-6.662356 19.2199139 -8.32867662 18.44818389 -10 17.6875 C-10.680625 17.36136719 -11.36125 17.03523438 -12.0625 16.69921875 C-14.2837793 15.77369463 -14.2837793 15.77369463 -18 16 C-18 15.34 -18 14.68 -18 14 C-18.639375 14.185625 -19.27875 14.37125 -19.9375 14.5625 C-20.618125 14.706875 -21.29875 14.85125 -22 15 C-22.33 14.67 -22.66 14.34 -23 14 C-24.41570123 13.91348389 -25.835595 13.89295096 -27.25390625 13.90234375 C-28.53491211 13.90717773 -28.53491211 13.90717773 -29.84179688 13.91210938 C-31.18854492 13.92467773 -31.18854492 13.92467773 -32.5625 13.9375 C-33.46419922 13.94201172 -34.36589844 13.94652344 -35.29492188 13.95117188 C-37.53001314 13.96299775 -39.76497437 13.9794778 -42 14 C-42.33 14.66 -42.66 15.32 -43 16 C-43.99 15.67 -44.98 15.34 -46 15 C-46.33 15.66 -46.66 16.32 -47 17 C-48.99628664 17.3548954 -50.99690671 17.68578929 -53 18 C-55.06669397 18.90833725 -55.06669397 18.90833725 -57 20 C-61.40377042 21.87160243 -61.40377042 21.87160243 -63.80371094 22.38842773 C-66.61740777 23.17192157 -69.03386013 24.40540804 -71.640625 25.72265625 C-72.71054688 26.26083984 -73.78046875 26.79902344 -74.8828125 27.35351562 C-75.99398437 27.91748047 -77.10515625 28.48144531 -78.25 29.0625 C-79.37664062 29.63033203 -80.50328125 30.19816406 -81.6640625 30.78320312 C-84.44454032 32.18522372 -87.22308197 33.59094541 -90 35 C-90 35.66 -90 36.32 -90 37 C-90.86625 37.1546875 -90.86625 37.1546875 -91.75 37.3125 C-94.05797859 37.86140733 -94.05797859 37.86140733 -95.75 39.4375 C-98.35369479 41.24562138 -100.80434764 41.67369596 -103.85095215 42.39941406 C-107.16409059 43.32532381 -110.16135246 44.83323853 -113.203125 46.40625 C-114.17073761 46.89430115 -114.17073761 46.89430115 -115.15789795 47.39221191 C-117.19253068 48.42059645 -119.22127729 49.46001369 -121.25 50.5 C-122.62462155 51.19736107 -123.99961887 51.89398196 -125.375 52.58984375 C-127.89200044 53.86458589 -130.40680711 55.14343752 -132.91894531 56.42773438 C-134.70995623 57.34168923 -136.50358403 58.25061791 -138.30371094 59.14648438 C-139.4941247 59.74546056 -140.66285747 60.38857162 -141.8125 61.0625 C-144 62 -144 62 -147.6875 62.5 C-148.780625 62.665 -149.87375 62.83 -151 63 C-151.33 63.66 -151.66 64.32 -152 65 C-152.66 64.67 -153.32 64.34 -154 64 C-154.33 64.66 -154.66 65.32 -155 66 C-157.2578125 66.5625 -157.2578125 66.5625 -160.125 67 C-163.23254625 67.48205704 -166.05955821 68.01999751 -169.04663086 69.02294922 C-173.77217534 70.38682462 -178.42493875 70.24973432 -183.30859375 70.1953125 C-184.75867577 70.19106766 -184.75867577 70.19106766 -186.23805237 70.18673706 C-189.30466452 70.17560407 -192.37097715 70.15051224 -195.4375 70.125 C-197.52538639 70.11496131 -199.61327738 70.10583701 -201.70117188 70.09765625 C-206.80089544 70.07568727 -211.90039705 70.04120507 -217 70 C-217.495 67.525 -217.495 67.525 -218 65 C-214.25 63.875 -214.25 63.875 -212 65 C-211.505 64.01 -211.505 64.01 -211 63 C-208.911361 62.32624548 -207.19636905 62 -205 62 C-205 61.34 -205 60.68 -205 60 C-203.02253397 59.26919734 -201.01927511 58.60578253 -199 58 C-198.34 58.33 -197.68 58.66 -197 59 C-196.67 58.34 -196.34 57.68 -196 57 C-195.01 56.505 -195.01 56.505 -194 56 C-193.34 56.33 -192.68 56.66 -192 57 C-191.67 56.34 -191.34 55.68 -191 55 C-188.5625 53.8125 -188.5625 53.8125 -186 53 C-185.01 53.495 -185.01 53.495 -184 54 C-183.67 53.01 -183.34 52.02 -183 51 C-181.68 51.33 -180.36 51.66 -179 52 C-178.505 51.01 -178.505 51.01 -178 50 C-175.911361 49.32624548 -174.19636905 49 -172 49 C-172 48.34 -172 47.68 -172 47 C-170.02 47 -168.04 47 -166 47 C-165.505 46.01 -165.505 46.01 -165 45 C-164.34 44.67 -163.68 44.34 -163 44 C-162.01 44.495 -162.01 44.495 -161 45 C-160.505 44.01 -160.505 44.01 -160 43 C-159.34 42.67 -158.68 42.34 -158 42 C-157.01 42.495 -157.01 42.495 -156 43 C-156 42.34 -156 41.68 -156 41 C-154.02253397 40.26919734 -152.01927511 39.60578253 -150 39 C-149.34 39.33 -148.68 39.66 -148 40 C-147.505 39.01 -147.505 39.01 -147 38 C-144.911361 37.32624548 -143.19636905 37 -141 37 C-140.505 36.01 -140.505 36.01 -140 35 C-138.35965807 34.27095914 -136.68698082 33.61344757 -135 33 C-134.154375 32.62875 -133.30875 32.2575 -132.4375 31.875 C-130 31 -130 31 -126 31 C-125.505 30.01 -125.505 30.01 -125 29 C-124.01 28.67 -123.02 28.34 -122 28 C-121.01 27.34 -120.02 26.68 -119 26 C-115.9375 24.8125 -115.9375 24.8125 -113 24 C-112.34 24.33 -111.68 24.66 -111 25 C-110.67 24.34 -110.34 23.68 -110 23 C-107.85546875 21.74609375 -107.85546875 21.74609375 -105.1875 20.4375 C-104.31480469 20.00308594 -103.44210938 19.56867188 -102.54296875 19.12109375 C-100.32556178 18.14352724 -98.38883714 17.37827573 -96 17 C-95.34 17.33 -94.68 17.66 -94 18 C-93.67 17.34 -93.34 16.68 -93 16 C-92.01 15.505 -92.01 15.505 -91 15 C-90.34 15.33 -89.68 15.66 -89 16 C-89 15.34 -89 14.68 -89 14 C-86 13 -83 12 -80 11 C-79.01 11.495 -79.01 11.495 -78 12 C-77.67 11.34 -77.34 10.68 -77 10 C-74.5625 8.8125 -74.5625 8.8125 -72 8 C-71.01 8.495 -71.01 8.495 -70 9 C-69.67 8.34 -69.34 7.68 -69 7 C-68.01 7.495 -68.01 7.495 -67 8 C-67 7.34 -67 6.68 -67 6 C-65.02 6.495 -65.02 6.495 -63 7 C-62.67 6.34 -62.34 5.68 -62 5 C-56.46109621 3.11441573 -50.73781503 2.09774918 -45 1 C-44.21882812 0.83886719 -43.43765625 0.67773438 -42.6328125 0.51171875 C-29.43815771 -2.05282098 -13.02270757 -4.34090252 0 0 Z " fill="#0A0909" transform="translate(324,159)"/>
<path d="M0 0 C0.82894775 0.0105542 1.65789551 0.0211084 2.51196289 0.03198242 C17.28396279 0.35232508 17.28396279 0.35232508 23.5625 5.3125 C24.26375 5.621875 24.965 5.93125 25.6875 6.25 C28.05377982 7.5908919 28.39399906 8.90246682 29.5625 11.3125 C31.50305478 12.9498431 33.29463843 14.17856921 35.5625 15.3125 C36.15605614 17.96110427 36.30459269 20.60447322 36.5625 23.3125 C29.42981346 25.04163613 24.06530853 24.56390427 17.5625 21.3125 C16.386875 20.075 16.386875 20.075 15.1875 18.8125 C11.11664572 14.93549592 8.10892275 15.09904899 2.52734375 15.140625 C-0.02795087 15.36414978 -2.10565014 16.28374271 -4.4375 17.3125 C-5.0975 16.9825 -5.7575 16.6525 -6.4375 16.3125 C-6.7675 16.9725 -7.0975 17.6325 -7.4375 18.3125 C-9.41638961 19.03943904 -11.41704558 19.71066251 -13.4375 20.3125 C-13.4375 20.9725 -13.4375 21.6325 -13.4375 22.3125 C-14.1490625 22.39886719 -14.860625 22.48523438 -15.59375 22.57421875 C-25.39441321 25.1186217 -34.45976986 35.79768279 -41.66308594 42.63525391 C-43.5276007 44.39766673 -45.40657783 46.14352106 -47.2890625 47.88671875 C-54.90755838 54.95658622 -62.37466901 62.14558142 -69.65380859 69.56567383 C-70.23855957 70.15888428 -70.82331055 70.75209473 -71.42578125 71.36328125 C-72.19208862 72.14699097 -72.19208862 72.14699097 -72.97387695 72.9465332 C-75.21660519 75.03962153 -76.67432402 76.33258358 -79.8125 76.25 C-85.51244568 74.21430511 -89.04164362 68.40350946 -92.5625 63.6875 C-96.21573147 58.75426195 -96.21573147 58.75426195 -100.4375 54.3125 C-100.9325 54.8075 -100.9325 54.8075 -101.4375 55.3125 C-100.4475 56.3025 -99.4575 57.2925 -98.4375 58.3125 C-98.7675 58.9725 -99.0975 59.6325 -99.4375 60.3125 C-103.0161304 58.66082443 -106.18570188 56.52963508 -109.4375 54.3125 C-108.86 54.065 -108.2825 53.8175 -107.6875 53.5625 C-105.12791079 52.14050599 -103.46762677 50.40811473 -101.4375 48.3125 C-100.4475 47.6525 -99.4575 46.9925 -98.4375 46.3125 C-97.261875 45.2915625 -97.261875 45.2915625 -96.0625 44.25 C-93.4375 42.3125 -93.4375 42.3125 -90.875 41.8125 C-88.28338527 41.51397771 -88.28338527 41.51397771 -86.5 39.375 C-83.98246 36.85746 -81.83529938 36.25231685 -78.4375 35.3125 C-75.51439878 34.59862706 -75.51439878 34.59862706 -74.1875 33 C-69.61059849 28.58655926 -64.41060633 27.00300179 -58.4375 25.3125 C-57.09474831 24.32518258 -55.76017727 23.32655257 -54.4375 22.3125 C-53.1690625 22.065 -53.1690625 22.065 -51.875 21.8125 C-48.99315948 21.22135323 -48.43226483 20.38705543 -46.4375 18.3125 C-41.10416667 15.3125 -41.10416667 15.3125 -37.4375 15.3125 C-36.81875 14.673125 -36.2 14.03375 -35.5625 13.375 C-33.14910978 11.03259185 -31.7211126 10.67734584 -28.4375 10.3125 C-28.4375 9.6525 -28.4375 8.9925 -28.4375 8.3125 C-27.53 8.044375 -26.6225 7.77625 -25.6875 7.5 C-22.52719638 6.53853284 -22.52719638 6.53853284 -20.625 4.875 C-14.49318471 0.49513193 -7.32380515 -0.16338121 0 0 Z M-35.4375 22.3125 C-34.4375 24.3125 -34.4375 24.3125 -34.4375 24.3125 Z M-65.4375 42.3125 C-64.4375 44.3125 -64.4375 44.3125 -64.4375 44.3125 Z M-63.4375 42.3125 C-63.4375 42.9725 -63.4375 43.6325 -63.4375 44.3125 C-62.4475 43.9825 -61.4575 43.6525 -60.4375 43.3125 C-61.4275 42.9825 -62.4175 42.6525 -63.4375 42.3125 Z M-96.4375 52.3125 C-95.4375 54.3125 -95.4375 54.3125 -95.4375 54.3125 Z M-83.4375 64.3125 C-83.4375 64.9725 -83.4375 65.6325 -83.4375 66.3125 C-81.7875 66.3125 -80.1375 66.3125 -78.4375 66.3125 C-79.0975 65.6525 -79.7575 64.9925 -80.4375 64.3125 C-81.4275 64.3125 -82.4175 64.3125 -83.4375 64.3125 Z " fill="#0C0B0B" transform="translate(460.4375,182.6875)"/>
<path d="M0 0 C-2.4980295 2.80552806 -5.26387583 4.43301685 -8.53125 6.2578125 C-10.19728271 7.18956299 -10.19728271 7.18956299 -11.89697266 8.14013672 C-13.09748804 8.80265327 -14.29850901 9.46425438 -15.5 10.125 C-16.10946472 10.46114319 -16.71892944 10.79728638 -17.34686279 11.14361572 C-37.42471892 22.19660684 -57.74101372 30.89181666 -79.62109375 37.8203125 C-80.41829834 38.07312988 -81.21550293 38.32594727 -82.03686523 38.58642578 C-84 39 -84 39 -86 38 C-75.56100629 27.09705101 -61.87414794 22.17173546 -48.00439453 17.0769043 C-41.8714983 14.79809608 -35.99739935 12.19246439 -30.125 9.3125 C-10.06484567 -0.47202756 -10.06484567 -0.47202756 0 0 Z " fill="#F2F2F2" transform="translate(231,184)"/>
<path d="M0 0 C2.5625 2.1875 2.5625 2.1875 4 4 C4 4.66 4 5.32 4 6 C-1.93833934 5.08325176 -7.42005547 3.57686069 -13.0625 1.5 C-21.73763763 -1.68869924 -29.80242964 -3.27033889 -39 -4 C-28.23500658 -12.59816391 -10.33790168 -7.2187072 0 0 Z " fill="#EEEEEE" transform="translate(331,170)"/>
<path d="M0 0 C6.23671217 2.94969028 10.39733582 6.3220376 14.41796875 11.90625 C12.41796875 12.90625 12.41796875 12.90625 10.5012207 12.31713867 C9.34046021 11.82564331 9.34046021 11.82564331 8.15625 11.32421875 C7.29088623 10.96972656 6.42552246 10.61523438 5.53393555 10.25 C4.6087915 9.8684375 3.68364746 9.486875 2.73046875 9.09375 C-6.08979927 5.56897376 -14.09649536 3.48907863 -23.58203125 2.90625 C-23.25203125 1.91625 -22.92203125 0.92625 -22.58203125 -0.09375 C-16.51100747 -3.12926189 -6.30714654 -1.92584627 0 0 Z " fill="#F0F0F0" transform="translate(476.58203125,189.09375)"/>
<path d="M0 0 C0.66 0.99 1.32 1.98 2 3 C-3.77510157 8.48281895 -9.60832745 13.89053298 -15.875 18.8125 C-16.71804688 19.47894531 -17.56109375 20.14539063 -18.4296875 20.83203125 C-21 22 -21 22 -24.3203125 21.19921875 C-25.20460938 20.80347656 -26.08890625 20.40773437 -27 20 C-27 19.01 -27 18.02 -27 17 C-26.1646875 16.6596875 -26.1646875 16.6596875 -25.3125 16.3125 C-22.84227172 15.06257433 -22.84227172 15.06257433 -20.83203125 12.6796875 C-17.58091268 9.60345669 -14.34364926 7.80070027 -10.375 5.8125 C-5.07514735 3.10522286 -5.07514735 3.10522286 0 0 Z " fill="#F2F1F2" transform="translate(424,205)"/>
<path d="M0 0 C2.25 0.25 2.25 0.25 4 1 C2.97918309 3.74835321 1.9593938 6.06015733 0.3125 8.5 C-1.25269414 10.92972146 -1.25269414 10.92972146 -0.75 13.6875 C-0.06622919 15.99209561 -0.06622919 15.99209561 1 18 C1.039992 19.99960012 1.04346799 22.00047242 1 24 C-1.9375 23.1875 -1.9375 23.1875 -5 22 C-5.33 21.01 -5.66 20.02 -6 19 C-6.66 19 -7.32 19 -8 19 C-9.60988786 15.78022427 -9.60383192 12.4820974 -9 9 C-6.75 6.25 -6.75 6.25 -4 4 C-2.9790625 2.824375 -2.9790625 2.824375 -1.9375 1.625 C-1.298125 1.08875 -0.65875 0.5525 0 0 Z " fill="#F3F3F3" transform="translate(72,253)"/>
<path d="M0 0 C2.64 0 5.28 0 8 0 C8 0.66 8 1.32 8 2 C9.32 2.66 10.64 3.32 12 4 C11.25 9.75 11.25 9.75 9 12 C6.1875 12.4375 6.1875 12.4375 3 12 C0.19259115 9.75407292 -1.61164156 8.10532787 -2.8125 4.6875 C-2.874375 4.130625 -2.93625 3.57375 -3 3 C-2.34 3 -1.68 3 -1 3 C-0.67 2.01 -0.34 1.02 0 0 Z " fill="#F3F3F3" transform="translate(382,228)"/>
<path d="M0 0 C3.25 -0.3125 3.25 -0.3125 7 0 C10.16831196 2.66805218 11.2085314 5.07332467 11.8125 9.0625 C12.05633803 14.18309859 12.05633803 14.18309859 11 17 C9.02 17.33 7.04 17.66 5 18 C4.89042969 17.26394531 4.78085937 16.52789062 4.66796875 15.76953125 C3.82022886 10.55214019 3.11712771 6.39231632 0 2 C0 1.34 0 0.68 0 0 Z " fill="#F6F6F6" transform="translate(354,256)"/>
<path d="M0 0 C0.99 0.33 1.98 0.66 3 1 C-2.8467015 7.57753919 -10.51735597 10.89528381 -19 13 C-20.32 13 -21.64 13 -23 13 C-22.67 12.01 -22.34 11.02 -22 10 C-20.9275 9.87625 -19.855 9.7525 -18.75 9.625 C-15.56296928 9.09382821 -13.77573258 8.43926875 -11 7 C-10.34 7.33 -9.68 7.66 -9 8 C-8.67 7.34 -8.34 6.68 -8 6 C-5.63158361 4.02631968 -3.95847985 2.98615995 -1 2 C-0.67 1.34 -0.34 0.68 0 0 Z " fill="#1D1C1B" transform="translate(336,310)"/>
<path d="M0 0 C0.99 0.33 1.98 0.66 3 1 C1.25 5.875 1.25 5.875 -1 7 C0.32 8.32 1.64 9.64 3 11 C2.67 11.66 2.34 12.32 2 13 C-1.5786304 11.34832443 -4.74820188 9.21713508 -8 7 C-7.4225 6.7525 -6.845 6.505 -6.25 6.25 C-3.68684812 4.82602673 -1.95895126 3.16883889 0 1 C0 0.67 0 0.34 0 0 Z " fill="#201F1F" transform="translate(359,230)"/>
<path d="M0 0 C5.61589298 -0.29047722 9.09825932 -0.10842092 14 3 C14.33 3.66 14.66 4.32 15 5 C15.99 5.33 16.98 5.66 18 6 C18 6.99 18 7.98 18 9 C14.34342968 7.67033807 11.13116287 5.92193344 7.78125 3.953125 C5.2905712 2.62039336 2.70407068 1.79143532 0 1 C0 0.67 0 0.34 0 0 Z " fill="#22201F" transform="translate(470,184)"/>
<path d="M0 0 C3.0831351 1.19899698 6.06279492 2.47700477 9 4 C9 4.66 9 5.32 9 6 C9.598125 5.79375 10.19625 5.5875 10.8125 5.375 C13 5 13 5 16 7 C16 7.66 16 8.32 16 9 C9.3386656 7.96687638 4.48286421 5.91419734 -1 2 C-0.67 1.34 -0.34 0.68 0 0 Z " fill="#1B1919" transform="translate(95,313)"/>
<path d="M0 0 C1.65 0 3.3 0 5 0 C5.5534764 2.07553648 6 3.84365964 6 6 C3.69 6 1.38 6 -1 6 C-1.33 5.34 -1.66 4.68 -2 4 C-1.0625 1.875 -1.0625 1.875 0 0 Z " fill="#E0E0E0" transform="translate(366,233)"/>
<path d="M0 0 C0 0.66 0 1.32 0 2 C-1.45264038 2.8638129 -2.9123163 3.71580454 -4.375 4.5625 C-5.59316406 5.27599609 -5.59316406 5.27599609 -6.8359375 6.00390625 C-7.55007813 6.33261719 -8.26421875 6.66132813 -9 7 C-9.66 6.67 -10.32 6.34 -11 6 C-11 5.34 -11 4.68 -11 4 C-4.5 0 -4.5 0 0 0 Z " fill="#1E1C1C" transform="translate(373,224)"/>
<path d="M0 0 C0.99 0.66 1.98 1.32 3 2 C-1.70406799 3.86540627 -5.94744036 5.36843005 -11 6 C-10.34 5.01 -9.68 4.02 -9 3 C-8.34 3.33 -7.68 3.66 -7 4 C-6.67 3.34 -6.34 2.68 -6 2 C-5.34 2.33 -4.68 2.66 -4 3 C-4 2.34 -4 1.68 -4 1 C-2.68 1.33 -1.36 1.66 0 2 C0 1.34 0 0.68 0 0 Z " fill="#111010" transform="translate(261,164)"/>
<path d="M0 0 C0.66 0.33 1.32 0.66 2 1 C2 1.66 2 2.32 2 3 C0.3767313 3.6708712 -1.24867578 4.33657029 -2.875 5 C-4.23238281 5.556875 -4.23238281 5.556875 -5.6171875 6.125 C-8 7 -8 7 -10 7 C-10 6.34 -10 5.68 -10 5 C-9.34 5 -8.68 5 -8 5 C-8 4.34 -8 3.68 -8 3 C-6.02 3 -4.04 3 -2 3 C-1.67 2.34 -1.34 1.68 -1 1 C-0.67 0.67 -0.34 0.34 0 0 Z " fill="#171616" transform="translate(160,203)"/>
<path d="M0 0 C-0.33 1.32 -0.66 2.64 -1 4 C-3.31 3.67 -5.62 3.34 -8 3 C-8 2.01 -8 1.02 -8 0 C-5.13822943 -1.43088528 -3.06624227 -0.59991697 0 0 Z " fill="#151314" transform="translate(477,196)"/>
<path d="M0 0 C-1 2 -1 2 -3.8125 3.0625 C-6.2019167 3.76526962 -8.57406149 4.44016804 -11 5 C-9.96508351 2.17750049 -9.30084735 1.16625774 -6.625 -0.3125 C-3.89420147 -1.02770914 -2.60810739 -0.9659657 0 0 Z " fill="#141212" transform="translate(213,247)"/>
<path d="M0 0 C0.99 0 1.98 0 3 0 C3 0.66 3 1.32 3 2 C1.36935236 3.05771739 -0.30280873 4.05273046 -2 5 C-2.99 5.66 -3.98 6.32 -5 7 C-5.33 5.35 -5.66 3.7 -6 2 C-2.25 0.875 -2.25 0.875 0 2 C0 1.34 0 0.68 0 0 Z " fill="#1E1C1C" transform="translate(112,222)"/>
<path d="M0 0 C3 1 3 1 4 3 C4.66 3.33 5.32 3.66 6 4 C6.33 4.99 6.66 5.98 7 7 C4.69 6.67 2.38 6.34 0 6 C0 4.02 0 2.04 0 0 Z " fill="#1B1819" transform="translate(268,310)"/>
<path d="M0 0 C4.92127034 -0.16682272 8.50343896 -0.24828052 13 2 C8.88092254 3.37302582 6.27865333 2.74706646 2 2 C1.34 1.34 0.68 0.68 0 0 Z " fill="#191515" transform="translate(214,265)"/>
<path d="M0 0 C0.99 0.33 1.98 0.66 3 1 C-1.75 5.875 -1.75 5.875 -4 7 C-4 5.68 -4 4.36 -4 3 C-3.01 2.67 -2.02 2.34 -1 2 C-0.67 1.34 -0.34 0.68 0 0 Z " fill="#1A1818" transform="translate(336,310)"/>
<path d="M0 0 C1.98 0 3.96 0 6 0 C6.33 0.99 6.66 1.98 7 3 C4.69 2.67 2.38 2.34 0 2 C0 1.34 0 0.68 0 0 Z " fill="#F7F7F7" transform="translate(377,245)"/>
<path d="M0 0 C0.99 0.33 1.98 0.66 3 1 C3 1.66 3 2.32 3 3 C0.36 3.66 -2.28 4.32 -5 5 C-4.67 4.34 -4.34 3.68 -4 3 C-3.34 3 -2.68 3 -2 3 C-2 2.34 -2 1.68 -2 1 C-1.34 0.67 -0.68 0.34 0 0 Z " fill="#201F1F" transform="translate(121,218)"/>
<path d="M0 0 C0.99 0.66 1.98 1.32 3 2 C-1.43076923 4.09230769 -1.43076923 4.09230769 -4.3125 3.625 C-4.869375 3.41875 -5.42625 3.2125 -6 3 C-3 1 -3 1 0 0 Z " fill="#1E1B1B" transform="translate(272,161)"/>
<path d="M0 0 C0.66 0.33 1.32 0.66 2 1 C0.02 2.98 -1.96 4.96 -4 7 C-4.66 6.67 -5.32 6.34 -6 6 C-4.02 4.02 -2.04 2.04 0 0 Z " fill="#000000" transform="translate(407,236)"/>
<path d="M0 0 C0.66 0.33 1.32 0.66 2 1 C-0.97 3.475 -0.97 3.475 -4 6 C-2.84826645 3.53199953 -1.95216435 1.95216435 0 0 Z " fill="#000000" transform="translate(62,249)"/>
<path d="M0 0 C0 0.99 0 1.98 0 3 C-0.99 3 -1.98 3 -3 3 C-2.01 2.01 -1.02 1.02 0 0 Z " fill="#000000" transform="translate(398,245)"/>
<path d="M0 0 C1.485 0.99 1.485 0.99 3 2 C2.67 2.66 2.34 3.32 2 4 C1.34 2.68 0.68 1.36 0 0 Z " fill="#000000" transform="translate(87,305)"/>
<path d="M0 0 C0.99 0.99 1.98 1.98 3 3 C2.01 2.67 1.02 2.34 0 2 C0 1.34 0 0.68 0 0 Z " fill="#000000" transform="translate(72,311)"/>
<path d="M0 0 C0.66 0.33 1.32 0.66 2 1 C1.01 1.66 0.02 2.32 -1 3 C-0.67 2.01 -0.34 1.02 0 0 Z " fill="#000000" transform="translate(198,274)"/>
<path d="M0 0 C0.99 0.33 1.98 0.66 3 1 C2.01 1 1.02 1 0 1 C0 0.67 0 0.34 0 0 Z " fill="#000000" transform="translate(78,317)"/>
<path d="M0 0 C0.99 0.495 0.99 0.495 2 1 C1.67 1.66 1.34 2.32 1 3 C0.67 2.01 0.34 1.02 0 0 Z " fill="#000000" transform="translate(257,315)"/>
<path d="M0 0 C0.66 0.33 1.32 0.66 2 1 C1.01 1 0.02 1 -1 1 C-0.67 0.67 -0.34 0.34 0 0 Z " fill="#000000" transform="translate(174,316)"/>
<path d="M0 0 C0 3 0 3 0 3 Z " fill="#000000" transform="translate(180,310)"/>
<path d="M0 0 C0 3 0 3 0 3 Z " fill="#000000" transform="translate(356,309)"/>
<path d="M0 0 C0 3 0 3 0 3 Z " fill="#000000" transform="translate(194,279)"/>
<path d="M0 0 C0.66 0.33 1.32 0.66 2 1 C1.01 1 0.02 1 -1 1 C-0.67 0.67 -0.34 0.34 0 0 Z " fill="#000000" transform="translate(424,220)"/>
<path d="M0 0 C0.66 0.33 1.32 0.66 2 1 C1.01 1 0.02 1 -1 1 C-0.67 0.67 -0.34 0.34 0 0 Z " fill="#000000" transform="translate(431,214)"/>
<path d="M0 0 C0.66 0.33 1.32 0.66 2 1 C1.01 1 0.02 1 -1 1 C-0.67 0.67 -0.34 0.34 0 0 Z " fill="#000000" transform="translate(436,210)"/>
<path d="M0 0 C0.99 0.33 1.98 0.66 3 1 C2.01 1 1.02 1 0 1 C0 0.67 0 0.34 0 0 Z " fill="#000000" transform="translate(474,201)"/>
<path d="M0 0 C0.33 0.66 0.66 1.32 1 2 C0.34 1.67 -0.32 1.34 -1 1 C-0.67 0.67 -0.34 0.34 0 0 Z " fill="#000000" transform="translate(390,253)"/>
<path d="M0 0 C0.99 0.495 0.99 0.495 2 1 C1.01 1.495 1.01 1.495 0 2 C0 1.34 0 0.68 0 0 Z " fill="#000000" transform="translate(356,232)"/>
<path d="M0 0 C2 1 2 1 2 1 Z " fill="#000000" transform="translate(333,328)"/>
<path d="M0 0 C2 1 2 1 2 1 Z " fill="#000000" transform="translate(335,327)"/>
<path d="M0 0 C2 1 2 1 2 1 Z " fill="#000000" transform="translate(273,327)"/>
<path d="M0 0 C2 1 2 1 2 1 Z " fill="#000000" transform="translate(340,324)"/>
<path d="M0 0 C2 1 2 1 2 1 Z " fill="#000000" transform="translate(265,323)"/>
<path d="M0 0 C2 1 2 1 2 1 Z " fill="#000000" transform="translate(166,322)"/>
<path d="M0 0 C2 1 2 1 2 1 Z " fill="#000000" transform="translate(344,321)"/>
<path d="M0 0 C2 1 2 1 2 1 Z " fill="#000000" transform="translate(84,321)"/>
<path d="M0 0 C2 1 2 1 2 1 Z " fill="#000000" transform="translate(261,320)"/>
<path d="M0 0 C2 1 2 1 2 1 Z " fill="#000000" transform="translate(169,320)"/>
<path d="" fill="#000000" transform="translate(0,0)"/>
<path d="" fill="#000000" transform="translate(0,0)"/>
<path d="" fill="#000000" transform="translate(0,0)"/>
<path d="" fill="#000000" transform="translate(0,0)"/>
<path d="" fill="#000000" transform="translate(0,0)"/>
<path d="" fill="#000000" transform="translate(0,0)"/>
<path d="" fill="#000000" transform="translate(0,0)"/>
<path d="" fill="#000000" transform="translate(0,0)"/>
<path d="" fill="#000000" transform="translate(0,0)"/>
<path d="" fill="#000000" transform="translate(0,0)"/>
<path d="" fill="#000000" transform="translate(0,0)"/>
<path d="" fill="#000000" transform="translate(0,0)"/>
<path d="" fill="#000000" transform="translate(0,0)"/>
<path d="" fill="#000000" transform="translate(0,0)"/>
<path d="" fill="#000000" transform="translate(0,0)"/>
<path d="" fill="#000000" transform="translate(0,0)"/>
<path d="" fill="#000000" transform="translate(0,0)"/>
<path d="" fill="#000000" transform="translate(0,0)"/>
<path d="" fill="#000000" transform="translate(0,0)"/>
<path d="M0 0 C2 1 2 1 2 1 Z " fill="#000000" transform="translate(230,272)"/>
<path d="M0 0 C2 1 2 1 2 1 Z " fill="#000000" transform="translate(202,271)"/>
<path d="" fill="#000000" transform="translate(0,0)"/>
<path d="" fill="#000000" transform="translate(0,0)"/>
<path d="" fill="#000000" transform="translate(0,0)"/>
<path d="M0 0 C2 1 2 1 2 1 Z " fill="#000000" transform="translate(227,270)"/>
<path d="M0 0 C2 1 2 1 2 1 Z " fill="#000000" transform="translate(204,270)"/>
<path d="" fill="#000000" transform="translate(0,0)"/>
<path d="" fill="#000000" transform="translate(0,0)"/>
<path d="M0 0 C2 1 2 1 2 1 Z " fill="#000000" transform="translate(222,268)"/>
<path d="M0 0 C2 1 2 1 2 1 Z " fill="#000000" transform="translate(209,268)"/>
<path d="" fill="#000000" transform="translate(0,0)"/>
<path d="" fill="#000000" transform="translate(0,0)"/>
<path d="M0 0 C2 1 2 1 2 1 Z " fill="#000000" transform="translate(163,261)"/>
<path d="M0 0 C2 1 2 1 2 1 Z " fill="#000000" transform="translate(384,258)"/>
<path d="M0 0 C2 1 2 1 2 1 Z " fill="#000000" transform="translate(376,258)"/>
<path d="M0 0 C2 1 2 1 2 1 Z " fill="#000000" transform="translate(337,258)"/>
<path d="" fill="#000000" transform="translate(0,0)"/>
<path d="" fill="#000000" transform="translate(0,0)"/>
<path d="" fill="#000000" transform="translate(0,0)"/>
<path d="" fill="#000000" transform="translate(0,0)"/>
<path d="" fill="#000000" transform="translate(0,0)"/>
<path d="" fill="#000000" transform="translate(0,0)"/>
<path d="" fill="#000000" transform="translate(0,0)"/>
<path d="" fill="#000000" transform="translate(0,0)"/>
<path d="" fill="#000000" transform="translate(0,0)"/>
<path d="" fill="#000000" transform="translate(0,0)"/>
<path d="" fill="#000000" transform="translate(0,0)"/>
<path d="M0 0 C2 1 2 1 2 1 Z " fill="#000000" transform="translate(178,221)"/>
<path d="M0 0 C2 1 2 1 2 1 Z " fill="#000000" transform="translate(194,214)"/>
<path d="M0 0 C2 1 2 1 2 1 Z " fill="#000000" transform="translate(196,213)"/>
<path d="M0 0 C2 1 2 1 2 1 Z " fill="#000000" transform="translate(198,212)"/>
<path d="M0 0 C2 1 2 1 2 1 Z " fill="#000000" transform="translate(200,211)"/>
<path d="M0 0 C2 1 2 1 2 1 Z " fill="#000000" transform="translate(439,208)"/>
<path d="M0 0 C2 1 2 1 2 1 Z " fill="#000000" transform="translate(206,208)"/>
<path d="M0 0 C2 1 2 1 2 1 Z " fill="#000000" transform="translate(492,207)"/>
<path d="M0 0 C2 1 2 1 2 1 Z " fill="#000000" transform="translate(483,207)"/>
<path d="M0 0 C2 1 2 1 2 1 Z " fill="#000000" transform="translate(208,207)"/>
<path d="M0 0 C2 1 2 1 2 1 Z " fill="#000000" transform="translate(481,206)"/>
<path d="M0 0 C2 1 2 1 2 1 Z " fill="#000000" transform="translate(442,206)"/>
<path d="M0 0 C2 1 2 1 2 1 Z " fill="#000000" transform="translate(210,206)"/>
<path d="M0 0 C2 1 2 1 2 1 Z " fill="#000000" transform="translate(212,205)"/>
<path d="M0 0 C2 1 2 1 2 1 Z " fill="#000000" transform="translate(214,204)"/>
<path d="M0 0 C2 1 2 1 2 1 Z " fill="#000000" transform="translate(447,203)"/>
<path d="M0 0 C2 1 2 1 2 1 Z " fill="#000000" transform="translate(449,202)"/>
<path d="M0 0 C2 1 2 1 2 1 Z " fill="#000000" transform="translate(451,201)"/>
<path d="M0 0 C2 1 2 1 2 1 Z " fill="#000000" transform="translate(220,201)"/>
<path d="M0 0 C2 1 2 1 2 1 Z " fill="#000000" transform="translate(471,199)"/>
<path d="M0 0 C2 1 2 1 2 1 Z " fill="#000000" transform="translate(234,194)"/>
<path d="M0 0 C2 1 2 1 2 1 Z " fill="#000000" transform="translate(236,193)"/>
<path d="M0 0 C2 1 2 1 2 1 Z " fill="#000000" transform="translate(238,192)"/>
<path d="M0 0 C2 1 2 1 2 1 Z " fill="#000000" transform="translate(240,191)"/>
<path d="M0 0 C2 1 2 1 2 1 Z " fill="#000000" transform="translate(242,190)"/>
<path d="M0 0 C2 1 2 1 2 1 Z " fill="#000000" transform="translate(246,188)"/>
<path d="M0 0 C2 1 2 1 2 1 Z " fill="#000000" transform="translate(248,187)"/>
<path d="M0 0 C2 1 2 1 2 1 Z " fill="#000000" transform="translate(250,186)"/>
<path d="M0 0 C2 1 2 1 2 1 Z " fill="#000000" transform="translate(265,179)"/>
<path d="" fill="#000000" transform="translate(0,0)"/>
<path d="" fill="#000000" transform="translate(0,0)"/>
<path d="" fill="#000000" transform="translate(0,0)"/>
<path d="" fill="#000000" transform="translate(0,0)"/>
<path d="" fill="#000000" transform="translate(0,0)"/>
<path d="" fill="#000000" transform="translate(0,0)"/>
<path d="" fill="#000000" transform="translate(0,0)"/>
<path d="" fill="#000000" transform="translate(0,0)"/>
<path d="" fill="#000000" transform="translate(0,0)"/>
<path d="" fill="#000000" transform="translate(0,0)"/>
<path d="" fill="#000000" transform="translate(0,0)"/>
<path d="" fill="#000000" transform="translate(0,0)"/>
<path d="" fill="#000000" transform="translate(0,0)"/>
<path d="" fill="#000000" transform="translate(0,0)"/>
<path d="" fill="#000000" transform="translate(0,0)"/>
<path d="" fill="#000000" transform="translate(0,0)"/>
<path d="" fill="#000000" transform="translate(0,0)"/>
<path d="" fill="#000000" transform="translate(0,0)"/>
<path d="" fill="#000000" transform="translate(0,0)"/>
<path d="" fill="#000000" transform="translate(0,0)"/>
<path d="" fill="#000000" transform="translate(0,0)"/>
<path d="" fill="#000000" transform="translate(0,0)"/>
<path d="" fill="#000000" transform="translate(0,0)"/>
<path d="" fill="#000000" transform="translate(0,0)"/>
<path d="" fill="#000000" transform="translate(0,0)"/>
<path d="" fill="#000000" transform="translate(0,0)"/>
<path d="" fill="#000000" transform="translate(0,0)"/>
<path d="" fill="#000000" transform="translate(0,0)"/>
<path d="" fill="#000000" transform="translate(0,0)"/>
<path d="" fill="#000000" transform="translate(0,0)"/>
<path d="" fill="#000000" transform="translate(0,0)"/>
<path d="" fill="#000000" transform="translate(0,0)"/>
<path d="" fill="#000000" transform="translate(0,0)"/>
<path d="" fill="#000000" transform="translate(0,0)"/>
<path d="" fill="#000000" transform="translate(0,0)"/>
<path d="" fill="#000000" transform="translate(0,0)"/>
<path d="" fill="#000000" transform="translate(0,0)"/>
<path d="" fill="#000000" transform="translate(0,0)"/>
<path d="" fill="#000000" transform="translate(0,0)"/>
<path d="" fill="#000000" transform="translate(0,0)"/>
<path d="" fill="#000000" transform="translate(0,0)"/>
<path d="" fill="#000000" transform="translate(0,0)"/>
<path d="" fill="#000000" transform="translate(0,0)"/>
<path d="" fill="#000000" transform="translate(0,0)"/>
<path d="" fill="#000000" transform="translate(0,0)"/>
<path d="" fill="#000000" transform="translate(0,0)"/>
<path d="" fill="#000000" transform="translate(0,0)"/>
<path d="" fill="#000000" transform="translate(0,0)"/>
<path d="" fill="#000000" transform="translate(0,0)"/>
<path d="" fill="#000000" transform="translate(0,0)"/>
<path d="" fill="#000000" transform="translate(0,0)"/>
<path d="" fill="#000000" transform="translate(0,0)"/>
<path d="" fill="#000000" transform="translate(0,0)"/>
<path d="" fill="#000000" transform="translate(0,0)"/>
<path d="" fill="#000000" transform="translate(0,0)"/>
<path d="" fill="#000000" transform="translate(0,0)"/>
<path d="" fill="#000000" transform="translate(0,0)"/>
<path d="" fill="#000000" transform="translate(0,0)"/>
<path d="" fill="#000000" transform="translate(0,0)"/>
<path d="" fill="#000000" transform="translate(0,0)"/>
<path d="" fill="#000000" transform="translate(0,0)"/>
<path d="" fill="#000000" transform="translate(0,0)"/>
<path d="" fill="#000000" transform="translate(0,0)"/>
<path d="" fill="#000000" transform="translate(0,0)"/>
<path d="" fill="#000000" transform="translate(0,0)"/>
<path d="" fill="#000000" transform="translate(0,0)"/>
<path d="" fill="#000000" transform="translate(0,0)"/>
<path d="" fill="#000000" transform="translate(0,0)"/>
<path d="" fill="#000000" transform="translate(0,0)"/>
<path d="" fill="#000000" transform="translate(0,0)"/>
<path d="" fill="#000000" transform="translate(0,0)"/>
<path d="" fill="#000000" transform="translate(0,0)"/>
<path d="" fill="#000000" transform="translate(0,0)"/>
<path d="" fill="#000000" transform="translate(0,0)"/>
<path d="" fill="#000000" transform="translate(0,0)"/>
<path d="" fill="#000000" transform="translate(0,0)"/>
<path d="" fill="#000000" transform="translate(0,0)"/>
<path d="" fill="#000000" transform="translate(0,0)"/>
<path d="" fill="#000000" transform="translate(0,0)"/>
<path d="" fill="#000000" transform="translate(0,0)"/>
<path d="" fill="#000000" transform="translate(0,0)"/>
<path d="" fill="#000000" transform="translate(0,0)"/>
<path d="" fill="#000000" transform="translate(0,0)"/>
<path d="" fill="#000000" transform="translate(0,0)"/>
<path d="" fill="#000000" transform="translate(0,0)"/>
<path d="" fill="#000000" transform="translate(0,0)"/>
<path d="" fill="#000000" transform="translate(0,0)"/>
<path d="" fill="#000000" transform="translate(0,0)"/>
<path d="" fill="#000000" transform="translate(0,0)"/>
<path d="" fill="#000000" transform="translate(0,0)"/>
<path d="" fill="#000000" transform="translate(0,0)"/>
<path d="" fill="#000000" transform="translate(0,0)"/>
<path d="" fill="#000000" transform="translate(0,0)"/>
<path d="" fill="#000000" transform="translate(0,0)"/>
<path d="" fill="#000000" transform="translate(0,0)"/>
<path d="" fill="#000000" transform="translate(0,0)"/>
<path d="" fill="#000000" transform="translate(0,0)"/>
<path d="" fill="#000000" transform="translate(0,0)"/>
<path d="" fill="#000000" transform="translate(0,0)"/>
<path d="" fill="#000000" transform="translate(0,0)"/>
<path d="" fill="#000000" transform="translate(0,0)"/>
<path d="" fill="#000000" transform="translate(0,0)"/>
<path d="" fill="#000000" transform="translate(0,0)"/>
<path d="" fill="#000000" transform="translate(0,0)"/>
<path d="" fill="#000000" transform="translate(0,0)"/>
<path d="" fill="#000000" transform="translate(0,0)"/>
<path d="" fill="#000000" transform="translate(0,0)"/>
<path d="" fill="#000000" transform="translate(0,0)"/>
<path d="" fill="#000000" transform="translate(0,0)"/>
<path d="" fill="#000000" transform="translate(0,0)"/>
<path d="" fill="#000000" transform="translate(0,0)"/>
<path d="" fill="#000000" transform="translate(0,0)"/>
<path d="" fill="#000000" transform="translate(0,0)"/>
<path d="" fill="#000000" transform="translate(0,0)"/>
<path d="" fill="#000000" transform="translate(0,0)"/>
<path d="" fill="#000000" transform="translate(0,0)"/>
<path d="" fill="#000000" transform="translate(0,0)"/>
<path d="" fill="#000000" transform="translate(0,0)"/>
<path d="" fill="#000000" transform="translate(0,0)"/>
<path d="" fill="#000000" transform="translate(0,0)"/>
<path d="" fill="#000000" transform="translate(0,0)"/>
<path d="" fill="#000000" transform="translate(0,0)"/>
<path d="" fill="#000000" transform="translate(0,0)"/>
<path d="" fill="#000000" transform="translate(0,0)"/>
<path d="" fill="#000000" transform="translate(0,0)"/>
<path d="" fill="#000000" transform="translate(0,0)"/>
<path d="" fill="#000000" transform="translate(0,0)"/>
<path d="" fill="#000000" transform="translate(0,0)"/>
<path d="" fill="#000000" transform="translate(0,0)"/>
<path d="" fill="#000000" transform="translate(0,0)"/>
<path d="" fill="#000000" transform="translate(0,0)"/>
<path d="" fill="#000000" transform="translate(0,0)"/>
<path d="" fill="#000000" transform="translate(0,0)"/>
<path d="" fill="#000000" transform="translate(0,0)"/>
<path d="" fill="#000000" transform="translate(0,0)"/>
<path d="" fill="#000000" transform="translate(0,0)"/>
<path d="" fill="#000000" transform="translate(0,0)"/>
<path d="" fill="#000000" transform="translate(0,0)"/>
<path d="" fill="#000000" transform="translate(0,0)"/>
<path d="" fill="#000000" transform="translate(0,0)"/>
<path d="" fill="#000000" transform="translate(0,0)"/>
<path d="" fill="#000000" transform="translate(0,0)"/>
<path d="" fill="#000000" transform="translate(0,0)"/>
<path d="" fill="#000000" transform="translate(0,0)"/>
<path d="" fill="#000000" transform="translate(0,0)"/>
<path d="" fill="#000000" transform="translate(0,0)"/>
<path d="" fill="#000000" transform="translate(0,0)"/>
<path d="" fill="#000000" transform="translate(0,0)"/>
<path d="" fill="#000000" transform="translate(0,0)"/>
<path d="" fill="#000000" transform="translate(0,0)"/>
<path d="" fill="#000000" transform="translate(0,0)"/>
<path d="" fill="#000000" transform="translate(0,0)"/>
<path d="" fill="#000000" transform="translate(0,0)"/>
<path d="" fill="#000000" transform="translate(0,0)"/>
<path d="" fill="#000000" transform="translate(0,0)"/>
<path d="" fill="#000000" transform="translate(0,0)"/>
<path d="" fill="#000000" transform="translate(0,0)"/>
<path d="" fill="#000000" transform="translate(0,0)"/>
<path d="" fill="#000000" transform="translate(0,0)"/>
<path d="" fill="#000000" transform="translate(0,0)"/>
<path d="" fill="#000000" transform="translate(0,0)"/>
<path d="" fill="#000000" transform="translate(0,0)"/>
<path d="" fill="#000000" transform="translate(0,0)"/>
<path d="" fill="#000000" transform="translate(0,0)"/>
<path d="" fill="#000000" transform="translate(0,0)"/>
<path d="" fill="#000000" transform="translate(0,0)"/>
<path d="" fill="#000000" transform="translate(0,0)"/>
<path d="" fill="#000000" transform="translate(0,0)"/>
<path d="" fill="#000000" transform="translate(0,0)"/>
<path d="" fill="#000000" transform="translate(0,0)"/>
<path d="" fill="#000000" transform="translate(0,0)"/>
<path d="" fill="#000000" transform="translate(0,0)"/>
<path d="" fill="#000000" transform="translate(0,0)"/>
<path d="" fill="#000000" transform="translate(0,0)"/>
<path d="" fill="#000000" transform="translate(0,0)"/>
<path d="" fill="#000000" transform="translate(0,0)"/>
<path d="" fill="#000000" transform="translate(0,0)"/>
<path d="" fill="#000000" transform="translate(0,0)"/>
<path d="" fill="#000000" transform="translate(0,0)"/>
<path d="" fill="#000000" transform="translate(0,0)"/>
<path d="" fill="#000000" transform="translate(0,0)"/>
<path d="" fill="#000000" transform="translate(0,0)"/>
<path d="" fill="#000000" transform="translate(0,0)"/>
<path d="" fill="#000000" transform="translate(0,0)"/>
<path d="" fill="#000000" transform="translate(0,0)"/>
<path d="" fill="#000000" transform="translate(0,0)"/>
<path d="" fill="#000000" transform="translate(0,0)"/>
<path d="" fill="#000000" transform="translate(0,0)"/>
<path d="" fill="#000000" transform="translate(0,0)"/>
<path d="" fill="#000000" transform="translate(0,0)"/>
<path d="" fill="#000000" transform="translate(0,0)"/>
<path d="" fill="#000000" transform="translate(0,0)"/>
<path d="" fill="#000000" transform="translate(0,0)"/>
<path d="" fill="#000000" transform="translate(0,0)"/>
<path d="" fill="#000000" transform="translate(0,0)"/>
<path d="" fill="#000000" transform="translate(0,0)"/>
<path d="" fill="#000000" transform="translate(0,0)"/>
<path d="" fill="#000000" transform="translate(0,0)"/>
<path d="" fill="#000000" transform="translate(0,0)"/>
<path d="" fill="#000000" transform="translate(0,0)"/>
<path d="" fill="#000000" transform="translate(0,0)"/>
<path d="" fill="#000000" transform="translate(0,0)"/>
<path d="" fill="#000000" transform="translate(0,0)"/>
<path d="" fill="#000000" transform="translate(0,0)"/>
<path d="" fill="#000000" transform="translate(0,0)"/>
<path d="" fill="#000000" transform="translate(0,0)"/>
<path d="" fill="#000000" transform="translate(0,0)"/>
<path d="" fill="#000000" transform="translate(0,0)"/>
<path d="" fill="#000000" transform="translate(0,0)"/>
<path d="" fill="#000000" transform="translate(0,0)"/>
<path d="" fill="#000000" transform="translate(0,0)"/>
<path d="" fill="#000000" transform="translate(0,0)"/>
<path d="" fill="#000000" transform="translate(0,0)"/>
<path d="" fill="#000000" transform="translate(0,0)"/>
<path d="" fill="#000000" transform="translate(0,0)"/>
<path d="" fill="#000000" transform="translate(0,0)"/>
<path d="" fill="#000000" transform="translate(0,0)"/>
<path d="" fill="#000000" transform="translate(0,0)"/>
<path d="" fill="#000000" transform="translate(0,0)"/>
<path d="" fill="#000000" transform="translate(0,0)"/>
<path d="" fill="#000000" transform="translate(0,0)"/>
<path d="" fill="#000000" transform="translate(0,0)"/>
<path d="" fill="#000000" transform="translate(0,0)"/>
<path d="" fill="#000000" transform="translate(0,0)"/>
<path d="" fill="#000000" transform="translate(0,0)"/>
<path d="" fill="#000000" transform="translate(0,0)"/>
<path d="" fill="#000000" transform="translate(0,0)"/>
<path d="" fill="#000000" transform="translate(0,0)"/>
<path d="" fill="#000000" transform="translate(0,0)"/>
<path d="" fill="#000000" transform="translate(0,0)"/>
<path d="" fill="#000000" transform="translate(0,0)"/>
<path d="" fill="#000000" transform="translate(0,0)"/>
<path d="" fill="#000000" transform="translate(0,0)"/>
<path d="" fill="#000000" transform="translate(0,0)"/>
<path d="" fill="#000000" transform="translate(0,0)"/>
<path d="" fill="#000000" transform="translate(0,0)"/>
<path d="" fill="#000000" transform="translate(0,0)"/>
<path d="" fill="#000000" transform="translate(0,0)"/>
<path d="" fill="#000000" transform="translate(0,0)"/>
<path d="" fill="#000000" transform="translate(0,0)"/>
<path d="" fill="#000000" transform="translate(0,0)"/>
<path d="" fill="#000000" transform="translate(0,0)"/>
<path d="" fill="#000000" transform="translate(0,0)"/>
<path d="" fill="#000000" transform="translate(0,0)"/>
<path d="" fill="#000000" transform="translate(0,0)"/>
<path d="" fill="#000000" transform="translate(0,0)"/>
<path d="" fill="#000000" transform="translate(0,0)"/>
<path d="" fill="#000000" transform="translate(0,0)"/>
<path d="" fill="#000000" transform="translate(0,0)"/>
<path d="" fill="#000000" transform="translate(0,0)"/>
<path d="" fill="#000000" transform="translate(0,0)"/>
<path d="" fill="#000000" transform="translate(0,0)"/>
<path d="" fill="#000000" transform="translate(0,0)"/>
<path d="" fill="#000000" transform="translate(0,0)"/>
<path d="" fill="#000000" transform="translate(0,0)"/>
<path d="" fill="#000000" transform="translate(0,0)"/>
<path d="" fill="#000000" transform="translate(0,0)"/>
<path d="" fill="#000000" transform="translate(0,0)"/>
<path d="" fill="#000000" transform="translate(0,0)"/>
<path d="" fill="#000000" transform="translate(0,0)"/>
<path d="" fill="#000000" transform="translate(0,0)"/>
<path d="" fill="#000000" transform="translate(0,0)"/>
<path d="" fill="#000000" transform="translate(0,0)"/>
<path d="" fill="#000000" transform="translate(0,0)"/>
<path d="" fill="#000000" transform="translate(0,0)"/>
<path d="" fill="#000000" transform="translate(0,0)"/>
<path d="" fill="#000000" transform="translate(0,0)"/>
<path d="" fill="#000000" transform="translate(0,0)"/>
<path d="" fill="#000000" transform="translate(0,0)"/>
<path d="" fill="#000000" transform="translate(0,0)"/>
<path d="" fill="#000000" transform="translate(0,0)"/>
<path d="" fill="#000000" transform="translate(0,0)"/>
<path d="" fill="#000000" transform="translate(0,0)"/>
<path d="" fill="#000000" transform="translate(0,0)"/>
<path d="" fill="#000000" transform="translate(0,0)"/>
<path d="" fill="#000000" transform="translate(0,0)"/>
<path d="" fill="#000000" transform="translate(0,0)"/>
<path d="" fill="#000000" transform="translate(0,0)"/>
<path d="" fill="#000000" transform="translate(0,0)"/>
<path d="" fill="#000000" transform="translate(0,0)"/>
<path d="" fill="#000000" transform="translate(0,0)"/>
<path d="" fill="#000000" transform="translate(0,0)"/>
<path d="" fill="#000000" transform="translate(0,0)"/>
<path d="" fill="#000000" transform="translate(0,0)"/>
<path d="" fill="#000000" transform="translate(0,0)"/>
<path d="" fill="#000000" transform="translate(0,0)"/>
<path d="" fill="#000000" transform="translate(0,0)"/>
<path d="" fill="#000000" transform="translate(0,0)"/>
<path d="" fill="#000000" transform="translate(0,0)"/>
<path d="" fill="#000000" transform="translate(0,0)"/>
<path d="" fill="#000000" transform="translate(0,0)"/>
<path d="" fill="#000000" transform="translate(0,0)"/>
<path d="" fill="#000000" transform="translate(0,0)"/>
<path d="" fill="#000000" transform="translate(0,0)"/>
<path d="" fill="#000000" transform="translate(0,0)"/>
<path d="" fill="#000000" transform="translate(0,0)"/>
<path d="" fill="#000000" transform="translate(0,0)"/>
<path d="" fill="#000000" transform="translate(0,0)"/>
<path d="" fill="#000000" transform="translate(0,0)"/>
<path d="" fill="#000000" transform="translate(0,0)"/>
<path d="" fill="#000000" transform="translate(0,0)"/>
<path d="" fill="#000000" transform="translate(0,0)"/>
<path d="" fill="#000000" transform="translate(0,0)"/>
<path d="" fill="#000000" transform="translate(0,0)"/>
<path d="" fill="#000000" transform="translate(0,0)"/>
<path d="" fill="#000000" transform="translate(0,0)"/>
<path d="" fill="#000000" transform="translate(0,0)"/>
<path d="" fill="#000000" transform="translate(0,0)"/>
<path d="" fill="#000000" transform="translate(0,0)"/>
<path d="" fill="#000000" transform="translate(0,0)"/>
<path d="" fill="#000000" transform="translate(0,0)"/>
<path d="" fill="#000000" transform="translate(0,0)"/>
<path d="" fill="#000000" transform="translate(0,0)"/>
<path d="" fill="#000000" transform="translate(0,0)"/>
<path d="" fill="#000000" transform="translate(0,0)"/>
<path d="" fill="#000000" transform="translate(0,0)"/>
<path d="" fill="#000000" transform="translate(0,0)"/>
<path d="" fill="#000000" transform="translate(0,0)"/>
<path d="" fill="#000000" transform="translate(0,0)"/>
<path d="" fill="#000000" transform="translate(0,0)"/>
<path d="" fill="#000000" transform="translate(0,0)"/>
<path d="" fill="#000000" transform="translate(0,0)"/>
<path d="" fill="#000000" transform="translate(0,0)"/>
<path d="" fill="#000000" transform="translate(0,0)"/>
<path d="" fill="#000000" transform="translate(0,0)"/>
<path d="" fill="#000000" transform="translate(0,0)"/>
<path d="" fill="#000000" transform="translate(0,0)"/>
<path d="" fill="#000000" transform="translate(0,0)"/>
<path d="" fill="#000000" transform="translate(0,0)"/>
<path d="" fill="#000000" transform="translate(0,0)"/>
<path d="" fill="#000000" transform="translate(0,0)"/>
<path d="" fill="#000000" transform="translate(0,0)"/>
<path d="" fill="#000000" transform="translate(0,0)"/>
<path d="" fill="#000000" transform="translate(0,0)"/>
<path d="" fill="#000000" transform="translate(0,0)"/>
<path d="" fill="#000000" transform="translate(0,0)"/>
<path d="" fill="#000000" transform="translate(0,0)"/>
<path d="" fill="#000000" transform="translate(0,0)"/>
<path d="" fill="#000000" transform="translate(0,0)"/>
<path d="" fill="#000000" transform="translate(0,0)"/>
<path d="" fill="#000000" transform="translate(0,0)"/>
<path d="" fill="#000000" transform="translate(0,0)"/>
<path d="" fill="#000000" transform="translate(0,0)"/>
<path d="" fill="#000000" transform="translate(0,0)"/>
</svg>
