<?xml version="1.0" standalone="no"?>
<!DOCTYPE svg PUBLIC "-//W3C//DTD SVG 20010904//EN"
 "http://www.w3.org/TR/2001/REC-SVG-20010904/DTD/svg10.dtd">
<svg version="1.0" xmlns="http://www.w3.org/2000/svg"
 width="512.000000pt" height="512.000000pt" viewBox="0 0 512.000000 512.000000"
 preserveAspectRatio="xMidYMid meet">

<g transform="translate(0.000000,512.000000) scale(0.100000,-0.100000)"
fill="#000000" stroke="none">
<path d="M1900 5104 c-211 -45 -401 -216 -480 -431 -99 -273 -42 -550 168
-815 63 -79 265 -280 402 -400 223 -194 560 -478 570 -478 9 0 353 288 570
478 137 120 339 321 402 400 210 265 267 542 168 815 -116 317 -438 501 -753
431 -120 -27 -211 -78 -304 -170 l-83 -81 -82 81 c-62 60 -102 91 -158 118
-135 65 -279 83 -420 52z m275 -315 c70 -33 154 -122 198 -210 24 -49 62 -164
109 -336 39 -145 74 -263 78 -263 3 0 38 118 78 263 83 301 117 380 202 466
81 82 134 106 240 106 76 0 93 -3 152 -33 79 -38 130 -92 170 -178 64 -136 59
-282 -13 -422 -49 -94 -119 -179 -261 -317 -102 -100 -182 -170 -476 -419
l-93 -79 -22 20 c-12 11 -116 100 -232 198 -443 377 -591 552 -625 742 -31
171 47 364 178 440 99 58 223 67 317 22z"/>
<path d="M361 4199 c-173 -34 -318 -183 -351 -361 -7 -37 -10 -326 -7 -840 3
-716 4 -788 21 -843 28 -95 82 -198 144 -277 32 -40 210 -287 395 -549 l337
-477 0 -426 0 -426 750 0 750 0 0 800 c0 866 -1 878 -55 1013 -52 130 -77 159
-554 639 -498 501 -509 510 -642 544 -62 16 -144 15 -221 -2 l-28 -6 0 399 c0
231 -4 423 -10 454 -47 244 -285 406 -529 358z m159 -309 c26 -13 47 -34 60
-60 19 -38 20 -58 20 -668 0 -386 4 -650 10 -683 6 -30 24 -83 41 -119 27 -58
66 -101 362 -398 l332 -332 105 105 105 105 -312 312 c-171 172 -318 327 -327
345 -34 69 -5 158 64 193 49 25 90 25 138 1 20 -11 231 -214 468 -453 383
-385 435 -440 462 -498 18 -36 36 -89 42 -119 6 -32 10 -305 10 -687 l0 -634
-450 0 -450 0 0 323 0 324 -381 539 c-209 296 -391 550 -404 564 -43 47 -84
126 -100 191 -12 54 -15 178 -15 807 0 725 0 744 20 782 37 73 124 99 200 60z"/>
<path d="M4581 4199 c-172 -34 -318 -182 -351 -358 -6 -31 -10 -223 -10 -454
l0 -399 -27 6 c-78 17 -160 18 -222 2 -133 -34 -144 -43 -642 -544 -477 -480
-502 -509 -554 -639 -54 -135 -55 -147 -55 -1013 l0 -800 750 0 750 0 0 426 0
426 337 477 c185 262 363 509 395 549 62 79 116 182 144 277 17 55 18 127 21
843 3 514 0 803 -7 840 -45 246 -284 409 -529 361z m159 -309 c26 -13 47 -34
60 -60 20 -38 20 -57 20 -777 0 -606 -3 -750 -15 -806 -14 -68 -55 -148 -100
-197 -13 -14 -195 -268 -404 -564 l-381 -539 0 -324 0 -323 -450 0 -450 0 0
634 c0 382 4 655 10 687 6 30 24 83 42 119 27 58 79 113 462 498 237 239 448
442 468 453 48 24 89 24 138 -1 69 -35 98 -124 64 -193 -9 -18 -156 -173 -327
-345 l-312 -312 105 -105 105 -105 332 332 c296 297 335 340 362 398 17 36 35
89 41 119 6 33 10 297 10 683 0 610 1 630 20 668 37 73 124 99 200 60z"/>
</g>
</svg>
