<svg width="20" height="20" viewBox="0 0 20 20" fill="none" xmlns="http://www.w3.org/2000/svg">
<path d="M13.1124 4.05084C13.1124 5.73578 11.7466 7.10168 10.0616 7.10168C8.37664 7.10168 7.01074 5.73578 7.01074 4.05084C7.01074 2.36589 8.37664 0.999989 10.0616 0.999989C11.7466 0.999989 13.1124 2.36589 13.1124 4.05084Z" stroke="black" stroke-width="1.3" stroke-miterlimit="10" stroke-linecap="round" stroke-linejoin="round"/>
<path d="M6.22461 8.76476C7.18113 7.74139 8.54302 7.1017 10.0543 7.1017C11.5664 7.1017 12.929 7.74204 13.8856 8.76636" stroke="black" stroke-width="1.3" stroke-miterlimit="10" stroke-linecap="round" stroke-linejoin="round"/>
<path d="M18.3468 11.4726C18.3468 13.1575 16.9809 14.5234 15.296 14.5234C13.611 14.5234 12.2451 13.1575 12.2451 11.4726C12.2451 9.78764 13.611 8.42174 15.296 8.42174C16.9809 8.42174 18.3468 9.78764 18.3468 11.4726Z" stroke="black" stroke-width="1.3" stroke-miterlimit="10" stroke-linecap="round" stroke-linejoin="round"/>
<path d="M11.4824 19V18.3371C11.4824 16.2309 13.1898 14.5235 15.296 14.5235C17.4022 14.5235 19.1095 16.2309 19.1095 18.3371V19H11.4824Z" stroke="black" stroke-width="1.3" stroke-miterlimit="10" stroke-linecap="round" stroke-linejoin="round"/>
<path d="M7.88448 11.4925C7.88448 13.1883 6.50969 14.5631 4.8138 14.5631C3.11795 14.5631 1.74316 13.1883 1.74316 11.4925C1.74316 9.79658 3.11795 8.42179 4.8138 8.42179C6.50969 8.42179 7.88448 9.79658 7.88448 11.4925Z" stroke="black" stroke-width="1.3" stroke-miterlimit="10" stroke-linecap="round" stroke-linejoin="round"/>
<path d="M1 19V18.3371C1 16.2309 2.70737 14.5235 4.81356 14.5235C6.91975 14.5235 8.62712 16.2309 8.62712 18.3371V19H1Z" stroke="black" stroke-width="1.3" stroke-miterlimit="10" stroke-linecap="round" stroke-linejoin="round"/>
</svg>
