<svg width="17" height="16" viewBox="0 0 17 16" fill="none" xmlns="http://www.w3.org/2000/svg">
<path d="M10.5977 4.31543L6.09766 11.3154" stroke="#6F1849"/>
<circle cx="6.09766" cy="5.31543" r="0.65" stroke="#6F1849" stroke-width="0.7"/>
<circle cx="11.0977" cy="10.3154" r="0.65" stroke="#6F1849" stroke-width="0.7"/>
<path d="M8.12988 0.636719C8.38721 0.466817 8.72078 0.454006 8.99121 0.603516L9.96777 1.14355C10.239 1.2935 10.5445 1.37207 10.8545 1.37207H12.0498C12.3767 1.37215 12.6697 1.56314 12.8008 1.85352L13.1494 2.62598C13.3365 3.04035 13.6735 3.36897 14.0918 3.54785L14.9951 3.93359C15.3348 4.07882 15.5311 4.42789 15.4824 4.78418L15.3809 5.52734C15.3125 6.02633 15.4565 6.53054 15.7773 6.91895L16.3154 7.57031C16.5323 7.83294 16.5606 8.20012 16.3867 8.49121L15.8682 9.35938C15.7014 9.63854 15.6133 9.95715 15.6133 10.2822V11.2451C15.6133 11.5483 15.4401 11.8281 15.1621 11.9668L13.9912 12.5508C13.6352 12.7284 13.3472 13.0182 13.1719 13.375L12.7744 14.1826C12.6529 14.4299 12.4112 14.6012 12.1309 14.6338L10.6367 14.8076C10.4691 14.8271 10.3044 14.8692 10.1484 14.9336L8.92871 15.4375C8.69512 15.5338 8.42959 15.5183 8.20898 15.3965L7.08594 14.7754C6.81491 14.6256 6.50995 14.5469 6.2002 14.5469H4.91211C4.61565 14.5468 4.34381 14.3903 4.19824 14.1396L3.69238 13.2676C3.52372 12.9772 3.27746 12.7392 2.98145 12.5801L1.87012 11.9834C1.60459 11.8407 1.44141 11.5668 1.44141 11.2725V10.2822C1.44137 9.95722 1.35324 9.6385 1.18652 9.35938L0.613281 8.40039C0.45621 8.1375 0.462548 7.8096 0.629883 7.55273L1.14941 6.75684C1.34011 6.46423 1.44141 6.12257 1.44141 5.77344V4.64746C1.44141 4.35309 1.60459 4.07923 1.87012 3.93652L2.98145 3.33984C3.27745 3.18074 3.52371 2.94272 3.69238 2.65234L4.1582 1.84961C4.31695 1.57638 4.62427 1.41669 4.94629 1.44531L6.03613 1.54199C6.44852 1.57855 6.86165 1.47507 7.20703 1.24707L8.12988 0.636719Z" stroke="#6F1849"/>
</svg>
