<svg width="18" height="18" viewBox="0 0 18 18" fill="none" xmlns="http://www.w3.org/2000/svg">
<path d="M8.41204 1.0332H5.24187C2.63469 1.0332 1 2.87901 1 5.49213V12.5413C1 15.1544 2.62706 17.0002 5.24187 17.0002H12.7234C15.3391 17.0002 16.9662 15.1544 16.9662 12.5413V9.12608" stroke="black" stroke-linecap="round" stroke-linejoin="round"/>
<path fill-rule="evenodd" clip-rule="evenodd" d="M6.15276 7.92749L12.4889 1.59139C13.2782 0.802871 14.5577 0.802871 15.347 1.59139L16.3789 2.62324C17.1682 3.4126 17.1682 4.69288 16.3789 5.4814L10.0122 11.848C9.66717 12.1931 9.19914 12.3873 8.71077 12.3873H5.53467L5.61437 9.18233C5.62624 8.71092 5.8187 8.26155 6.15276 7.92749Z" stroke="black" stroke-linecap="round" stroke-linejoin="round"/>
<path d="M11.5264 2.57031L15.3977 6.44167" stroke="black" stroke-linecap="round" stroke-linejoin="round"/>
</svg>
