<svg width="16" height="18" viewBox="0 0 16 18" fill="none" xmlns="http://www.w3.org/2000/svg">
<path d="M4.55556 2.77778H2.77778C2.30628 2.77778 1.8541 2.96508 1.5207 3.29848C1.1873 3.63187 1 4.08406 1 4.55556V15.2222C1 15.6937 1.1873 16.1459 1.5207 16.4793C1.8541 16.8127 2.30628 17 2.77778 17H13.4444C13.9159 17 14.3681 16.8127 14.7015 16.4793C15.0349 16.1459 15.2222 15.6937 15.2222 15.2222V4.55556C15.2222 4.08406 15.0349 3.63187 14.7015 3.29848C14.3681 2.96508 13.9159 2.77778 13.4444 2.77778H11.6667M4.55556 2.77778C4.55556 2.30628 4.74286 1.8541 5.07625 1.5207C5.40965 1.1873 5.86184 1 6.33333 1H9.88889C10.3604 1 10.8126 1.1873 11.146 1.5207C11.4794 1.8541 11.6667 2.30628 11.6667 2.77778M4.55556 2.77778C4.55556 3.24927 4.74286 3.70146 5.07625 4.03486C5.40965 4.36825 5.86184 4.55556 6.33333 4.55556H9.88889C10.3604 4.55556 10.8126 4.36825 11.146 4.03486C11.4794 3.70146 11.6667 3.24927 11.6667 2.77778M4.55556 8.11111H11.6667M4.55556 11.6667H8.11111" stroke="#6F1849" stroke-linecap="round" stroke-linejoin="round"/>
</svg>
