<svg width="21" height="21" viewBox="0 0 21 21" fill="none" xmlns="http://www.w3.org/2000/svg">
<path fill-rule="evenodd" clip-rule="evenodd" d="M10.9053 20.8265C5.42583 20.8265 0.984131 16.3848 0.984131 10.9054C0.984131 5.42593 5.42583 0.984222 10.9053 0.984222C16.3847 0.984222 20.8265 5.42593 20.8265 10.9054C20.8265 16.3848 16.3847 20.8265 10.9053 20.8265ZM7.92894 8.70487H9.52228C9.57685 7.86455 10.1404 7.32881 11.0144 7.32881C11.8696 7.32881 12.4391 7.85066 12.4391 8.56895C12.4391 9.24061 12.1544 9.6067 11.3131 10.1167C10.3775 10.6653 9.98362 11.2754 10.0451 12.2795L10.0521 12.7606H11.6256V12.3678C11.6256 11.6892 11.8766 11.336 12.7645 10.8211C13.6872 10.2714 14.2031 9.54618 14.2031 8.50843C14.2021 7.01629 12.96 5.9448 11.1017 5.9448C9.08972 5.9448 7.98351 7.11153 7.92894 8.70487ZM10.8587 15.9483C11.4083 15.9483 11.8418 15.5217 11.8418 14.986C11.8418 14.4502 11.4083 14.0286 10.8597 14.0286C10.309 14.0286 9.86853 14.4492 9.86853 14.985C9.86853 15.5207 10.309 15.9483 10.8587 15.9483Z" fill="#27AE60"/>
</svg>
