<svg width="27" height="26" viewBox="0 0 27 26" fill="none" xmlns="http://www.w3.org/2000/svg">
<path d="M19.4954 0.649963H7.52072C3.65679 0.649963 0.524414 3.61655 0.524414 7.27598V18.6168C0.524414 22.2762 3.65679 25.2428 7.52072 25.2428H19.4953C23.3593 25.2428 26.4916 22.2762 26.4916 18.6168V7.27598C26.4917 3.61655 23.3593 0.649963 19.4954 0.649963Z" stroke="#2B7730" stroke-miterlimit="10"/>
<path d="M13.5077 18.8828C16.9694 18.8828 19.7757 16.2251 19.7757 12.9466C19.7757 9.66812 16.9694 7.01038 13.5077 7.01038C10.046 7.01038 7.23975 9.66812 7.23975 12.9466C7.23975 16.2251 10.046 18.8828 13.5077 18.8828Z" stroke="#2B7730" stroke-miterlimit="10"/>
<path d="M21.1189 4.96625C21.6105 4.96625 21.9626 5.33758 21.9626 5.73871C21.9624 6.13968 21.6104 6.51019 21.1189 6.51019C20.6276 6.51001 20.2764 6.13958 20.2761 5.73871C20.2761 5.33768 20.6275 4.96643 21.1189 4.96625Z" fill="#F3F4F4" stroke="#2B7730"/>
</svg>
