<svg width="24" height="24" viewBox="0 0 24 24" fill="none" xmlns="http://www.w3.org/2000/svg">
<path d="M18.6945 7.81312C18.5582 9.70444 17.1552 11.1614 15.6252 11.1614C14.0952 11.1614 12.6899 9.7049 12.5559 7.81312C12.4164 5.84554 13.7823 4.46484 15.6252 4.46484C17.4682 4.46484 18.834 5.88135 18.6945 7.81312Z" stroke="#27AE60" stroke-linecap="round" stroke-linejoin="round"/>
<path d="M15.6253 14.1367C12.5947 14.1367 9.68027 15.6421 8.95016 18.5737C8.85343 18.9615 9.09665 19.3452 9.49519 19.3452H21.7559C22.1545 19.3452 22.3963 18.9615 22.301 18.5737C21.5709 15.5951 18.6565 14.1367 15.6253 14.1367Z" stroke="#27AE60" stroke-miterlimit="10"/>
<path d="M9.30089 8.64756C9.19208 10.158 8.05831 11.3476 6.83619 11.3476C5.61406 11.3476 4.47844 10.1585 4.37148 8.64756C4.26034 7.07619 5.36387 5.95312 6.83619 5.95312C8.3085 5.95312 9.41204 7.10503 9.30089 8.64756Z" stroke="#27AE60" stroke-linecap="round" stroke-linejoin="round"/>
<path d="M9.57968 14.2297C8.74029 13.8451 7.81579 13.6973 6.83595 13.6973C4.41775 13.6973 2.0879 14.8994 1.50428 17.2409C1.42755 17.5506 1.62194 17.857 1.94002 17.857H7.16148" stroke="#27AE60" stroke-miterlimit="10" stroke-linecap="round"/>
</svg>
