<svg width="18" height="18" viewBox="0 0 18 18" fill="none" xmlns="http://www.w3.org/2000/svg">
<path d="M5.6416 0.00683594C8.28359 0.140604 10.3848 2.32477 10.3848 5V5.53809H9.38477V5C9.38477 2.79091 7.59383 1.00008 5.38477 1H5C2.79086 1 1 2.79086 1 5V13C1 15.2091 2.79086 17 5 17H5.38477C7.59383 16.9999 9.38477 15.2091 9.38477 13V12.4619H10.3848V13L10.3779 13.2568C10.2485 15.8138 8.19852 17.8637 5.6416 17.9932L5.38477 18H5L4.74316 17.9932C2.18618 17.8638 0.136224 15.8138 0.00683594 13.2568L0 13V5C1.24836e-07 2.32472 2.10111 0.140529 4.74316 0.00683594L5 0H5.38477L5.6416 0.00683594ZM13.0039 5.46484C13.1992 5.26983 13.5158 5.26966 13.7109 5.46484L16.8926 8.64648C17.0875 8.84168 17.0875 9.15832 16.8926 9.35352L13.7109 12.5352C13.5158 12.7303 13.1992 12.7302 13.0039 12.5352C12.8086 12.3399 12.8086 12.0234 13.0039 11.8281L15.332 9.5H5.53906V8.5H15.332L13.0039 6.17188C12.8086 5.97661 12.8086 5.66011 13.0039 5.46484Z" fill="black"/>
</svg>
