<svg width="21" height="22" viewBox="0 0 21 22" fill="none" xmlns="http://www.w3.org/2000/svg">
<path d="M11.8972 0.976563C12.3978 0.976404 12.8799 1.16546 13.2469 1.50584C13.614 1.84621 13.8388 2.31274 13.8764 2.81192L13.8813 2.96073V6.92906H16.8576C17.3582 6.9289 17.8403 7.11796 18.2074 7.45834C18.5744 7.79871 18.7992 8.26524 18.8368 8.76442L18.8418 8.91323V16.8499H19.8338C20.0867 16.8502 20.3299 16.947 20.5138 17.1206C20.6976 17.2942 20.8083 17.5314 20.8231 17.7838C20.8379 18.0363 20.7558 18.2848 20.5935 18.4787C20.4312 18.6726 20.201 18.7973 19.9499 18.8271L19.8338 18.8341H1.97634C1.72347 18.8338 1.48026 18.737 1.29639 18.5634C1.11252 18.3898 1.00188 18.1525 0.987058 17.9001C0.972239 17.6477 1.05437 17.3991 1.21666 17.2052C1.37896 17.0113 1.60917 16.8867 1.86026 16.8568L1.97634 16.8499H2.96842V2.96073C2.96826 2.46015 3.15732 1.978 3.49769 1.61095C3.83807 1.2439 4.3046 1.01907 4.80377 0.981523L4.95259 0.976563H11.8972ZM16.8576 8.91323H13.8813V16.8499H16.8576V8.91323ZM11.8972 2.96073H4.95259V16.8499H11.8972V2.96073ZM9.913 12.8816V14.8657H6.93675V12.8816H9.913ZM9.913 8.91323V10.8974H6.93675V8.91323H9.913ZM9.913 4.9449V6.92906H6.93675V4.9449H9.913Z" fill="#27AE60"/>
</svg>
