<svg width="15" height="16" viewBox="0 0 15 16" fill="none" xmlns="http://www.w3.org/2000/svg">
<path d="M7.3691 16C7.14415 15.9998 6.923 15.942 6.72666 15.8322L4.1796 14.4173C2.91328 13.7133 1.85811 12.6837 1.12327 11.435C0.38843 10.1863 0.000629959 8.76391 8.19117e-09 7.31504V3.38788C-3.63722e-05 3.06109 0.121114 2.74589 0.340019 2.50325C0.558924 2.26062 0.86003 2.10777 1.1851 2.07429C2.19851 1.96688 3.19588 1.74138 4.15693 1.40238C5.03807 1.0909 5.88334 0.686005 6.67829 0.194604C6.88624 0.0673446 7.1253 0 7.3691 0C7.6129 0 7.85196 0.0673446 8.0599 0.194604C8.85493 0.685868 9.70019 1.09076 10.5813 1.40238C11.5423 1.74138 12.5397 1.96688 13.5531 2.07429C13.8782 2.10777 14.1793 2.26062 14.3982 2.50325C14.6171 2.74589 14.7382 3.06109 14.7382 3.38788V7.31504C14.7376 8.76391 14.3498 10.1863 13.6149 11.435C12.8801 12.6837 11.8249 13.7133 10.5586 14.4173L8.01153 15.833C7.81516 15.9426 7.59399 16.0001 7.3691 16ZM7.3691 1.13331C7.33584 1.13302 7.30315 1.14191 7.27462 1.15901C6.41073 1.69296 5.49225 2.13307 4.53483 2.47184C3.4905 2.84044 2.4066 3.08547 1.30528 3.20195C1.25849 3.20593 1.21491 3.22732 1.18314 3.26188C1.15137 3.29645 1.13373 3.34169 1.13371 3.38864V7.3158C1.13411 8.56252 1.46771 9.78647 2.09997 10.861C2.73223 11.9355 3.64018 12.8215 4.72983 13.4272L7.27689 14.8421C7.30482 14.8578 7.33631 14.866 7.36834 14.866C7.40038 14.866 7.43187 14.8578 7.4598 14.8421L10.0084 13.4272C11.098 12.8215 12.006 11.9355 12.6382 10.861C13.2705 9.78647 13.6041 8.56252 13.6045 7.3158V3.38788C13.6045 3.34093 13.5868 3.2957 13.5551 3.26113C13.5233 3.22656 13.4797 3.20517 13.4329 3.2012C12.3316 3.08472 11.2477 2.83968 10.2034 2.47109C9.24601 2.13279 8.32754 1.69319 7.46357 1.15977C7.43519 1.14225 7.40245 1.13309 7.3691 1.13331Z" fill="#6F1849"/>
<path d="M6.99123 9.68353C6.85237 9.68364 6.71834 9.63251 6.61484 9.53992L4.91428 8.02831C4.80883 7.92672 4.74679 7.78827 4.74114 7.64196C4.7355 7.49564 4.78669 7.35282 4.88399 7.2434C4.98129 7.13399 5.11716 7.06647 5.26313 7.05499C5.4091 7.04351 5.55385 7.08895 5.66706 7.18181L6.95495 8.3261L9.41208 5.70572C9.46267 5.65016 9.5238 5.60521 9.59192 5.57349C9.66004 5.54177 9.73378 5.52391 9.80887 5.52095C9.88395 5.51799 9.95888 5.52998 10.0293 5.55624C10.0997 5.5825 10.1642 5.62249 10.219 5.67389C10.2738 5.7253 10.3178 5.78708 10.3485 5.85566C10.3793 5.92424 10.396 5.99824 10.3979 6.07336C10.3997 6.14848 10.3867 6.22322 10.3594 6.29323C10.3321 6.36324 10.2911 6.42713 10.2389 6.48118L7.40466 9.5044C7.35173 9.56104 7.28772 9.60617 7.21659 9.63699C7.14546 9.66781 7.06875 9.68365 6.99123 9.68353Z" fill="#6F1849"/>
</svg>
