<svg width="15" height="16" viewBox="0 0 15 16" fill="none" xmlns="http://www.w3.org/2000/svg">
<path d="M12.4031 10.9337C12.015 10.9337 11.6322 11.0231 11.2842 11.1947C10.9362 11.3664 10.6323 11.6158 10.3961 11.9237L4.93171 8.82238C5.11532 8.28964 5.11532 7.71077 4.93171 7.17803L10.3961 4.07668C10.7775 4.57155 11.3285 4.90787 11.9429 5.02093C12.5574 5.13399 13.192 5.0158 13.7246 4.6891C14.2572 4.36241 14.6501 3.85029 14.8278 3.25129C15.0055 2.65229 14.9554 2.00874 14.6871 1.44446C14.4189 0.880189 13.9514 0.435065 13.3747 0.194744C12.7979 -0.045578 12.1527 -0.0641165 11.5631 0.142695C10.9735 0.349507 10.4813 0.767057 10.181 1.315C9.88082 1.86294 9.79384 2.50255 9.93685 3.11077L4.37938 6.26499C4.03162 5.89504 3.58072 5.63812 3.08516 5.52755C2.58961 5.41698 2.07226 5.45786 1.60023 5.6449C1.12819 5.83193 0.72324 6.15648 0.437901 6.57646C0.152563 6.99644 0 7.49247 0 8.00021C0 8.50795 0.152563 9.00397 0.437901 9.42395C0.72324 9.84393 1.12819 10.1685 1.60023 10.3555C2.07226 10.5425 2.58961 10.5834 3.08516 10.4729C3.58072 10.3623 4.03162 10.1054 4.37938 9.73542L9.93688 12.8897C9.81707 13.4017 9.85958 13.9383 10.0585 14.4251C10.2574 14.9118 10.6029 15.3247 11.047 15.6062C11.4911 15.8878 12.0118 16.0242 12.5369 15.9965C13.062 15.9688 13.5655 15.7783 13.9775 15.4516C14.3895 15.1248 14.6896 14.6779 14.8362 14.1729C14.9828 13.6679 14.9685 13.1298 14.7955 12.6332C14.6224 12.1367 14.2992 11.7063 13.8705 11.4017C13.4418 11.0972 12.929 10.9336 12.4031 10.9337ZM12.4031 1.06653C12.6932 1.06653 12.9768 1.15255 13.218 1.31372C13.4592 1.47489 13.6472 1.70396 13.7582 1.97197C13.8692 2.23998 13.8983 2.5349 13.8417 2.81942C13.7851 3.10394 13.6454 3.36528 13.4402 3.57041C13.2351 3.77554 12.9738 3.91523 12.6893 3.97183C12.4047 4.02842 12.1098 3.99937 11.8418 3.88836C11.5738 3.77735 11.3447 3.58935 11.1836 3.34815C11.0224 3.10694 10.9364 2.82336 10.9364 2.53327C10.9368 2.1444 11.0915 1.77158 11.3664 1.49661C11.6414 1.22163 12.0142 1.06696 12.4031 1.06653ZM2.53595 9.46694C2.24586 9.46694 1.96228 9.38092 1.72108 9.21975C1.47987 9.05859 1.29188 8.82951 1.18087 8.5615C1.06985 8.29349 1.0408 7.99858 1.0974 7.71406C1.15399 7.42954 1.29369 7.16819 1.49881 6.96306C1.70394 6.75794 1.96529 6.61824 2.24981 6.56165C2.53433 6.50505 2.82924 6.5341 3.09725 6.64512C3.36526 6.75613 3.59434 6.94413 3.7555 7.18533C3.91667 7.42653 4.00269 7.71011 4.00269 8.00021C4.00226 8.38908 3.84759 8.7619 3.57262 9.03687C3.29765 9.31184 2.92483 9.46651 2.53595 9.46694ZM12.4031 14.9339C12.113 14.9339 11.8294 14.8479 11.5882 14.6867C11.347 14.5255 11.159 14.2964 11.048 14.0284C10.937 13.7604 10.908 13.4655 10.9646 13.181C11.0211 12.8965 11.1608 12.6351 11.366 12.43C11.5711 12.2249 11.8324 12.0852 12.117 12.0286C12.4015 11.972 12.6964 12.001 12.9644 12.1121C13.2324 12.2231 13.4615 12.4111 13.6227 12.6523C13.7838 12.8935 13.8698 13.177 13.8698 13.4671C13.8694 13.856 13.7147 14.2288 13.4398 14.5038C13.1648 14.7788 12.792 14.9334 12.4031 14.9339Z" fill="#2B7730"/>
</svg>
