<svg width="16" height="16" viewBox="0 0 16 16" fill="none" xmlns="http://www.w3.org/2000/svg">
<path d="M3.82471 5.18066H11.4769C11.8047 5.18066 12.0706 4.91473 12.0706 4.58691C12.0706 4.2591 11.8047 3.99316 11.4769 3.99316H3.82471C3.49689 3.99316 3.23096 4.2591 3.23096 4.58691C3.23096 4.91473 3.49689 5.18066 3.82471 5.18066ZM8.96002 8.28816C8.96002 7.96035 8.69408 7.69441 8.36627 7.69441H3.82471C3.49689 7.69441 3.23096 7.96035 3.23096 8.28816C3.23096 8.61598 3.49689 8.88191 3.82471 8.88191H8.36627C8.69408 8.88191 8.96002 8.61598 8.96002 8.28816Z" fill="#6F1849"/>
<path d="M15.2072 10.1159C15.2709 9.41813 15.3138 8.605 15.3147 7.65719C15.3128 5.87375 15.1631 4.56781 15.0034 3.60812C14.7241 2.02688 13.2878 0.590625 11.7066 0.31125C10.7469 0.151562 9.44094 0.001875 7.65719 0C5.87375 0.001875 4.5675 0.151562 3.60781 0.31125C2.02688 0.590625 0.590625 2.02688 0.31125 3.60812C0.151562 4.56781 0.0021875 5.87375 0 7.65719C0.0021875 9.44063 0.151562 10.7469 0.31125 11.7066C0.590625 13.2878 2.02688 14.7241 3.60812 15.0034C4.56781 15.1631 5.87375 15.3125 7.6575 15.3147C8.605 15.3138 9.41813 15.2709 10.1156 15.2072C10.7356 15.7031 11.5219 16 12.3775 16C14.3781 16 16.0003 14.3781 16.0003 12.3775C16.0003 11.5219 15.7034 10.7356 15.2075 10.1159H15.2072ZM7.6575 14.1272C6.25062 14.1256 4.99188 14.0294 3.80969 13.8331C3.28438 13.7391 2.75219 13.4444 2.31125 13.0034C1.87031 12.5625 1.57594 12.0306 1.48156 11.505C1.28531 10.3241 1.18938 9.06531 1.1875 7.65719C1.18906 6.24969 1.28531 4.99094 1.48156 3.80938C1.57562 3.28406 1.87031 2.75219 2.31125 2.31125C2.75219 1.87031 3.28406 1.57594 3.80969 1.48156C4.99125 1.28531 6.25 1.18938 7.6575 1.1875C9.06437 1.18906 10.3231 1.28531 11.5053 1.48156C12.0306 1.57562 12.5625 1.87031 13.0037 2.31125C13.4447 2.75219 13.7391 3.28406 13.8334 3.80969C14.0297 4.99188 14.1256 6.25031 14.1275 7.6575C14.1269 8.18563 14.1125 8.69219 14.085 9.18219C13.5763 8.90969 12.995 8.75531 12.3775 8.75531C10.3769 8.75531 8.75469 10.3772 8.75469 12.3778C8.75469 12.9953 8.90938 13.5763 9.18156 14.085C8.69156 14.1125 8.185 14.1269 7.65719 14.1272H7.6575ZM12.3775 14.8125C11.0347 14.8125 9.94219 13.7203 9.94219 12.3775C9.94219 11.0347 11.0347 9.9425 12.3775 9.9425C13.7203 9.9425 14.8128 11.0347 14.8128 12.3775C14.8128 13.7203 13.7203 14.8125 12.3775 14.8125Z" fill="#6F1849"/>
<path d="M12.6965 13.0702C12.6208 13.0577 12.518 13.0459 12.3777 13.0459C12.2374 13.0459 12.1346 13.0577 12.059 13.0702C11.9346 13.0921 11.8215 13.2052 11.7993 13.3299C11.7868 13.4055 11.7749 13.5084 11.7749 13.6487C11.7749 13.789 11.7868 13.8918 11.7993 13.9674C11.8212 14.0918 11.9343 14.2049 12.059 14.2271C12.1346 14.2396 12.2374 14.2515 12.3777 14.2515C12.518 14.2515 12.6208 14.2396 12.6965 14.2271C12.8208 14.2052 12.934 14.0921 12.9562 13.9674C12.9687 13.8918 12.9805 13.789 12.9805 13.6487C12.9805 13.5084 12.9687 13.4055 12.9562 13.3299C12.9343 13.2055 12.8212 13.0924 12.6965 13.0702ZM12.3774 12.6762C12.7052 12.6762 12.9712 12.4102 12.9712 12.0824V11.0918C12.9712 10.764 12.7052 10.498 12.3774 10.498C12.0496 10.498 11.7837 10.764 11.7837 11.0918V12.0824C11.7837 12.4102 12.0496 12.6762 12.3774 12.6762Z" fill="#6F1849"/>
</svg>
