<?xml version="1.0" standalone="no"?>
<!DOCTYPE svg PUBLIC "-//W3C//DTD SVG 20010904//EN"
 "http://www.w3.org/TR/2001/REC-SVG-20010904/DTD/svg10.dtd">
<svg version="1.0" xmlns="http://www.w3.org/2000/svg"
 width="512.000000pt" height="512.000000pt" viewBox="0 0 512.000000 512.000000"
 preserveAspectRatio="xMidYMid meet">

<g transform="translate(0.000000,512.000000) scale(0.100000,-0.100000)"
fill="#000000" stroke="none">
<path d="M2420 5111 c-8 -5 -55 -12 -105 -15 -370 -28 -790 -170 -1106 -372
-130 -84 -155 -101 -241 -170 -175 -140 -395 -376 -506 -540 -185 -277 -296
-522 -373 -829 -52 -203 -81 -420 -82 -605 -1 -128 26 -396 52 -521 29 -136
98 -369 137 -456 8 -18 21 -50 30 -70 29 -68 116 -238 130 -254 8 -8 14 -19
14 -23 0 -4 14 -28 32 -54 l32 -46 -157 -471 c-86 -258 -159 -480 -162 -493
-9 -32 45 -86 77 -77 13 3 235 76 494 161 l470 156 46 -31 c25 -17 49 -31 54
-31 4 0 15 -6 23 -14 17 -14 188 -102 256 -131 22 -9 55 -23 73 -31 117 -50
388 -127 522 -148 124 -19 356 -40 450 -39 177 1 392 30 590 79 476 117 864
338 1206 686 329 335 541 710 655 1163 109 428 108 819 -1 1255 -192 764 -736
1402 -1463 1714 -296 127 -648 201 -1002 212 -71 2 -137 0 -145 -5z m270 -151
c291 -19 515 -70 788 -179 64 -25 245 -112 252 -121 3 -3 39 -26 80 -50 80
-47 162 -105 275 -194 65 -51 280 -267 331 -331 21 -27 45 -56 52 -63 6 -7 12
-17 12 -20 0 -4 10 -19 23 -32 26 -31 67 -87 67 -94 0 -6 73 -123 88 -141 12
-15 98 -195 123 -257 50 -125 82 -220 109 -328 141 -561 81 -1126 -177 -1658
-26 -54 -51 -101 -55 -107 -15 -18 -88 -135 -88 -141 0 -4 -53 -77 -107 -149
-104 -137 -301 -334 -438 -438 -46 -35 -145 -105 -165 -116 -14 -8 -59 -35
-100 -61 -170 -104 -391 -195 -610 -250 -655 -165 -1345 -50 -1905 317 -27 18
-62 33 -78 33 -16 0 -211 -61 -434 -136 -246 -82 -409 -132 -415 -126 -5 5 44
169 126 416 75 223 136 419 136 434 0 15 -15 50 -33 77 -109 167 -198 350
-266 550 -33 96 -61 194 -67 235 -2 14 -13 70 -23 125 -70 364 -31 839 97
1190 55 149 148 357 174 390 15 18 88 135 88 141 0 22 209 274 314 380 106
105 358 314 380 314 6 0 123 73 141 88 15 12 195 98 257 123 264 106 505 162
768 179 63 4 120 8 125 8 6 1 75 -3 155 -8z"/>
<path d="M2512 4761 c-21 -18 -22 -24 -24 -412 l-3 -394 -427 -3 c-408 -2
-428 -1 -428 16 0 27 64 182 125 302 69 137 72 143 126 225 25 39 49 76 53 82
11 19 -25 73 -53 80 -45 11 -73 -9 -128 -92 -65 -97 -188 -344 -237 -478 -57
-154 -13 -137 -364 -137 -299 0 -334 -3 -354 -34 -13 -19 -8 -70 8 -91 14 -19
28 -20 309 -23 l295 -3 0 -24 c0 -13 -4 -35 -9 -48 -13 -33 -67 -298 -86 -417
-27 -178 -45 -355 -51 -505 -3 -82 -10 -156 -16 -162 -8 -10 -109 -13 -441
-13 -427 0 -430 0 -448 -22 -23 -26 -24 -66 -3 -96 l15 -22 433 0 c335 0 436
-3 444 -12 6 -7 13 -79 16 -159 6 -149 25 -339 51 -509 19 -119 73 -384 86
-417 5 -13 9 -35 9 -48 l0 -24 -295 -3 c-281 -3 -295 -4 -309 -23 -16 -21 -21
-72 -8 -91 20 -31 55 -34 354 -34 351 0 307 17 364 -137 49 -134 172 -381 237
-478 55 -83 83 -103 128 -92 28 7 64 61 53 80 -4 6 -28 44 -53 82 -106 162
-261 495 -247 530 5 13 58 15 428 13 l423 -3 3 -394 c2 -388 3 -394 24 -412
27 -24 69 -24 96 0 21 18 22 24 24 412 l3 394 423 3 c370 2 423 0 428 -13 8
-19 -43 -147 -117 -295 -72 -146 -75 -151 -130 -235 -25 -38 -49 -76 -53 -82
-11 -19 25 -73 53 -80 45 -11 73 9 128 92 66 98 189 346 238 478 56 154 12
137 363 137 299 0 334 3 354 34 13 19 8 70 -8 91 -14 19 -28 20 -309 23 l-295
3 0 30 c0 17 4 38 9 47 11 21 64 276 85 412 27 167 46 359 52 509 3 80 10 152
16 159 8 9 109 12 441 12 427 0 430 0 448 22 24 27 24 69 0 96 -18 22 -21 22
-448 22 -332 0 -433 3 -441 13 -6 6 -13 78 -16 158 -6 149 -25 339 -51 509
-19 119 -73 384 -86 417 -11 29 -12 73 -1 73 523 2 581 5 596 25 16 21 21 72
8 91 -20 31 -55 34 -354 34 -351 0 -307 -17 -363 137 -49 131 -172 379 -238
478 -55 83 -83 103 -128 92 -28 -7 -64 -61 -53 -80 4 -6 28 -43 53 -82 106
-162 261 -495 247 -530 -5 -13 -58 -15 -428 -13 l-423 3 -3 394 c-2 388 -3
394 -24 412 -11 11 -33 19 -48 19 -15 0 -37 -8 -48 -19z m-24 -1535 c1 -412
-1 -573 -9 -582 -18 -22 -1051 -20 -1069 1 -9 10 -10 37 -5 92 3 43 8 116 10
163 5 122 21 263 51 439 31 188 90 430 109 451 12 13 67 14 462 10 l448 -5 3
-569z m1060 561 c17 -20 77 -275 106 -448 30 -181 47 -325 51 -429 1 -41 6
-114 10 -163 5 -64 4 -91 -5 -102 -11 -13 -83 -15 -534 -15 -393 0 -525 3
-534 12 -9 9 -12 151 -12 578 0 312 3 570 7 573 3 4 208 7 453 7 358 0 450 -3
458 -13z m-1070 -1309 c9 -9 12 -149 12 -569 0 -307 -3 -564 -6 -573 -5 -14
-55 -16 -454 -16 -362 0 -450 3 -459 13 -15 19 -76 278 -106 450 -26 159 -46
325 -50 427 -1 36 -6 107 -10 158 -5 68 -4 96 5 107 11 13 85 15 534 15 393 0
525 -3 534 -12z m1232 -3 c9 -11 10 -36 5 -92 -4 -43 -8 -116 -10 -163 -4
-115 -20 -255 -51 -439 -31 -188 -90 -430 -109 -451 -12 -13 -67 -14 -462 -10
l-448 5 -3 569 c-1 412 1 573 9 582 9 12 105 14 534 14 451 0 524 -2 535 -15z"/>
</g>
</svg>
