<svg width="20" height="17" viewBox="0 0 20 17" fill="none" xmlns="http://www.w3.org/2000/svg">
<path d="M5.74174 16.4939C7.34164 16.5446 8.93604 16.291 10.4307 15.7482C11.9254 15.2054 13.29 14.3843 14.4439 13.3335C15.5978 12.2827 16.5176 11.0235 17.1489 9.63032C17.7802 8.23713 18.1102 6.73822 18.1195 5.22217C18.8526 4.36287 19.3971 3.37343 19.7208 2.31202C19.7449 2.22816 19.743 2.13947 19.7151 2.05664C19.6873 1.9738 19.6348 1.90035 19.5639 1.84513C19.493 1.78991 19.4068 1.75527 19.3156 1.74538C19.2244 1.7355 19.1322 1.75079 19.0499 1.78942C18.6664 1.96429 18.2345 2.02077 17.8153 1.95092C17.396 1.88106 17.0104 1.68839 16.7129 1.40003C16.3331 1.00611 15.8736 0.688408 15.3618 0.465737C14.8499 0.243066 14.2961 0.119961 13.7331 0.103716C13.1701 0.0874718 12.6094 0.178418 12.0842 0.371167C11.559 0.563915 11.08 0.854544 10.6755 1.22583C10.1218 1.73374 9.71616 2.36867 9.49813 3.06894C9.2801 3.76921 9.25706 4.51098 9.43125 5.22217C5.80666 5.42711 3.31814 3.79784 1.32732 1.56398C1.26751 1.49984 1.18927 1.45358 1.10216 1.43084C1.01505 1.40811 0.922838 1.4099 0.836781 1.43598C0.750723 1.46206 0.674546 1.51131 0.617553 1.57771C0.560561 1.64412 0.525218 1.7248 0.515842 1.80991C0.136579 3.80237 0.410165 5.85702 1.29986 7.69793C2.18954 9.53883 3.65273 11.0778 5.49289 12.1082C4.25906 13.4483 2.52636 14.2853 0.656498 14.4445C0.556321 14.4602 0.463845 14.5052 0.392012 14.5732C0.32018 14.6412 0.272587 14.7287 0.255893 14.8236C0.239199 14.9185 0.25424 15.0159 0.298911 15.1023C0.343583 15.1886 0.415648 15.2596 0.505022 15.3052C2.13178 16.0752 3.92321 16.4818 5.74174 16.4939Z" fill="#2B7730"/>
</svg>
