<?xml version="1.0" encoding="UTF-8"?>
<svg version="1.1" xmlns="http://www.w3.org/2000/svg" width="450" height="450">
<path d="M0 0 C2.37679753 2.10090835 4.72688415 4.22846804 7.0625 6.375 C7.90425781 7.14457031 8.74601562 7.91414063 9.61328125 8.70703125 C16.66611169 15.45920817 23.33313289 23.43380079 28.53125 31.71484375 C30.69384864 34.05949789 32.57438406 34.12625791 35.6875 34.625 C43.11381761 36.29727007 47.90801635 39.75765596 52.19702148 46.03564453 C56.45621455 53.74204305 55.3901932 62.49121085 55.125 71 C54.82190323 81.33956264 54.92240489 90.85221054 57.30639648 100.95849609 C58.75893119 107.52187055 59.22564175 113.92264676 59.265625 120.6171875 C59.27132507 121.38443146 59.27702515 122.15167542 59.28289795 122.94216919 C59.29228725 124.56071625 59.29885756 126.17928191 59.30273438 127.79785156 C59.31233811 130.20934936 59.34337646 132.61995511 59.375 135.03125 C59.47496641 149.58864866 57.5568709 163.70038999 53.4375 177.6875 C53.05899902 178.98252441 53.05899902 178.98252441 52.67285156 180.30371094 C44.29791225 207.83844008 29.77891435 230.68705219 10.0625 251.375 C9.29679687 252.20515625 8.53109375 253.0353125 7.7421875 253.890625 C-22.48346524 285.65317533 -66.59284325 302.06888397 -109.8515625 303.30859375 C-137.5477964 303.80150162 -164.09391889 297.43427592 -188.9375 285.375 C-189.60555664 285.05128418 -190.27361328 284.72756836 -190.96191406 284.39404297 C-230.42319231 264.979252 -261.00650125 228.99152314 -275.86474609 187.8046875 C-279.68331233 176.53636345 -282.29511111 165.15530019 -283.9375 153.375 C-284.0317627 152.70154541 -284.12602539 152.02809082 -284.22314453 151.33422852 C-287.0656178 128.89699544 -285.44148916 105.05427009 -278.609375 83.46875 C-277.42015783 77.99281978 -279.12269715 73.48335371 -280.9375 68.3125 C-286.40792309 52.68559286 -284.73480581 37.27365111 -277.9375 22.375 C-269.71013787 6.73264133 -256.55265778 -2.86444386 -239.9375 -8.625 C-236.49673702 -9.45325935 -233.51507937 -9.68765802 -229.98828125 -9.4765625 C-218.61099172 -8.98534248 -211.69732988 -8.80054179 -202.9375 -16.625 C-140.94873241 -57.33041788 -55.01392726 -47.63434852 0 0 Z " fill="#4FB3F2" transform="translate(337.9375,94.625)"/>
<path d="M0 0 C2.37679753 2.10090835 4.72688415 4.22846804 7.0625 6.375 C7.90425781 7.14457031 8.74601562 7.91414063 9.61328125 8.70703125 C17.46780941 16.2267305 24.54911383 24.99805916 30.0625 34.375 C18.69693095 34.73951383 7.45044055 33.74538278 -3.86868286 32.83795166 C-9.84508119 32.359933 -15.82289609 31.90040173 -21.80078125 31.44140625 C-23.01263596 31.34821106 -24.22449066 31.25501587 -25.47306824 31.15899658 C-36.14344349 30.34529676 -46.81880594 29.65328142 -57.5 29 C-79.87631698 27.62224546 -102.23815585 26.04548528 -124.60023117 24.45574188 C-127.49100437 24.25063825 -130.38185709 24.04669222 -133.2727356 23.84307861 C-137.86094879 23.51975109 -142.44893921 23.19342546 -147.03677368 22.86476898 C-148.75021739 22.74242697 -150.46372792 22.62101675 -152.17730713 22.50058746 C-154.54882702 22.33366031 -156.92006222 22.16313631 -159.29125977 21.99169922 C-159.98141961 21.94389627 -160.67157946 21.89609333 -161.38265324 21.84684181 C-165.28257437 21.56042511 -169.091099 21.07875439 -172.9375 20.375 C-172.68355469 20.88546875 -172.42960937 21.3959375 -172.16796875 21.921875 C-165.10311793 36.8453801 -163.54193641 52.60059483 -168.9375 68.375 C-175.79926402 84.99491051 -185.57041905 96.76872887 -202.5 103.875 C-215.53555797 109.10666206 -233.2917797 110.23653505 -246.51953125 104.62890625 C-247.31746094 104.21511719 -248.11539063 103.80132812 -248.9375 103.375 C-250.21173828 102.73884766 -250.21173828 102.73884766 -251.51171875 102.08984375 C-261.07367 96.83296703 -268.87880058 89.39936911 -274.9375 80.375 C-275.37707031 79.7975 -275.81664062 79.22 -276.26953125 78.625 C-284.50693178 67.07770741 -285.36946269 51.79508565 -283.5 38.19140625 C-280.10265455 22.20264921 -271.05630962 8.51416329 -257.5 -0.5625 C-249.06228758 -5.51375449 -239.95943939 -10.07338339 -229.98828125 -9.4765625 C-218.61099172 -8.98534248 -211.69732988 -8.80054179 -202.9375 -16.625 C-140.94873241 -57.33041788 -55.01392726 -47.63434852 0 0 Z " fill="#DFE8F8" transform="translate(337.9375,94.625)"/>
<path d="M0 0 C2.4375 0.3125 2.4375 0.3125 4.4375 2.3125 C5.46344976 13.29619744 3.8335712 24.4306236 2.4375 35.3125 C3.09830566 35.33231934 3.75911133 35.35213867 4.43994141 35.37255859 C22.81051619 35.94240847 41.10845127 36.99049932 59.4375 38.3125 C59.42589844 37.37148437 59.41429687 36.43046875 59.40234375 35.4609375 C59.39332031 34.21570313 59.38429688 32.97046875 59.375 31.6875 C59.36339844 30.45773438 59.35179687 29.22796875 59.33984375 27.9609375 C59.42886076 24.63526209 59.80063913 21.57202412 60.4375 18.3125 C78.26612713 17.77041336 95.7347063 19.44048807 113.4375 21.3125 C113.4375 18.0125 113.4375 14.7125 113.4375 11.3125 C115.39186182 15.22122364 116.17598128 18.30003669 117 22.5625 C117.24878906 23.82578125 117.49757813 25.0890625 117.75390625 26.390625 C118.93340973 33.15760496 119.59967703 39.69862011 119.640625 46.5546875 C119.64632507 47.32193146 119.65202515 48.08917542 119.65789795 48.87966919 C119.66728725 50.49821625 119.67385756 52.11678191 119.67773438 53.73535156 C119.68733811 56.14684936 119.71837646 58.55745511 119.75 60.96875 C119.84996641 75.52614866 117.9318709 89.63788999 113.8125 103.625 C113.56016602 104.48834961 113.30783203 105.35169922 113.04785156 106.24121094 C104.68118893 133.7487284 90.17546988 156.66833925 70.4375 177.3125 C69.59058594 178.20066406 68.74367188 179.08882812 67.87109375 180.00390625 C62.46037427 185.5501054 56.83641795 190.9070911 50.4375 195.3125 C49.7775 195.3125 49.1175 195.3125 48.4375 195.3125 C48.70294872 190.19362859 48.96952773 185.0748176 49.23706055 179.95605469 C49.32752465 178.22234609 49.41770384 176.48862259 49.50756836 174.75488281 C50.02485869 164.77898204 50.57465727 154.80837823 51.25 144.84179688 C51.54280031 139.33044108 51.52254115 133.83072595 51.4375 128.3125 C51.025 128.73660156 50.6125 129.16070312 50.1875 129.59765625 C47.05694093 132.7771303 43.88476915 135.84110929 40.5 138.75 C36.91247264 141.83597013 33.58728267 145.11644352 30.296875 148.515625 C28.42175544 150.32771533 26.63738665 151.9085962 24.4375 153.3125 C21.25 153.125 21.25 153.125 18.4375 152.3125 C17.20446621 149.84643242 17.39130425 148.40336816 17.5234375 145.65625 C17.56726563 144.71523438 17.61109375 143.77421875 17.65625 142.8046875 C17.73359375 141.32355469 17.73359375 141.32355469 17.8125 139.8125 C17.85632813 138.85601562 17.90015625 137.89953125 17.9453125 136.9140625 C18.24900799 130.68830503 18.76610354 124.50864549 19.4375 118.3125 C18.69062424 118.32437347 17.94374847 118.33624695 17.17424011 118.34848022 C8.05117676 118.42814474 -0.98182545 117.93433228 -10.07421875 117.2890625 C-11.62025568 117.1816228 -13.1663018 117.07431532 -14.71235657 116.96713257 C-17.92200137 116.74338176 -21.13135799 116.51591743 -24.34057617 116.28613281 C-28.45682501 115.99201971 -32.57384637 115.71074555 -36.69119549 115.43251991 C-39.86999311 115.21575576 -43.04815985 114.99066016 -46.22620583 114.76316452 C-47.7454849 114.65574068 -49.26497901 114.55131451 -50.78467369 114.44993973 C-52.89583495 114.30819749 -55.00584351 114.15487565 -57.1159668 113.99853516 C-58.31585739 113.91415192 -59.51574799 113.82976868 -60.7519989 113.74282837 C-63.5625 113.3125 -63.5625 113.3125 -65.5625 111.3125 C-66.34939801 101.98975917 -65.84991713 91.59161968 -64.5625 82.3125 C-62.5625 80.3125 -62.5625 80.3125 -60.23779297 80.14550781 C-58.78590576 80.20496582 -58.78590576 80.20496582 -57.3046875 80.265625 C-56.21720215 80.30679443 -55.1297168 80.34796387 -54.00927734 80.39038086 C-52.83059082 80.44718018 -51.6519043 80.50397949 -50.4375 80.5625 C-48.60566162 80.6409314 -48.60566162 80.6409314 -46.73681641 80.72094727 C-38.14540307 81.11672897 -29.58888896 81.73994001 -21.02416992 82.51293945 C-12.60819529 83.26252663 -4.18470134 83.77133624 4.25 84.25 C21.67788723 85.24385677 39.05309988 86.74445429 56.4375 88.3125 C56.4375 82.7025 56.4375 77.0925 56.4375 71.3125 C53.82279785 71.35093018 53.82279785 71.35093018 51.15527344 71.39013672 C42.05948671 71.38630298 33.02221106 70.71507242 23.953125 70.0703125 C22.08430876 69.94030586 20.21547288 69.8105812 18.34661865 69.68112183 C14.44668969 69.40994591 10.54700137 69.13559212 6.64746094 68.85888672 C1.69843724 68.50793529 -3.25107938 68.1646085 -8.20080185 67.82367134 C-12.05679364 67.55725433 -15.91249979 67.28686992 -19.76813507 67.01534653 C-21.59053741 66.88743586 -23.41301978 66.76065944 -25.23558807 66.63513565 C-34.23428423 66.01315597 -43.22048401 65.3200408 -52.18847656 64.34326172 C-52.90563717 64.27049074 -53.62279778 64.19771976 -54.36169052 64.12274361 C-59.32712767 63.54787233 -59.32712767 63.54787233 -61.5625 61.3125 C-62.09375 59.1171875 -62.09375 59.1171875 -61.5625 56.3125 C-59.65836976 53.74816722 -57.38481046 51.6210422 -55.0625 49.4375 C-54.09727417 48.50224487 -54.09727417 48.50224487 -53.11254883 47.5480957 C-49.31712234 43.89428604 -45.439491 40.35336445 -41.41796875 36.94921875 C-38.39287922 34.28077135 -35.61298634 31.37052725 -32.78125 28.5 C-30.15478878 25.91053119 -27.39273542 23.52413036 -24.59375 21.125 C-21.52960668 18.39084135 -18.68754375 15.44619487 -15.8046875 12.5234375 C-13.06997159 9.8268361 -10.21176073 7.3100184 -7.2890625 4.8203125 C-5.53542346 3.34012372 -5.53542346 3.34012372 -3.99609375 1.63671875 C-2.5625 0.3125 -2.5625 0.3125 0 0 Z " fill="#DFE9F9" transform="translate(277.5625,168.6875)"/>
<path d="M0 0 C0.7528125 0.31066406 1.505625 0.62132813 2.28125 0.94140625 C16.46807466 7.21851319 26.25346216 19.96484216 32 34 C37.33917597 49.15117105 35.99863827 64.81891257 29.23339844 79.25219727 C21.14147634 95.67592803 8.98302043 104.66811489 -8 111 C-18.63735512 114.54578504 -35.23714334 113.63940526 -45.58203125 109.25390625 C-46.37996094 108.84011719 -47.17789063 108.42632812 -48 108 C-49.27423828 107.36384766 -49.27423828 107.36384766 -50.57421875 106.71484375 C-60.13617 101.45796703 -67.94130058 94.02436911 -74 85 C-74.43957031 84.4225 -74.87914062 83.845 -75.33203125 83.25 C-83.56943178 71.70270741 -84.43196269 56.42008565 -82.5625 42.81640625 C-79.16515455 26.82764921 -70.11880962 13.13916329 -56.5625 4.0625 C-38.65892224 -6.44332971 -19.0768 -8.84609677 0 0 Z " fill="#F1763D" transform="translate(137,90)"/>
<path d="M0 0 C2.3419596 2.22275806 4.21860503 4.58577739 6.125 7.1875 C14.77839977 18.28759908 26.15889276 25.86287601 40 29 C43.47604243 29.35334167 46.94649 29.50436035 50.4375 29.625 C51.82098633 29.68300781 51.82098633 29.68300781 53.23242188 29.7421875 C55.48809143 29.83568676 57.74376916 29.9214391 60 30 C59.28071765 60.80926049 59.28071765 60.80926049 57.80126953 75.99365234 C56.97121671 84.71301452 56.47550446 93.44339072 56 102.1875 C55.41806541 112.84073326 54.78807174 123.48448924 54 134.125 C52.84346192 149.74056335 51.91825768 165.3689513 51 181 C47.31048968 181 46.44768045 179.80904734 43.92651367 177.29248047 C43.41451416 176.76283691 42.90251465 176.23319336 42.375 175.6875 C41.57703003 174.87369873 41.57703003 174.87369873 40.76293945 174.04345703 C14.73526967 147.15223597 -1.84223998 112.99486861 -7 76 C-7.0942627 75.32654541 -7.18852539 74.65309082 -7.28564453 73.95922852 C-10.44952594 48.98494101 -7.46440125 23.89788541 0 0 Z " fill="#DFE8F8" transform="translate(61,172)"/>
<path d="M0 0 C1.45188721 0.05945801 1.45188721 0.05945801 2.93310547 0.12011719 C4.02059082 0.16128662 5.10807617 0.20245605 6.22851562 0.24487305 C7.99654541 0.33007202 7.99654541 0.33007202 9.80029297 0.41699219 C11.63213135 0.49542358 11.63213135 0.49542358 13.50097656 0.57543945 C22.09313384 0.97125543 30.65031739 1.59494406 39.21582031 2.36743164 C47.61032815 3.11468291 56.01218586 3.62584498 64.42529297 4.10449219 C77.96151959 4.87805896 91.46380171 5.91957321 104.96923828 7.11401367 C113.15096948 7.8308933 121.32302241 8.41887 129.52830505 8.79676819 C141.91304705 9.40474627 141.91304705 9.40474627 144.67529297 12.16699219 C144.70998559 15.1939234 144.36646528 17.29529803 142.45263672 19.70898438 C140.75044327 21.39517976 138.98623821 22.97312879 137.17529297 24.54199219 C135.80999581 25.76906299 134.44544209 26.99696139 133.08154297 28.22558594 C132.36353516 28.8647998 131.64552734 29.50401367 130.90576172 30.16259766 C127.10295802 33.57995956 123.39278082 37.09490099 119.67529297 40.60449219 C118.98242188 41.25401855 118.28955078 41.90354492 117.57568359 42.57275391 C114.30749416 45.64318164 111.08101046 48.74251326 107.92138672 51.92480469 C105.60455513 54.25772082 103.25401873 56.48469587 100.73779297 58.60449219 C97.15026561 61.69046232 93.82507564 64.97093571 90.53466797 68.37011719 C88.65954841 70.18220752 86.87517962 71.76308838 84.67529297 73.16699219 C81.48779297 72.97949219 81.48779297 72.97949219 78.67529297 72.16699219 C77.44225918 69.70092461 77.62909722 68.25786035 77.76123047 65.51074219 C77.80505859 64.56972656 77.84888672 63.62871094 77.89404297 62.65917969 C77.97138672 61.17804688 77.97138672 61.17804688 78.05029297 59.66699219 C78.09412109 58.71050781 78.13794922 57.75402344 78.18310547 56.76855469 C78.48680096 50.54279722 79.00389651 44.36313767 79.67529297 38.16699219 C78.92841721 38.17886566 78.18154144 38.19073914 77.41203308 38.20297241 C68.28896973 38.28263692 59.25596752 37.78882446 50.16357422 37.14355469 C48.61753729 37.03611499 47.07149117 36.9288075 45.5254364 36.82162476 C42.3157916 36.59787395 39.10643498 36.37040962 35.8972168 36.140625 C31.78096796 35.8465119 27.6639466 35.56523774 23.54659748 35.2870121 C20.36779986 35.07024795 17.18963312 34.84515234 14.01158714 34.61765671 C12.49230807 34.51023287 10.97281396 34.4058067 9.45311928 34.30443192 C7.34195802 34.16268968 5.23194946 34.00936784 3.12182617 33.85302734 C1.92193558 33.7686441 0.72204498 33.68426086 -0.51420593 33.59732056 C-3.32470703 33.16699219 -3.32470703 33.16699219 -5.32470703 31.16699219 C-6.11160504 21.84425136 -5.61212416 11.44611187 -4.32470703 2.16699219 C-2.32470703 0.16699219 -2.32470703 0.16699219 0 0 Z " fill="#FCFDFE" transform="translate(217.32470703125,248.8330078125)"/>
<path d="M0 0 C2.4375 0.3125 2.4375 0.3125 4.4375 2.3125 C5.46344976 13.29619744 3.8335712 24.4306236 2.4375 35.3125 C3.12972656 35.33231934 3.82195312 35.35213867 4.53515625 35.37255859 C17.71512526 35.76543975 30.84063157 36.30672259 43.97314453 37.51123047 C49.97214945 38.0519048 55.9671807 38.47997519 61.98046875 38.81640625 C62.71224838 38.85813461 63.44402802 38.89986298 64.19798279 38.94285583 C67.83292084 39.14918241 71.46800288 39.34528997 75.10424805 39.52709961 C76.41820557 39.60065674 77.73216309 39.67421387 79.0859375 39.75 C80.85203369 39.84087891 80.85203369 39.84087891 82.65380859 39.93359375 C85.4375 40.3125 85.4375 40.3125 87.4375 42.3125 C87.68041992 44.23266602 87.68041992 44.23266602 87.66796875 46.56640625 C87.66603516 47.42169922 87.66410156 48.27699219 87.66210938 49.15820312 C87.64986328 50.05474609 87.63761719 50.95128906 87.625 51.875 C87.6240332 53.17920898 87.6240332 53.17920898 87.62304688 54.50976562 C87.51752534 70.23247466 87.51752534 70.23247466 84.4375 73.3125 C82.02672863 73.53251457 82.02672863 73.53251457 79.04057312 73.48141479 C77.41551881 73.45381388 77.41551881 73.45381388 75.75763512 73.42565536 C70.75879638 73.25528717 65.777169 72.96543264 60.78833008 72.60986328 C59.69222412 72.5350473 58.59611816 72.46023132 57.46679688 72.38314819 C53.87990844 72.1371808 50.29347235 71.88521236 46.70703125 71.6328125 C44.18659635 71.457997 41.66614417 71.28343059 39.14567566 71.10910034 C33.87451399 70.74355959 28.60356252 70.37512468 23.33276367 70.00439453 C17.28586446 69.57912708 11.2385787 69.15974445 5.19105417 68.74347126 C-0.67819954 68.33929217 -6.54711999 67.93044414 -12.41591835 67.51971054 C-14.8886421 67.34711118 -17.36144831 67.17568854 -19.83434105 67.0055275 C-41.96612774 65.47880665 -41.96612774 65.47880665 -52.5871582 64.31591797 C-53.28030971 64.24479357 -53.97346121 64.17366917 -54.6876173 64.10038948 C-59.32304938 63.55195062 -59.32304938 63.55195062 -61.5625 61.3125 C-62.09375 59.1171875 -62.09375 59.1171875 -61.5625 56.3125 C-59.65836976 53.74816722 -57.38481046 51.6210422 -55.0625 49.4375 C-54.09727417 48.50224487 -54.09727417 48.50224487 -53.11254883 47.5480957 C-49.31712234 43.89428604 -45.439491 40.35336445 -41.41796875 36.94921875 C-38.39287922 34.28077135 -35.61298634 31.37052725 -32.78125 28.5 C-30.15478878 25.91053119 -27.39273542 23.52413036 -24.59375 21.125 C-21.52960668 18.39084135 -18.68754375 15.44619487 -15.8046875 12.5234375 C-13.06997159 9.8268361 -10.21176073 7.3100184 -7.2890625 4.8203125 C-5.53542346 3.34012372 -5.53542346 3.34012372 -3.99609375 1.63671875 C-2.5625 0.3125 -2.5625 0.3125 0 0 Z " fill="#FCFDFE" transform="translate(277.5625,168.6875)"/>
<path d="M0 0 C11.37738167 -0.23746854 22.65402521 0.4967757 34 1.25 C36.04947909 1.38338331 38.09895826 1.51676544 40.1484375 1.65014648 C56.10540806 2.69918488 72.05389506 3.86049502 88 5.0625 C89.08732422 5.14431519 90.17464844 5.22613037 91.29492188 5.3104248 C106.2064475 6.43681468 121.10410213 7.6825562 136 9 C135.67 16.26 135.34 23.52 135 31 C122.48939741 30.51882298 110.03842002 29.71595219 97.5625 28.6875 C79.5759953 27.20756921 61.5726362 26.02207319 43.5625 24.875 C42.88275745 24.83170437 42.20301491 24.78840874 41.5026741 24.74380112 C35.66285055 24.37209354 29.822941 24.00175083 23.98292542 23.6330719 C15.65400559 23.10703146 7.32619615 22.56759216 -1 22 C-1.08387585 14.57269478 -0.99893603 7.36715324 0 0 Z " fill="#3594DC" transform="translate(136,339)"/>
<path d="M0 0 C5.27618418 5.00306406 8.65143525 10.37567618 9.36328125 17.77734375 C9.36462085 19.16416516 9.34669302 20.55109953 9.3125 21.9375 C9.29993164 23.06551025 9.29993164 23.06551025 9.28710938 24.21630859 C9.07353344 34.83743994 8.0119771 45.43076041 7 56 C-10.77534922 55.49362954 -28.33252852 53.91931755 -46 52 C-46.12025931 44.58503691 -45.77781168 37.26551637 -45.1875 29.875 C-45.11724609 28.84246094 -45.04699219 27.80992187 -44.97460938 26.74609375 C-44.24871308 17.62883625 -42.38624985 8.64216998 -35.10546875 2.3671875 C-24.93631453 -5.44362854 -10.91027293 -8.66019266 0 0 Z " fill="#3594DC" transform="translate(384,134)"/>
<path d="M0 0 C6.76513692 3.82283928 10.45402266 8.36879354 13.07885742 15.70092773 C14.1294951 19.56169459 14.17594643 23.33145779 14.125 27.3125 C14.11670166 28.14813477 14.10840332 28.98376953 14.09985352 29.84472656 C13.86927974 38.27010552 12.16221845 44.52147952 6.4375 50.875 C0.78895205 55.95989242 -5.19399159 57.55937569 -12.7265625 57.28125 C-18.85983638 56.46595075 -24.35779396 54.4005219 -28.6875 49.875 C-35.36252333 40.9054374 -36.46422793 30.83819765 -35.3125 19.9375 C-33.58387862 12.38518091 -30.73245462 5.94819373 -24.15625 1.46875 C-16.10412546 -3.11790322 -8.51806546 -3.84398456 0 0 Z " fill="#FEFBFA" transform="translate(124.3125,115.0625)"/>
<path d="M0 0 C19.40287755 0.48092602 38.65325379 1.83730171 57.98918152 3.43675232 C66.9878839 4.17449123 75.99502731 4.77679198 85.00537109 5.35327148 C90.38315956 5.70662359 95.68025536 6.12740879 101 7 C101.02770475 8.79157359 101.046704 10.58328184 101.0625 12.375 C101.07410156 13.37273437 101.08570313 14.37046875 101.09765625 15.3984375 C100.97389136 19.96288673 100.50257807 24.46376547 100 29 C78.46705016 27.82469366 56.95170526 26.41473542 35.4375 24.9375 C33.50466156 24.8057135 33.50466156 24.8057135 31.53277588 24.67126465 C27.81206242 24.41712095 24.09155137 24.16020289 20.37109375 23.90234375 C19.25660355 23.82634445 18.14211334 23.75034515 16.99385071 23.67204285 C15.94199081 23.59843033 14.89013092 23.52481781 13.80639648 23.44897461 C12.44465553 23.35476479 12.44465553 23.35476479 11.05540466 23.25865173 C7.02949372 22.91784292 3.01559896 22.44617766 -1 22 C-0.67 14.74 -0.34 7.48 0 0 Z " fill="#3594DC" transform="translate(139,294)"/>
<path d="M0 0 C7.10341937 0 13.99178689 0.10544048 21.04296875 0.65625 C22.38467888 0.7561322 22.38467888 0.7561322 23.75349426 0.85803223 C26.56513192 1.068209 29.37630467 1.28399582 32.1875 1.5 C34.11260208 1.64490539 36.03773213 1.78943976 37.96289062 1.93359375 C42.64226062 2.28478374 47.32122299 2.6409999 52 3 C52.11726361 10.39222422 51.70810429 17.64077327 51 25 C45.52297973 24.73613514 40.04610349 24.4694988 34.56933594 24.20043945 C32.71129896 24.10953273 30.85322658 24.01934616 28.99511719 23.92993164 C18.97862336 23.44743638 8.9880044 22.920821 -1 22 C-0.67 14.74 -0.34 7.48 0 0 Z " fill="#3594DC" transform="translate(142,250)"/>
<path d="M0 0 C17.03317854 0.65512225 34.00385862 1.70736753 51 3 C51.02716824 5.54173977 51.04691969 8.08318415 51.0625 10.625 C51.07087891 11.33785156 51.07925781 12.05070313 51.08789062 12.78515625 C51.10710296 16.97344438 50.8267327 20.8728462 50 25 C39.19337992 25.29788539 28.50869473 24.37550274 17.75 23.5 C15.92581542 23.35503813 14.10159682 23.21050362 12.27734375 23.06640625 C7.85107151 22.71664632 3.4256333 22.35814373 -1 22 C-0.67 14.74 -0.34 7.48 0 0 Z " fill="#3594DC" transform="translate(145,204)"/>
<path d="M0 0 C0.79888641 0.07418655 1.59777283 0.14837311 2.42086792 0.22480774 C26.68431983 2.4610248 50.96770005 4.28458129 75.27380371 5.98736572 C80.11628471 6.32727443 84.95852015 6.67064732 89.80078125 7.01367188 C99.2002923 7.67904639 108.60005503 8.34078572 118 9 C118 10.98 118 12.96 118 15 C98.81232306 14.03420061 79.65793732 12.8834162 60.51037598 11.30508423 C47.30248857 10.2188577 34.09246051 9.35280844 20.85888672 8.64648438 C3.06248906 7.6761294 3.06248906 7.6761294 -0.0625 5.6875 C-1 4 -1 4 -0.55859375 1.89453125 C-0.37425781 1.26933594 -0.18992188 0.64414063 0 0 Z " fill="#3795DC" transform="translate(216,231)"/>
<path d="M0 0 C3.75 0.4375 3.75 0.4375 6.625 3.125 C10.58892066 9.3040528 10.29061882 16.27667183 9.75 23.4375 C8.78138188 27.25185135 7.20766937 31.33820074 3.75 33.4375 C-2.21954315 34.07709391 -2.21954315 34.07709391 -5.0625 32.3125 C-8.17364995 27.40015798 -8.63637507 22.18552991 -8.625 16.5 C-8.62584595 15.43930298 -8.62584595 15.43930298 -8.62670898 14.35717773 C-8.49165808 7.98764583 -7.19609454 0.96870503 0 0 Z " fill="#F17740" transform="translate(113.25,125.5625)"/>
<path d="M0 0 C42.075 2.97 42.075 2.97 85 6 C85 7.65 85 9.3 85 11 C75.41491545 11.1690347 65.92114417 10.64218898 56.3671875 9.9765625 C54.79729849 9.86915873 53.22740294 9.76185049 51.65750122 9.65463257 C48.39482337 9.43064265 45.13240841 9.20318136 41.87011719 8.97363281 C37.68543112 8.6798033 33.50000309 8.39845104 29.31426811 8.12001991 C26.0848653 7.90322994 22.85608122 7.67813428 19.6274147 7.45066452 C18.08301429 7.34321401 16.53840028 7.23878921 14.99358749 7.13743973 C12.84640742 6.9956915 10.70036001 6.84236376 8.55419922 6.68603516 C6.72319168 6.5594603 6.72319168 6.5594603 4.85519409 6.43032837 C2 6 2 6 0 4 C0 2.68 0 1.36 0 0 Z " fill="#3695DC" transform="translate(212,281)"/>
<path d="M0 0 C0.66 0.33 1.32 0.66 2 1 C2.83530641 23.59967895 2.83530641 23.59967895 -4.25 33.375 C-9.64798217 38.52761934 -14.04993165 40.23911989 -21.5625 40.4375 C-31.0865494 40.08638297 -36.2881567 36.36317611 -43 30 C-42.67 29.34 -42.34 28.68 -42 28 C-41.46890625 28.34933594 -40.9378125 28.69867188 -40.390625 29.05859375 C-39.68421875 29.51363281 -38.9778125 29.96867187 -38.25 30.4375 C-37.55390625 30.88996094 -36.8578125 31.34242188 -36.140625 31.80859375 C-30.56106372 34.91400651 -23.64219426 34.9673668 -17.55859375 33.3515625 C-12.00402834 31.15229295 -7.98530499 28.22428374 -5 23 C-1.96035443 15.53728043 -0.36278519 8.03569203 0 0 Z " fill="#EC420C" transform="translate(139,137)"/>
<path d="M0 0 C3.11130595 0.57966988 4.78264707 1.39937751 7.0402832 3.60449219 C7.88554314 4.42104279 7.88554314 4.42104279 8.74787903 5.25408936 C9.34283676 5.84570862 9.93779449 6.43732788 10.55078125 7.046875 C11.16898239 7.65509094 11.78718353 8.26330688 12.42411804 8.88995361 C13.72655051 10.17721361 15.02495279 11.4685623 16.31958008 12.76367188 C18.30720068 14.74471821 20.31755926 16.70054304 22.33007812 18.65625 C23.59261169 19.90998392 24.85372929 21.16514568 26.11328125 22.421875 C27.02089958 23.29715851 27.02089958 23.29715851 27.94685364 24.19012451 C29.60668945 25.87792969 29.60668945 25.87792969 32 29 C31.86791992 31.91113281 31.86791992 31.91113281 31 34 C28.22039325 32.72669411 26.14256704 31.40171491 23.9597168 29.26611328 C23.39621017 28.71859406 22.83270355 28.17107483 22.25212097 27.60696411 C21.35968437 26.72257156 21.35968437 26.72257156 20.44921875 25.8203125 C19.83101761 25.21113983 19.21281647 24.60196716 18.57588196 23.97433472 C17.27468158 22.68761328 15.97625026 21.39808637 14.68041992 20.10595703 C12.68923114 18.12672074 10.68015192 16.16690114 8.66992188 14.20703125 C7.40770971 12.95427704 6.14660274 11.7004081 4.88671875 10.4453125 C4.28163986 9.85976593 3.67656097 9.27421936 3.05314636 8.67092896 C1.39331055 6.99267578 1.39331055 6.99267578 -1 4 C-0.64958191 1.81295776 -0.64958191 1.81295776 0 0 Z " fill="#F4773D" transform="translate(23,63)"/>
<path d="M0 0 C8.87541358 0.31045685 18.22333031 3.70551854 26.81640625 5.87890625 C27.57381104 6.0704126 28.33121582 6.26191895 29.11157227 6.45922852 C31 7 31 7 33 8 C32.67 9.65 32.34 11.3 32 13 C24.58938285 11.83720995 17.25652996 10.25731953 9.9375 8.625 C8.99688721 8.42817627 8.05627441 8.23135254 7.0871582 8.02856445 C6.20116943 7.82577881 5.31518066 7.62299316 4.40234375 7.4140625 C3.60304443 7.2382666 2.80374512 7.0624707 1.98022461 6.88134766 C0 6 0 6 -1.27514648 3.91162109 C-1.51434814 3.28078613 -1.7535498 2.64995117 -2 2 C-1.34 1.34 -0.68 0.68 0 0 Z " fill="#F4773D" transform="translate(12,104)"/>
<path d="M0 0 C0.21484375 2.296875 0.21484375 2.296875 0 5 C-1.43359375 6.703125 -1.43359375 6.703125 -3.4375 8.25 C-6.64952992 10.85587965 -9.60710019 13.5416955 -12.5 16.5 C-15.95792194 20.00578245 -19.52561598 23.2995988 -23.2734375 26.4921875 C-25.02707654 27.97237628 -25.02707654 27.97237628 -26.56640625 29.67578125 C-28 31 -28 31 -30.5625 31.3125 C-33 31 -33 31 -35 29 C-35.125 26.375 -35.125 26.375 -35 24 C-33.9584375 24.25910156 -32.916875 24.51820313 -31.84375 24.78515625 C-27.98442783 25.38174137 -27.98442783 25.38174137 -25.21875 23.18359375 C-24.3215625 22.27738281 -23.424375 21.37117188 -22.5 20.4375 C-21.47304113 19.42929531 -20.44567628 18.42150404 -19.41796875 17.4140625 C-18.87446777 16.86782227 -18.3309668 16.32158203 -17.77099609 15.75878906 C-14.52370045 12.53387622 -11.15972885 9.4329269 -7.8125 6.3125 C-7.1525 5.68851318 -6.4925 5.06452637 -5.8125 4.42163086 C-1.11324192 0 -1.11324192 0 0 0 Z " fill="#3895DC" transform="translate(330,296)"/>
<path d="M0 0 C1.32 0 2.64 0 4 0 C5.29750499 3.18515384 6.58692873 6.37352079 7.875 9.5625 C8.23980469 10.45775391 8.60460937 11.35300781 8.98046875 12.27539062 C10.93955111 17.13747686 12.67767129 21.92643354 14 27 C12.02 27.99 12.02 27.99 10 29 C6.43765132 24.58705488 4.74708965 19.75662526 2.75 14.5 C2.37359375 13.54996094 1.9971875 12.59992188 1.609375 11.62109375 C1.25875 10.70457031 0.908125 9.78804687 0.546875 8.84375 C0.22557617 8.01037109 -0.09572266 7.17699219 -0.42675781 6.31835938 C-1.05291871 3.78598123 -0.85529695 2.43290687 0 0 Z " fill="#F4773D" transform="translate(65,54)"/>
<path d="M0 0 C3.625 0.25 3.625 0.25 5.5625 1.75 C5.913125 2.245 6.26375 2.74 6.625 3.25 C6.295 4.24 5.965 5.23 5.625 6.25 C4.8825 6.146875 4.14 6.04375 3.375 5.9375 C0.42423766 5.98370298 0.42423766 5.98370298 -1.625 8.5 C-4.50860094 13.03137291 -4.592373 17.17518341 -4.9375 22.5 C-5.02128906 23.76328125 -5.10507813 25.0265625 -5.19140625 26.328125 C-5.25199219 27.29234375 -5.31257813 28.2565625 -5.375 29.25 C-9.44713495 25.17786505 -8.66490279 19.70844451 -8.70288086 14.31616211 C-8.61049991 7.91568954 -7.42598736 0.55007314 0 0 Z " fill="#ED4611" transform="translate(113.375,125.75)"/>
<path d="M0 0 C0.33 0 0.66 0 1 0 C1 8.25 1 16.5 1 25 C0.67 25 0.34 25 0 25 C0 16.75 0 8.5 0 0 Z " fill="#DFE8F8" transform="translate(51,213)"/>
<path d="M0 0 C8.25 0 16.5 0 25 0 C25 0.33 25 0.66 25 1 C16.75 1 8.5 1 0 1 C0 0.67 0 0.34 0 0 Z " fill="#DFE8F8" transform="translate(213,51)"/>
<path d="M0 0 C0.33 0 0.66 0 1 0 C1 5.61 1 11.22 1 17 C0.67 17 0.34 17 0 17 C0 11.39 0 5.78 0 0 Z " fill="#54A3E1" transform="translate(393,167)"/>
<path d="M0 0 C0.33 0 0.66 0 1 0 C1 5.28 1 10.56 1 16 C0.67 16 0.34 16 0 16 C0 10.72 0 5.44 0 0 Z " fill="#DFE8F8" transform="translate(398,227)"/>
<path d="M0 0 C0.33 0 0.66 0 1 0 C1 4.95 1 9.9 1 15 C0.67 15 0.34 15 0 15 C0 10.05 0 5.1 0 0 Z " fill="#DFE8F8" transform="translate(398,208)"/>
<path d="M0 0 C0.33 0 0.66 0 1 0 C1 4.95 1 9.9 1 15 C0.67 15 0.34 15 0 15 C0 10.05 0 5.1 0 0 Z " fill="#3493DB" transform="translate(394,149)"/>
<path d="M0 0 C0.33 0 0.66 0 1 0 C1 4.95 1 9.9 1 15 C0.67 15 0.34 15 0 15 C0 10.05 0 5.1 0 0 Z " fill="#F1753C" transform="translate(52,136)"/>
<path d="M0 0 C4.62 0 9.24 0 14 0 C14 0.33 14 0.66 14 1 C9.38 1 4.76 1 0 1 C0 0.67 0 0.34 0 0 Z " fill="#4EB3F2" transform="translate(229,398)"/>
<path d="M0 0 C4.62 0 9.24 0 14 0 C14 0.33 14 0.66 14 1 C9.38 1 4.76 1 0 1 C0 0.67 0 0.34 0 0 Z " fill="#4EB3F2" transform="translate(207,398)"/>
<path d="M0 0 C0.33 0 0.66 0 1 0 C1 2.64 1 5.28 1 8 C0.67 8 0.34 8 0 8 C0 5.36 0 2.72 0 0 Z " fill="#DFE8F8" transform="translate(52,203)"/>
<path d="M0 0 C2.64 0 5.28 0 8 0 C8 0.33 8 0.66 8 1 C5.36 1 2.72 1 0 1 C0 0.67 0 0.34 0 0 Z " fill="#F1753C" transform="translate(115,83)"/>
<path d="M0 0 C2.64 0 5.28 0 8 0 C8 0.33 8 0.66 8 1 C5.36 1 2.72 1 0 1 C0 0.67 0 0.34 0 0 Z " fill="#F1753C" transform="translate(104,83)"/>
<path d="M0 0 C2.64 0 5.28 0 8 0 C8 0.33 8 0.66 8 1 C5.36 1 2.72 1 0 1 C0 0.67 0 0.34 0 0 Z " fill="#E0E8F8" transform="translate(203,52)"/>
<path d="M0 0 C2.31 0 4.62 0 7 0 C7 0.33 7 0.66 7 1 C4.69 1 2.38 1 0 1 C0 0.67 0 0.34 0 0 Z " fill="#4FB3F2" transform="translate(199,397)"/>
<path d="M0 0 C0.33 0 0.66 0 1 0 C1 2.31 1 4.62 1 7 C0.67 7 0.34 7 0 7 C0 4.69 0 2.38 0 0 Z " fill="#DFE8F8" transform="translate(397,244)"/>
<path d="M0 0 C0.33 0 0.66 0 1 0 C1 2.31 1 4.62 1 7 C0.67 7 0.34 7 0 7 C0 4.69 0 2.38 0 0 Z " fill="#DFE8F8" transform="translate(52,240)"/>
<path d="M0 0 C0.33 0 0.66 0 1 0 C1 2.31 1 4.62 1 7 C0.67 7 0.34 7 0 7 C0 4.69 0 2.38 0 0 Z " fill="#E0E8F8" transform="translate(397,199)"/>
<path d="M0 0 C2.31 0 4.62 0 7 0 C7 0.33 7 0.66 7 1 C4.69 1 2.38 1 0 1 C0 0.67 0 0.34 0 0 Z " fill="#DFE8F8" transform="translate(240,52)"/>
<path d="M0 0 C1.98 0 3.96 0 6 0 C6 0.33 6 0.66 6 1 C4.02 1 2.04 1 0 1 C0 0.67 0 0.34 0 0 Z " fill="#4EB4F2" transform="translate(245,397)"/>
<path d="M0 0 C1.98 0 3.96 0 6 0 C6 0.33 6 0.66 6 1 C4.02 1 2.04 1 0 1 C0 0.67 0 0.34 0 0 Z " fill="#449BDE" transform="translate(368,127)"/>
<path d="M0 0 C1.65 0 3.3 0 5 0 C5 0.33 5 0.66 5 1 C3.35 1 1.7 1 0 1 C0 0.67 0 0.34 0 0 Z " fill="#4EB4F2" transform="translate(252,396)"/>
<path d="M0 0 C0.33 0 0.66 0 1 0 C1 1.65 1 3.3 1 5 C0.67 5 0.34 5 0 5 C0 3.35 0 1.7 0 0 Z " fill="#E0E9F8" transform="translate(395,257)"/>
<path d="M0 0 C0.33 0 0.66 0 1 0 C1 1.65 1 3.3 1 5 C0.67 5 0.34 5 0 5 C0 3.35 0 1.7 0 0 Z " fill="#DFE8F9" transform="translate(54,255)"/>
<path d="M0 0 C0.33 0 0.66 0 1 0 C1 1.65 1 3.3 1 5 C0.67 5 0.34 5 0 5 C0 3.35 0 1.7 0 0 Z " fill="#DFE8F9" transform="translate(396,252)"/>
<path d="M0 0 C0.33 0 0.66 0 1 0 C1 1.65 1 3.3 1 5 C0.67 5 0.34 5 0 5 C0 3.35 0 1.7 0 0 Z " fill="#E0E8F9" transform="translate(53,249)"/>
<path d="M0 0 C0.33 0 0.66 0 1 0 C1 1.65 1 3.3 1 5 C0.67 5 0.34 5 0 5 C0 3.35 0 1.7 0 0 Z " fill="#DFE8F8" transform="translate(53,196)"/>
<path d="M0 0 C0.33 0 0.66 0 1 0 C1 1.65 1 3.3 1 5 C0.67 5 0.34 5 0 5 C0 3.35 0 1.7 0 0 Z " fill="#DFE8F8" transform="translate(396,194)"/>
<path d="M0 0 C0.33 0 0.66 0 1 0 C1 1.65 1 3.3 1 5 C0.67 5 0.34 5 0 5 C0 3.35 0 1.7 0 0 Z " fill="#DFE8F8" transform="translate(54,190)"/>
<path d="M0 0 C1.65 0 3.3 0 5 0 C5 0.33 5 0.66 5 1 C3.35 1 1.7 1 0 1 C0 0.67 0 0.34 0 0 Z " fill="#DFE8F8" transform="translate(255,54)"/>
<path d="M0 0 C1.65 0 3.3 0 5 0 C5 0.33 5 0.66 5 1 C3.35 1 1.7 1 0 1 C0 0.67 0 0.34 0 0 Z " fill="#DFE8F8" transform="translate(190,54)"/>
<path d="M0 0 C1.65 0 3.3 0 5 0 C5 0.33 5 0.66 5 1 C3.35 1 1.7 1 0 1 C0 0.67 0 0.34 0 0 Z " fill="#DFE8F8" transform="translate(249,53)"/>
<path d="M0 0 C1.65 0 3.3 0 5 0 C5 0.33 5 0.66 5 1 C3.35 1 1.7 1 0 1 C0 0.67 0 0.34 0 0 Z " fill="#DFE8F9" transform="translate(196,53)"/>
<path d="M0 0 C4 1 4 1 4 1 Z " fill="#4FB4F3" transform="translate(194,396)"/>
<path d="M0 0 C4 1 4 1 4 1 Z " fill="#4FB4F3" transform="translate(258,395)"/>
<path d="M0 0 C4 1 4 1 4 1 Z " fill="#4FB3F3" transform="translate(189,395)"/>
<path d="M0 0 C4 1 4 1 4 1 Z " fill="#4FB4F2" transform="translate(184,394)"/>
<path d="M0 0 C4 1 4 1 4 1 Z " fill="#4EB3F2" transform="translate(180,393)"/>
<path d="M0 0 C0.66 0.33 1.32 0.66 2 1 C1.01 1 0.02 1 -1 1 C-0.67 0.67 -0.34 0.34 0 0 Z " fill="#DFE8F8" transform="translate(345,349)"/>
<path d="M0 0 C0 3 0 3 0 3 Z " fill="#DFE8F8" transform="translate(350,344)"/>
<path d="M0 0 C1 4 1 4 1 4 Z " fill="#E0E9F9" transform="translate(394,262)"/>
<path d="M0 0 C1 4 1 4 1 4 Z " fill="#DFE8F8" transform="translate(395,189)"/>
<path d="M0 0 C1 4 1 4 1 4 Z " fill="#DFE8F8" transform="translate(55,186)"/>
<path d="M0 0 C1 4 1 4 1 4 Z " fill="#DFE9F8" transform="translate(394,184)"/>
<path d="M0 0 C1 4 1 4 1 4 Z " fill="#F1753C" transform="translate(53,153)"/>
<path d="M0 0 C1 4 1 4 1 4 Z " fill="#F1763D" transform="translate(53,131)"/>
<path d="M0 0 C4 1 4 1 4 1 Z " fill="#F1753C" transform="translate(33,116)"/>
<path d="M0 0 C1 4 1 4 1 4 Z " fill="#F2753C" transform="translate(46,112)"/>
<path d="M0 0 C4 1 4 1 4 1 Z " fill="#F1753D" transform="translate(29,115)"/>
<path d="M0 0 C4 1 4 1 4 1 Z " fill="#F1753C" transform="translate(25,114)"/>
<path d="M0 0 C4 1 4 1 4 1 Z " fill="#F1753C" transform="translate(27,106)"/>
<path d="M0 0 C4 1 4 1 4 1 Z " fill="#F2763D" transform="translate(23,105)"/>
<path d="M0 0 C4 1 4 1 4 1 Z " fill="#F1763D" transform="translate(19,104)"/>
<path d="M0 0 C4 1 4 1 4 1 Z " fill="#F2763D" transform="translate(15,103)"/>
<path d="M0 0 C4 1 4 1 4 1 Z " fill="#DFE8F9" transform="translate(186,55)"/>
<path d="M0 0 C4 1 4 1 4 1 Z " fill="#F1763C" transform="translate(65,52)"/>
<path d="M0 0 C3 1 3 1 3 1 Z " fill="#4EB4F2" transform="translate(263,394)"/>
<path d="M0 0 C3 1 3 1 3 1 Z " fill="#4FB3F3" transform="translate(267,393)"/>
<path d="M0 0 C3 1 3 1 3 1 Z " fill="#4FB4F2" transform="translate(271,392)"/>
<path d="M0 0 C3 1 3 1 3 1 Z " fill="#4FB3F2" transform="translate(177,392)"/>
<path d="M0 0 C3 1 3 1 3 1 Z " fill="#4FB4F2" transform="translate(274,391)"/>
<path d="M0 0 C3 1 3 1 3 1 Z " fill="#4EB4F2" transform="translate(173,391)"/>
<path d="M0 0 C3 1 3 1 3 1 Z " fill="#4EB3F2" transform="translate(277,390)"/>
<path d="M0 0 C3 1 3 1 3 1 Z " fill="#4FB3F3" transform="translate(280,389)"/>
<path d="M0 0 C3 1 3 1 3 1 Z " fill="#4FB3F2" transform="translate(283,388)"/>
<path d="" fill="#E0E9F8" transform="translate(0,0)"/>
<path d="" fill="#DFE8F8" transform="translate(0,0)"/>
<path d="" fill="#DFE8F8" transform="translate(0,0)"/>
<path d="" fill="#E0E8F8" transform="translate(0,0)"/>
<path d="" fill="#E0E9F8" transform="translate(0,0)"/>
<path d="" fill="#E0E9F8" transform="translate(0,0)"/>
<path d="" fill="#DFE9F9" transform="translate(0,0)"/>
<path d="" fill="#E0E9F9" transform="translate(0,0)"/>
<path d="" fill="#DFE8F8" transform="translate(0,0)"/>
<path d="" fill="#DFE8F8" transform="translate(0,0)"/>
<path d="" fill="#DFE8F9" transform="translate(0,0)"/>
<path d="" fill="#E0E8F8" transform="translate(0,0)"/>
<path d="" fill="#DFE8F8" transform="translate(0,0)"/>
<path d="" fill="#E8AE98" transform="translate(0,0)"/>
<path d="" fill="#F1753C" transform="translate(0,0)"/>
<path d="" fill="#F2763D" transform="translate(0,0)"/>
<path d="" fill="#3494DC" transform="translate(0,0)"/>
<path d="" fill="#F2763C" transform="translate(0,0)"/>
<path d="" fill="#F2763C" transform="translate(0,0)"/>
<path d="M0 0 C3 1 3 1 3 1 Z " fill="#F1763C" transform="translate(38,117)"/>
<path d="M0 0 C3 1 3 1 3 1 Z " fill="#F2763D" transform="translate(21,113)"/>
<path d="M0 0 C3 1 3 1 3 1 Z " fill="#F2763C" transform="translate(17,112)"/>
<path d="M0 0 C3 1 3 1 3 1 Z " fill="#F2753D" transform="translate(13,111)"/>
<path d="M0 0 C3 1 3 1 3 1 Z " fill="#F2763D" transform="translate(40,109)"/>
<path d="M0 0 C3 1 3 1 3 1 Z " fill="#F1753D" transform="translate(36,108)"/>
<path d="M0 0 C3 1 3 1 3 1 Z " fill="#F2763D" transform="translate(32,107)"/>
<path d="M0 0 C3 1 3 1 3 1 Z " fill="#F1753C" transform="translate(92,86)"/>
<path d="M0 0 C3 1 3 1 3 1 Z " fill="#F1753D" transform="translate(95,85)"/>
<path d="M0 0 C3 1 3 1 3 1 Z " fill="#F1753D" transform="translate(99,84)"/>
<path d="" fill="#F1753C" transform="translate(0,0)"/>
<path d="" fill="#F1753C" transform="translate(0,0)"/>
<path d="M0 0 C3 1 3 1 3 1 Z " fill="#DFE8F8" transform="translate(158,64)"/>
<path d="M0 0 C3 1 3 1 3 1 Z " fill="#E0E8F8" transform="translate(163,62)"/>
<path d="" fill="#F1753C" transform="translate(0,0)"/>
<path d="M0 0 C3 1 3 1 3 1 Z " fill="#F2753C" transform="translate(23,61)"/>
<path d="M0 0 C3 1 3 1 3 1 Z " fill="#DFE9F8" transform="translate(276,59)"/>
<path d="M0 0 C3 1 3 1 3 1 Z " fill="#DFE8F9" transform="translate(175,58)"/>
<path d="M0 0 C3 1 3 1 3 1 Z " fill="#E0E9F9" transform="translate(269,57)"/>
<path d="M0 0 C3 1 3 1 3 1 Z " fill="#DFE9F8" transform="translate(178,57)"/>
<path d="M0 0 C3 1 3 1 3 1 Z " fill="#E0E8F8" transform="translate(265,56)"/>
<path d="M0 0 C3 1 3 1 3 1 Z " fill="#DFE8F8" transform="translate(182,56)"/>
<path d="M0 0 C3 1 3 1 3 1 Z " fill="#E0E9F8" transform="translate(261,55)"/>
<path d="M0 0 C2 1 2 1 2 1 Z " fill="#4EB3F3" transform="translate(171,390)"/>
<path d="M0 0 C2 1 2 1 2 1 Z " fill="#4FB4F2" transform="translate(168,389)"/>
<path d="M0 0 C2 1 2 1 2 1 Z " fill="#4EB3F3" transform="translate(165,388)"/>
<path d="M0 0 C2 1 2 1 2 1 Z " fill="#4EB3F2" transform="translate(286,387)"/>
<path d="M0 0 C2 1 2 1 2 1 Z " fill="#4EB3F2" transform="translate(162,387)"/>
<path d="M0 0 C2 1 2 1 2 1 Z " fill="#4EB4F3" transform="translate(289,386)"/>
<path d="M0 0 C2 1 2 1 2 1 Z " fill="#4FB4F3" transform="translate(160,386)"/>
<path d="M0 0 C2 1 2 1 2 1 Z " fill="#4EB3F3" transform="translate(291,385)"/>
<path d="M0 0 C2 1 2 1 2 1 Z " fill="#4FB4F3" transform="translate(157,385)"/>
<path d="M0 0 C2 1 2 1 2 1 Z " fill="#4EB4F3" transform="translate(293,384)"/>
<path d="M0 0 C2 1 2 1 2 1 Z " fill="#4FB4F3" transform="translate(155,384)"/>
<path d="M0 0 C2 1 2 1 2 1 Z " fill="#4EB4F2" transform="translate(153,383)"/>
<path d="M0 0 C2 1 2 1 2 1 Z " fill="#4FB4F3" transform="translate(298,382)"/>
<path d="M0 0 C2 1 2 1 2 1 Z " fill="#4FB4F3" transform="translate(151,382)"/>
<path d="M0 0 C2 1 2 1 2 1 Z " fill="#4FB4F3" transform="translate(300,381)"/>
<path d="M0 0 C2 1 2 1 2 1 Z " fill="#4FB4F2" transform="translate(302,380)"/>
<path d="M0 0 C2 1 2 1 2 1 Z " fill="#4EB3F2" transform="translate(304,379)"/>
<path d="M0 0 C2 1 2 1 2 1 Z " fill="#4EB3F3" transform="translate(145,379)"/>
<path d="M0 0 C2 1 2 1 2 1 Z " fill="#4FB4F3" transform="translate(143,378)"/>
<path d="M0 0 C2 1 2 1 2 1 Z " fill="#4FB4F2" transform="translate(141,377)"/>
<path d="M0 0 C2 1 2 1 2 1 Z " fill="#4FB4F3" transform="translate(309,376)"/>
<path d="M0 0 C2 1 2 1 2 1 Z " fill="#4FB4F3" transform="translate(139,376)"/>
<path d="M0 0 C2 1 2 1 2 1 Z " fill="#4FB4F2" transform="translate(311,375)"/>
<path d="M0 0 C2 1 2 1 2 1 Z " fill="#4EB4F2" transform="translate(134,373)"/>
<path d="M0 0 C2 1 2 1 2 1 Z " fill="#4EB4F2" transform="translate(316,372)"/>
<path d="M0 0 C2 1 2 1 2 1 Z " fill="#4FB4F3" transform="translate(131,371)"/>
<path d="M0 0 C2 1 2 1 2 1 Z " fill="#4EB3F2" transform="translate(319,370)"/>
<path d="M0 0 C2 1 2 1 2 1 Z " fill="#4FB4F3" transform="translate(128,369)"/>
<path d="M0 0 C2 1 2 1 2 1 Z " fill="#4FB3F3" transform="translate(322,368)"/>
<path d="M0 0 C2 1 2 1 2 1 Z " fill="#4FB4F3" transform="translate(125,367)"/>
<path d="M0 0 C2 1 2 1 2 1 Z " fill="#DBE6F8" transform="translate(326,365)"/>
<path d="M0 0 C2 1 2 1 2 1 Z " fill="#E0E9F9" transform="translate(330,362)"/>
<path d="M0 0 C2 1 2 1 2 1 Z " fill="#4FB4F2" transform="translate(117,361)"/>
<path d="M0 0 C2 1 2 1 2 1 Z " fill="#DFE8F8" transform="translate(335,358)"/>
<path d="M0 0 C2 1 2 1 2 1 Z " fill="#4EB3F2" transform="translate(111,356)"/>
<path d="" fill="#DFE8F8" transform="translate(0,0)"/>
<path d="" fill="#DFE8F8" transform="translate(0,0)"/>
<path d="" fill="#DFE8F8" transform="translate(0,0)"/>
<path d="" fill="#E0E8F9" transform="translate(0,0)"/>
<path d="" fill="#E0E9F9" transform="translate(0,0)"/>
<path d="" fill="#DFE9F8" transform="translate(0,0)"/>
<path d="" fill="#DFE8F8" transform="translate(0,0)"/>
<path d="" fill="#DFE9F9" transform="translate(0,0)"/>
<path d="" fill="#E0E9F9" transform="translate(0,0)"/>
<path d="" fill="#DFE8F9" transform="translate(0,0)"/>
<path d="" fill="#DFE8F9" transform="translate(0,0)"/>
<path d="" fill="#E0E9F8" transform="translate(0,0)"/>
<path d="" fill="#E0E9F9" transform="translate(0,0)"/>
<path d="" fill="#DFE8F8" transform="translate(0,0)"/>
<path d="" fill="#E0E9F8" transform="translate(0,0)"/>
<path d="" fill="#E0E9F9" transform="translate(0,0)"/>
<path d="" fill="#DFE8F8" transform="translate(0,0)"/>
<path d="" fill="#E0E9F9" transform="translate(0,0)"/>
<path d="" fill="#DFE8F9" transform="translate(0,0)"/>
<path d="" fill="#E0E9F9" transform="translate(0,0)"/>
<path d="" fill="#DFE8F8" transform="translate(0,0)"/>
<path d="" fill="#E0E9F9" transform="translate(0,0)"/>
<path d="" fill="#DFE8F8" transform="translate(0,0)"/>
<path d="" fill="#DFE8F8" transform="translate(0,0)"/>
<path d="" fill="#DFE9F9" transform="translate(0,0)"/>
<path d="" fill="#E0E9F9" transform="translate(0,0)"/>
<path d="" fill="#E0E8F8" transform="translate(0,0)"/>
<path d="" fill="#E0E9F9" transform="translate(0,0)"/>
<path d="" fill="#E0E9F8" transform="translate(0,0)"/>
<path d="" fill="#DFE8F8" transform="translate(0,0)"/>
<path d="" fill="#E0E9F9" transform="translate(0,0)"/>
<path d="" fill="#DFE9F8" transform="translate(0,0)"/>
<path d="" fill="#E0E8F9" transform="translate(0,0)"/>
<path d="" fill="#E0E9F8" transform="translate(0,0)"/>
<path d="" fill="#F1763D" transform="translate(0,0)"/>
<path d="" fill="#F2763C" transform="translate(0,0)"/>
<path d="" fill="#F2763C" transform="translate(0,0)"/>
<path d="" fill="#3494DB" transform="translate(0,0)"/>
<path d="" fill="#3494DC" transform="translate(0,0)"/>
<path d="" fill="#3593DC" transform="translate(0,0)"/>
<path d="M0 0 C2 1 2 1 2 1 Z " fill="#3594DB" transform="translate(381,131)"/>
<path d="M0 0 C2 1 2 1 2 1 Z " fill="#3594DC" transform="translate(375,128)"/>
<path d="" fill="#DBE6F8" transform="translate(0,0)"/>
<path d="" fill="#F2763C" transform="translate(0,0)"/>
<path d="" fill="#DFE8F9" transform="translate(0,0)"/>
<path d="" fill="#F1753C" transform="translate(0,0)"/>
<path d="" fill="#E0E9F9" transform="translate(0,0)"/>
<path d="" fill="#F2753C" transform="translate(0,0)"/>
<path d="" fill="#F1763C" transform="translate(0,0)"/>
<path d="" fill="#F1753D" transform="translate(0,0)"/>
<path d="" fill="#E0E8F9" transform="translate(0,0)"/>
<path d="" fill="#F1753D" transform="translate(0,0)"/>
<path d="" fill="#F1753C" transform="translate(0,0)"/>
<path d="M0 0 C2 1 2 1 2 1 Z " fill="#F2763D" transform="translate(12,102)"/>
<path d="M0 0 C2 1 2 1 2 1 Z " fill="#F1763D" transform="translate(52,98)"/>
<path d="M0 0 C2 1 2 1 2 1 Z " fill="#F1753C" transform="translate(76,95)"/>
<path d="M0 0 C2 1 2 1 2 1 Z " fill="#DFE8F9" transform="translate(338,94)"/>
<path d="M0 0 C2 1 2 1 2 1 Z " fill="#F2763D" transform="translate(82,91)"/>
<path d="M0 0 C2 1 2 1 2 1 Z " fill="#DFE8F8" transform="translate(332,89)"/>
<path d="M0 0 C2 1 2 1 2 1 Z " fill="#F1763D" transform="translate(90,87)"/>
<path d="M0 0 C2 1 2 1 2 1 Z " fill="#E0E9F9" transform="translate(327,85)"/>
<path d="M0 0 C2 1 2 1 2 1 Z " fill="#DFE8F8" transform="translate(324,83)"/>
<path d="M0 0 C2 1 2 1 2 1 Z " fill="#E0E9F9" transform="translate(127,81)"/>
<path d="M0 0 C2 1 2 1 2 1 Z " fill="#E0E9F9" transform="translate(320,80)"/>
<path d="" fill="#F1753C" transform="translate(0,0)"/>
<path d="M0 0 C2 1 2 1 2 1 Z " fill="#E0E9F9" transform="translate(130,79)"/>
<path d="" fill="#F2763C" transform="translate(0,0)"/>
<path d="M0 0 C2 1 2 1 2 1 Z " fill="#DFE8F8" transform="translate(315,77)"/>
<path d="" fill="#F1763D" transform="translate(0,0)"/>
<path d="M0 0 C2 1 2 1 2 1 Z " fill="#DFE8F8" transform="translate(135,76)"/>
<path d="M0 0 C2 1 2 1 2 1 Z " fill="#E0E9F9" transform="translate(312,75)"/>
<path d="" fill="#F1763D" transform="translate(0,0)"/>
<path d="" fill="#F1753C" transform="translate(0,0)"/>
<path d="M0 0 C2 1 2 1 2 1 Z " fill="#E0E8F8" transform="translate(310,74)"/>
<path d="M0 0 C2 1 2 1 2 1 Z " fill="#E0E9F9" transform="translate(140,73)"/>
<path d="" fill="#F2753D" transform="translate(0,0)"/>
<path d="M0 0 C2 1 2 1 2 1 Z " fill="#DFE8F8" transform="translate(142,72)"/>
<path d="" fill="#F1763C" transform="translate(0,0)"/>
<path d="M0 0 C2 1 2 1 2 1 Z " fill="#E0E9F9" transform="translate(305,71)"/>
<path d="M0 0 C2 1 2 1 2 1 Z " fill="#E0E8F9" transform="translate(303,70)"/>
<path d="" fill="#F2753D" transform="translate(0,0)"/>
<path d="M0 0 C2 1 2 1 2 1 Z " fill="#DFE8F8" transform="translate(301,69)"/>
<path d="" fill="#F1753C" transform="translate(0,0)"/>
<path d="M0 0 C2 1 2 1 2 1 Z " fill="#DFE8F9" transform="translate(299,68)"/>
<path d="M0 0 C2 1 2 1 2 1 Z " fill="#DFE9F9" transform="translate(297,67)"/>
<path d="M0 0 C2 1 2 1 2 1 Z " fill="#DFE9F9" transform="translate(152,67)"/>
<path d="" fill="#F1763C" transform="translate(0,0)"/>
<path d="M0 0 C2 1 2 1 2 1 Z " fill="#E0E9F9" transform="translate(154,66)"/>
<path d="M0 0 C2 1 2 1 2 1 Z " fill="#E0E8F9" transform="translate(292,65)"/>
<path d="M0 0 C2 1 2 1 2 1 Z " fill="#E0E9F9" transform="translate(156,65)"/>
<path d="" fill="#F2763D" transform="translate(0,0)"/>
<path d="M0 0 C2 1 2 1 2 1 Z " fill="#E0E9F9" transform="translate(290,64)"/>
<path d="" fill="#F2763D" transform="translate(0,0)"/>
<path d="M0 0 C2 1 2 1 2 1 Z " fill="#DFE8F8" transform="translate(287,63)"/>
<path d="M0 0 C2 1 2 1 2 1 Z " fill="#E0E9F9" transform="translate(161,63)"/>
<path d="M0 0 C2 1 2 1 2 1 Z " fill="#E0E8F8" transform="translate(285,62)"/>
<path d="" fill="#F2753D" transform="translate(0,0)"/>
<path d="M0 0 C2 1 2 1 2 1 Z " fill="#DFE9F8" transform="translate(282,61)"/>
<path d="M0 0 C2 1 2 1 2 1 Z " fill="#E0E9F9" transform="translate(166,61)"/>
<path d="M0 0 C2 1 2 1 2 1 Z " fill="#E0E9F9" transform="translate(279,60)"/>
<path d="M0 0 C2 1 2 1 2 1 Z " fill="#E0E8F8" transform="translate(169,60)"/>
<path d="" fill="#F2763D" transform="translate(0,0)"/>
<path d="M0 0 C2 1 2 1 2 1 Z " fill="#E0E9F9" transform="translate(172,59)"/>
<path d="" fill="#F1753C" transform="translate(0,0)"/>
<path d="M0 0 C2 1 2 1 2 1 Z " fill="#E0E9F9" transform="translate(273,58)"/>
<path d="" fill="#F2753D" transform="translate(0,0)"/>
<path d="" fill="#F2763D" transform="translate(0,0)"/>
<path d="" fill="#F1753C" transform="translate(0,0)"/>
<path d="" fill="#4FB4F3" transform="translate(0,0)"/>
<path d="" fill="#4FB4F3" transform="translate(0,0)"/>
<path d="" fill="#4FB4F3" transform="translate(0,0)"/>
<path d="" fill="#4FB4F2" transform="translate(0,0)"/>
<path d="" fill="#4FB3F3" transform="translate(0,0)"/>
<path d="" fill="#4FB4F3" transform="translate(0,0)"/>
<path d="" fill="#4FB4F3" transform="translate(0,0)"/>
<path d="" fill="#4FB4F3" transform="translate(0,0)"/>
<path d="" fill="#4EB4F3" transform="translate(0,0)"/>
<path d="" fill="#4FB3F3" transform="translate(0,0)"/>
<path d="" fill="#4FB4F3" transform="translate(0,0)"/>
<path d="" fill="#4FB4F3" transform="translate(0,0)"/>
<path d="" fill="#4EB3F2" transform="translate(0,0)"/>
<path d="" fill="#4FB4F3" transform="translate(0,0)"/>
<path d="" fill="#4FB4F3" transform="translate(0,0)"/>
<path d="" fill="#52B5F3" transform="translate(0,0)"/>
<path d="" fill="#4FB4F3" transform="translate(0,0)"/>
<path d="" fill="#4FB4F3" transform="translate(0,0)"/>
<path d="" fill="#D4E4F8" transform="translate(0,0)"/>
<path d="" fill="#4FB4F3" transform="translate(0,0)"/>
<path d="" fill="#E0E9F9" transform="translate(0,0)"/>
<path d="" fill="#4FB3F3" transform="translate(0,0)"/>
<path d="" fill="#4EB3F2" transform="translate(0,0)"/>
<path d="" fill="#E0E9F9" transform="translate(0,0)"/>
<path d="" fill="#E0E9F9" transform="translate(0,0)"/>
<path d="" fill="#4FB4F3" transform="translate(0,0)"/>
<path d="" fill="#E0E9F9" transform="translate(0,0)"/>
<path d="" fill="#4EB4F3" transform="translate(0,0)"/>
<path d="" fill="#4FB4F2" transform="translate(0,0)"/>
<path d="" fill="#E0E9F9" transform="translate(0,0)"/>
<path d="" fill="#4FB4F3" transform="translate(0,0)"/>
<path d="" fill="#E0E9F9" transform="translate(0,0)"/>
<path d="" fill="#E0E9F8" transform="translate(0,0)"/>
<path d="" fill="#91CCF5" transform="translate(0,0)"/>
<path d="" fill="#E0E9F9" transform="translate(0,0)"/>
<path d="" fill="#BBDBF7" transform="translate(0,0)"/>
<path d="" fill="#E0E9F8" transform="translate(0,0)"/>
<path d="" fill="#DBE7F8" transform="translate(0,0)"/>
<path d="" fill="#E0E9F8" transform="translate(0,0)"/>
<path d="" fill="#E0E9F9" transform="translate(0,0)"/>
<path d="" fill="#E0E8F8" transform="translate(0,0)"/>
<path d="" fill="#E0E9F9" transform="translate(0,0)"/>
<path d="" fill="#E0E8F8" transform="translate(0,0)"/>
<path d="" fill="#DFE8F8" transform="translate(0,0)"/>
<path d="" fill="#E0E9F9" transform="translate(0,0)"/>
<path d="" fill="#E0E8F9" transform="translate(0,0)"/>
<path d="" fill="#E0E9F9" transform="translate(0,0)"/>
<path d="" fill="#E0E9F9" transform="translate(0,0)"/>
<path d="" fill="#E0E9F9" transform="translate(0,0)"/>
<path d="" fill="#DFE8F8" transform="translate(0,0)"/>
<path d="" fill="#E0E9F9" transform="translate(0,0)"/>
<path d="" fill="#DFE8F8" transform="translate(0,0)"/>
<path d="" fill="#DFE8F8" transform="translate(0,0)"/>
<path d="" fill="#E0E8F9" transform="translate(0,0)"/>
<path d="" fill="#E0E9F9" transform="translate(0,0)"/>
<path d="" fill="#E0E9F9" transform="translate(0,0)"/>
<path d="" fill="#E0E9F9" transform="translate(0,0)"/>
<path d="" fill="#E0E9F9" transform="translate(0,0)"/>
<path d="" fill="#E0E9F9" transform="translate(0,0)"/>
<path d="" fill="#DFE8F9" transform="translate(0,0)"/>
<path d="" fill="#E0E9F9" transform="translate(0,0)"/>
<path d="" fill="#DFE9F9" transform="translate(0,0)"/>
<path d="" fill="#E0E8F9" transform="translate(0,0)"/>
<path d="" fill="#E0E9F8" transform="translate(0,0)"/>
<path d="" fill="#E0E9F9" transform="translate(0,0)"/>
<path d="" fill="#DFE9F8" transform="translate(0,0)"/>
<path d="" fill="#E0E9F9" transform="translate(0,0)"/>
<path d="" fill="#E0E9F9" transform="translate(0,0)"/>
<path d="" fill="#E0E9F8" transform="translate(0,0)"/>
<path d="" fill="#E0E9F8" transform="translate(0,0)"/>
<path d="" fill="#E0E8F9" transform="translate(0,0)"/>
<path d="" fill="#E0E9F9" transform="translate(0,0)"/>
<path d="" fill="#E0E9F9" transform="translate(0,0)"/>
<path d="" fill="#E0E9F9" transform="translate(0,0)"/>
<path d="" fill="#E0E9F9" transform="translate(0,0)"/>
<path d="" fill="#DFE9F9" transform="translate(0,0)"/>
<path d="" fill="#E0E9F9" transform="translate(0,0)"/>
<path d="" fill="#DFE8F8" transform="translate(0,0)"/>
<path d="" fill="#E0E9F9" transform="translate(0,0)"/>
<path d="" fill="#E0E9F8" transform="translate(0,0)"/>
<path d="" fill="#DFE8F8" transform="translate(0,0)"/>
<path d="" fill="#E0E9F9" transform="translate(0,0)"/>
<path d="" fill="#E0E9F8" transform="translate(0,0)"/>
<path d="" fill="#E0E8F9" transform="translate(0,0)"/>
<path d="" fill="#E0E8F8" transform="translate(0,0)"/>
<path d="" fill="#E0E9F9" transform="translate(0,0)"/>
<path d="" fill="#E0E9F9" transform="translate(0,0)"/>
<path d="" fill="#E0E9F9" transform="translate(0,0)"/>
<path d="" fill="#E0E9F9" transform="translate(0,0)"/>
<path d="" fill="#E0E9F9" transform="translate(0,0)"/>
<path d="" fill="#E0E9F9" transform="translate(0,0)"/>
<path d="" fill="#DFE9F9" transform="translate(0,0)"/>
<path d="" fill="#E0E9F8" transform="translate(0,0)"/>
<path d="" fill="#E0E9F9" transform="translate(0,0)"/>
<path d="" fill="#3594DC" transform="translate(0,0)"/>
<path d="" fill="#3494DC" transform="translate(0,0)"/>
<path d="" fill="#3594DC" transform="translate(0,0)"/>
<path d="" fill="#3594DC" transform="translate(0,0)"/>
<path d="" fill="#3593DB" transform="translate(0,0)"/>
<path d="" fill="#3594DB" transform="translate(0,0)"/>
<path d="" fill="#3594DC" transform="translate(0,0)"/>
<path d="" fill="#3594DC" transform="translate(0,0)"/>
<path d="" fill="#3594DC" transform="translate(0,0)"/>
<path d="" fill="#E0E9F9" transform="translate(0,0)"/>
<path d="" fill="#E0E8F8" transform="translate(0,0)"/>
<path d="" fill="#E0E9F8" transform="translate(0,0)"/>
<path d="" fill="#DFE9F9" transform="translate(0,0)"/>
<path d="" fill="#F1753C" transform="translate(0,0)"/>
<path d="" fill="#F2763D" transform="translate(0,0)"/>
<path d="" fill="#DFE9F9" transform="translate(0,0)"/>
<path d="" fill="#F2763D" transform="translate(0,0)"/>
<path d="" fill="#E0E8F8" transform="translate(0,0)"/>
<path d="" fill="#E0E9F9" transform="translate(0,0)"/>
<path d="" fill="#E0E8F9" transform="translate(0,0)"/>
<path d="" fill="#F1763D" transform="translate(0,0)"/>
<path d="" fill="#F1763D" transform="translate(0,0)"/>
<path d="" fill="#E0E9F9" transform="translate(0,0)"/>
<path d="" fill="#F1753D" transform="translate(0,0)"/>
<path d="" fill="#F2763D" transform="translate(0,0)"/>
<path d="" fill="#DFE9F8" transform="translate(0,0)"/>
<path d="" fill="#F1763D" transform="translate(0,0)"/>
<path d="" fill="#F2753C" transform="translate(0,0)"/>
<path d="" fill="#E0E9F9" transform="translate(0,0)"/>
<path d="" fill="#F1753D" transform="translate(0,0)"/>
<path d="" fill="#F2753C" transform="translate(0,0)"/>
<path d="" fill="#E0E9F9" transform="translate(0,0)"/>
<path d="" fill="#DFE9F9" transform="translate(0,0)"/>
<path d="" fill="#F2763D" transform="translate(0,0)"/>
<path d="" fill="#E0E9F9" transform="translate(0,0)"/>
<path d="" fill="#F2753D" transform="translate(0,0)"/>
<path d="" fill="#E0E9F9" transform="translate(0,0)"/>
<path d="" fill="#F2763D" transform="translate(0,0)"/>
<path d="" fill="#E0E9F9" transform="translate(0,0)"/>
<path d="" fill="#F1753D" transform="translate(0,0)"/>
<path d="" fill="#E0E8F8" transform="translate(0,0)"/>
<path d="" fill="#F2763D" transform="translate(0,0)"/>
<path d="" fill="#DFE8F9" transform="translate(0,0)"/>
<path d="" fill="#F1763D" transform="translate(0,0)"/>
<path d="" fill="#E0E8F8" transform="translate(0,0)"/>
<path d="" fill="#F2763D" transform="translate(0,0)"/>
<path d="" fill="#E0E9F9" transform="translate(0,0)"/>
<path d="" fill="#F2763D" transform="translate(0,0)"/>
<path d="" fill="#E0E9F9" transform="translate(0,0)"/>
<path d="" fill="#F1753D" transform="translate(0,0)"/>
<path d="" fill="#E0E9F9" transform="translate(0,0)"/>
<path d="" fill="#F2753C" transform="translate(0,0)"/>
<path d="" fill="#F2763D" transform="translate(0,0)"/>
<path d="" fill="#F2763D" transform="translate(0,0)"/>
<path d="" fill="#E0E9F9" transform="translate(0,0)"/>
<path d="" fill="#F2763D" transform="translate(0,0)"/>
<path d="" fill="#F2763D" transform="translate(0,0)"/>
<path d="" fill="#F1753C" transform="translate(0,0)"/>
<path d="" fill="#E0E9F9" transform="translate(0,0)"/>
<path d="" fill="#F1763C" transform="translate(0,0)"/>
<path d="" fill="#F2763C" transform="translate(0,0)"/>
<path d="" fill="#F2753C" transform="translate(0,0)"/>
<path d="" fill="#F1753D" transform="translate(0,0)"/>
<path d="" fill="#E0E9F9" transform="translate(0,0)"/>
<path d="" fill="#F2763D" transform="translate(0,0)"/>
<path d="" fill="#F2763D" transform="translate(0,0)"/>
<path d="" fill="#E0E9F9" transform="translate(0,0)"/>
<path d="" fill="#F2763D" transform="translate(0,0)"/>
<path d="" fill="#F2763C" transform="translate(0,0)"/>
<path d="" fill="#F2763D" transform="translate(0,0)"/>
<path d="" fill="#E0E8F9" transform="translate(0,0)"/>
<path d="" fill="#F2763D" transform="translate(0,0)"/>
<path d="" fill="#F1753D" transform="translate(0,0)"/>
<path d="" fill="#E0E8F9" transform="translate(0,0)"/>
<path d="" fill="#F1753D" transform="translate(0,0)"/>
<path d="" fill="#F2763D" transform="translate(0,0)"/>
<path d="" fill="#F2763D" transform="translate(0,0)"/>
<path d="" fill="#F2763C" transform="translate(0,0)"/>
<path d="" fill="#F2763D" transform="translate(0,0)"/>
<path d="" fill="#F2763D" transform="translate(0,0)"/>
<path d="" fill="#DFE8F8" transform="translate(0,0)"/>
<path d="" fill="#F2763D" transform="translate(0,0)"/>
<path d="" fill="#F2763D" transform="translate(0,0)"/>
<path d="" fill="#F2763C" transform="translate(0,0)"/>
<path d="" fill="#E0E9F9" transform="translate(0,0)"/>
<path d="" fill="#F2763D" transform="translate(0,0)"/>
<path d="" fill="#F1763D" transform="translate(0,0)"/>
<path d="" fill="#E0E9F9" transform="translate(0,0)"/>
<path d="" fill="#F2763D" transform="translate(0,0)"/>
<path d="" fill="#F2763D" transform="translate(0,0)"/>
<path d="" fill="#F2763D" transform="translate(0,0)"/>
<path d="" fill="#F2763D" transform="translate(0,0)"/>
<path d="" fill="#E0E9F9" transform="translate(0,0)"/>
<path d="" fill="#F2763D" transform="translate(0,0)"/>
<path d="" fill="#F1763D" transform="translate(0,0)"/>
<path d="" fill="#F2763D" transform="translate(0,0)"/>
<path d="" fill="#DFE9F9" transform="translate(0,0)"/>
<path d="" fill="#F2763D" transform="translate(0,0)"/>
<path d="" fill="#F2763D" transform="translate(0,0)"/>
<path d="" fill="#F2763D" transform="translate(0,0)"/>
<path d="" fill="#F2763D" transform="translate(0,0)"/>
<path d="" fill="#DFE9F8" transform="translate(0,0)"/>
<path d="" fill="#E0E9F8" transform="translate(0,0)"/>
<path d="" fill="#F2763D" transform="translate(0,0)"/>
<path d="" fill="#F1763D" transform="translate(0,0)"/>
<path d="" fill="#F2763D" transform="translate(0,0)"/>
<path d="" fill="#E0E9F8" transform="translate(0,0)"/>
<path d="" fill="#F2753D" transform="translate(0,0)"/>
<path d="" fill="#F2753D" transform="translate(0,0)"/>
<path d="" fill="#F2753D" transform="translate(0,0)"/>
<path d="" fill="#F2763D" transform="translate(0,0)"/>
<path d="" fill="#DFE8F8" transform="translate(0,0)"/>
<path d="" fill="#F2763D" transform="translate(0,0)"/>
<path d="" fill="#F2763D" transform="translate(0,0)"/>
<path d="" fill="#E0E9F9" transform="translate(0,0)"/>
<path d="" fill="#F2763D" transform="translate(0,0)"/>
<path d="" fill="#F1763D" transform="translate(0,0)"/>
<path d="" fill="#DFE9F8" transform="translate(0,0)"/>
<path d="" fill="#E0E8F9" transform="translate(0,0)"/>
<path d="" fill="#F2753D" transform="translate(0,0)"/>
<path d="" fill="#F2763D" transform="translate(0,0)"/>
<path d="" fill="#E0E8F8" transform="translate(0,0)"/>
<path d="" fill="#F2763D" transform="translate(0,0)"/>
<path d="" fill="#F2763D" transform="translate(0,0)"/>
<path d="" fill="#DFE9F8" transform="translate(0,0)"/>
<path d="" fill="#F2763D" transform="translate(0,0)"/>
<path d="" fill="#F2763D" transform="translate(0,0)"/>
<path d="" fill="#E0E9F9" transform="translate(0,0)"/>
<path d="" fill="#F2763D" transform="translate(0,0)"/>
<path d="" fill="#F2753D" transform="translate(0,0)"/>
<path d="" fill="#E0E9F8" transform="translate(0,0)"/>
<path d="" fill="#F1763C" transform="translate(0,0)"/>
<path d="" fill="#F1753D" transform="translate(0,0)"/>
<path d="" fill="#E0E9F9" transform="translate(0,0)"/>
<path d="" fill="#F2763D" transform="translate(0,0)"/>
<path d="" fill="#F2763D" transform="translate(0,0)"/>
<path d="" fill="#E0E9F9" transform="translate(0,0)"/>
<path d="" fill="#F2753D" transform="translate(0,0)"/>
<path d="" fill="#F2753D" transform="translate(0,0)"/>
<path d="" fill="#DFE8F8" transform="translate(0,0)"/>
<path d="" fill="#F1753C" transform="translate(0,0)"/>
<path d="" fill="#F1753D" transform="translate(0,0)"/>
<path d="" fill="#DFE9F9" transform="translate(0,0)"/>
<path d="" fill="#F2763D" transform="translate(0,0)"/>
<path d="" fill="#F2763D" transform="translate(0,0)"/>
<path d="" fill="#E0E9F8" transform="translate(0,0)"/>
<path d="" fill="#F2753D" transform="translate(0,0)"/>
<path d="" fill="#F1753C" transform="translate(0,0)"/>
<path d="" fill="#E0E9F9" transform="translate(0,0)"/>
<path d="" fill="#F1753C" transform="translate(0,0)"/>
<path d="" fill="#F2763D" transform="translate(0,0)"/>
<path d="" fill="#F2763D" transform="translate(0,0)"/>
<path d="" fill="#E0E9F9" transform="translate(0,0)"/>
<path d="" fill="#F2753D" transform="translate(0,0)"/>
<path d="" fill="#F1753C" transform="translate(0,0)"/>
<path d="" fill="#F2753C" transform="translate(0,0)"/>
<path d="" fill="#F2763D" transform="translate(0,0)"/>
<path d="" fill="#F1753C" transform="translate(0,0)"/>
<path d="" fill="#F2763C" transform="translate(0,0)"/>
<path d="" fill="#F2763D" transform="translate(0,0)"/>
<path d="" fill="#F2763D" transform="translate(0,0)"/>
<path d="" fill="#F2763D" transform="translate(0,0)"/>
<path d="" fill="#F2763D" transform="translate(0,0)"/>
</svg>
