<svg width="36" height="36" viewBox="0 0 36 36" fill="none" xmlns="http://www.w3.org/2000/svg">
<circle cx="18" cy="18" r="18" fill="#4DC855"/>
<path d="M12.9 16H16.9M14.9 14V18M15.207 22.455C15.207 23.86 14.095 25 12.724 25C11.353 25 10.241 23.86 10.241 22.454M15.207 22.455C15.207 21.05 14.095 19.909 12.724 19.909C11.353 19.909 10.241 21.049 10.241 22.454M15.207 22.455L20.793 22.454M10.241 22.454H9V12C9 11.7348 9.10536 11.4804 9.29289 11.2929C9.48043 11.1054 9.73478 11 10 11H19.793C20.0582 11 20.3126 11.1054 20.5001 11.2929C20.6876 11.4804 20.793 11.7348 20.793 12V14.182M20.793 22.454H21.414M20.793 22.454V14.182M20.793 14.182H23.054C23.3207 14.182 23.5847 14.2354 23.8304 14.3389C24.0762 14.4425 24.2987 14.5942 24.485 14.785L27 17.364V22.454H26.379M26.379 22.454C26.379 23.86 25.268 25 23.897 25C22.526 25 21.414 23.86 21.414 22.454M26.379 22.454C26.379 21.049 25.268 19.909 23.897 19.909C22.526 19.909 21.414 21.049 21.414 22.454" stroke="white" stroke-width="1.5" stroke-linecap="round" stroke-linejoin="round"/>
</svg>
