<svg width="36" height="36" viewBox="0 0 36 36" fill="none" xmlns="http://www.w3.org/2000/svg">
<circle cx="18" cy="18" r="18" fill="#2B7730"/>
<path d="M18.028 23.23C18.2493 23.23 18.436 23.154 18.588 23.002C18.74 22.85 18.816 22.6633 18.816 22.442C18.816 22.2207 18.7393 22.034 18.586 21.882C18.434 21.73 18.2473 21.654 18.026 21.654C17.8047 21.654 17.618 21.7303 17.466 21.883C17.314 22.0357 17.2383 22.2223 17.239 22.443C17.239 22.6643 17.315 22.851 17.467 23.003C17.6203 23.155 17.8073 23.231 18.028 23.231M17.511 19.919H18.477C18.5023 19.4843 18.584 19.131 18.722 18.859C18.86 18.5877 19.1437 18.241 19.573 17.819C20.0197 17.373 20.3517 16.9733 20.569 16.62C20.7863 16.2667 20.8953 15.858 20.896 15.394C20.896 14.606 20.6193 13.978 20.066 13.51C19.512 13.042 18.8567 12.808 18.1 12.808C17.3807 12.808 16.77 13.0033 16.268 13.394C15.766 13.7853 15.3983 14.2347 15.165 14.742L16.085 15.123C16.245 14.759 16.474 14.4373 16.772 14.158C17.07 13.878 17.5 13.738 18.062 13.738C18.71 13.738 19.1833 13.916 19.482 14.272C19.7813 14.628 19.931 15.0193 19.931 15.446C19.931 15.7927 19.8373 16.102 19.65 16.374C19.4633 16.6467 19.22 16.9207 18.92 17.196C18.34 17.7307 17.96 18.184 17.78 18.556C17.6 18.928 17.5103 19.3823 17.511 19.919ZM18.003 27C16.759 27 15.589 26.764 14.493 26.292C13.3977 25.8193 12.4447 25.178 11.634 24.368C10.8233 23.558 10.1817 22.606 9.709 21.512C9.23633 20.418 9 19.2483 9 18.003C9 16.7577 9.23633 15.5877 9.709 14.493C10.181 13.3977 10.8213 12.4447 11.63 11.634C12.4387 10.8233 13.391 10.1817 14.487 9.709C15.583 9.23633 16.753 9 17.997 9C19.241 9 20.411 9.23633 21.507 9.709C22.6023 10.181 23.5553 10.8217 24.366 11.631C25.1767 12.4403 25.8183 13.3927 26.291 14.488C26.7637 15.5833 27 16.753 27 17.997C27 19.241 26.764 20.411 26.292 21.507C25.82 22.603 25.1787 23.556 24.368 24.366C23.5573 25.176 22.6053 25.8177 21.512 26.291C20.4187 26.7643 19.249 27.0007 18.003 27ZM18 26C20.2333 26 22.125 25.225 23.675 23.675C25.225 22.125 26 20.2333 26 18C26 15.7667 25.225 13.875 23.675 12.325C22.125 10.775 20.2333 10 18 10C15.7667 10 13.875 10.775 12.325 12.325C10.775 13.875 10 15.7667 10 18C10 20.2333 10.775 22.125 12.325 23.675C13.875 25.225 15.7667 26 18 26Z" fill="white"/>
</svg>
