<svg width="36" height="36" viewBox="0 0 36 36" fill="none" xmlns="http://www.w3.org/2000/svg">
<circle cx="18" cy="18" r="18" fill="#DA7F09"/>
<path d="M18.0001 26.775C17.7974 26.775 17.5978 26.7347 17.4011 26.654C17.2044 26.5733 17.0254 26.454 16.8641 26.296L9.7041 19.136C9.5461 18.9747 9.42676 18.7957 9.3461 18.599C9.26543 18.4023 9.2251 18.2027 9.2251 18C9.2251 17.7973 9.26543 17.5967 9.3461 17.398C9.42676 17.1993 9.5461 17.0213 9.7041 16.864L16.8641 9.704C17.0254 9.54267 17.2044 9.42267 17.4011 9.344C17.5978 9.26533 17.7974 9.22533 18.0001 9.224C18.2028 9.22267 18.4034 9.262 18.6021 9.342C18.8008 9.422 18.9791 9.542 19.1371 9.702L26.2971 16.862C26.4578 17.02 26.5778 17.1983 26.6571 17.397C26.7358 17.5957 26.7751 17.7963 26.7751 17.999C26.7751 18.2017 26.7358 18.4013 26.6571 18.598C26.5784 18.7947 26.4584 18.974 26.2971 19.136L19.1371 26.296C18.9791 26.4533 18.8008 26.5723 18.6021 26.653C18.4034 26.7337 18.2028 26.775 18.0001 26.775ZM18.4421 25.582L25.5821 18.442C25.6854 18.3393 25.7371 18.1917 25.7371 17.999C25.7371 17.8063 25.6858 17.659 25.5831 17.557L18.4431 10.417C18.3404 10.3137 18.1928 10.262 18.0001 10.262C17.8074 10.262 17.6601 10.3133 17.5581 10.416L10.4181 17.556C10.3148 17.6593 10.2631 17.807 10.2631 17.999C10.2631 18.191 10.3144 18.3383 10.4171 18.441L17.5571 25.581C17.6604 25.6843 17.8081 25.736 18.0001 25.736C18.1921 25.736 18.3394 25.6847 18.4421 25.582ZM17.5001 19.172H18.5001V13.942H17.5001V19.172ZM18.0001 21.402C18.1681 21.402 18.3128 21.3417 18.4341 21.221C18.5554 21.1003 18.6161 20.956 18.6161 20.788C18.6161 20.62 18.5554 20.4753 18.4341 20.354C18.3128 20.2327 18.1681 20.172 18.0001 20.172C17.8321 20.172 17.6874 20.2327 17.5661 20.354C17.4448 20.4753 17.3841 20.62 17.3841 20.788C17.3841 20.956 17.4448 21.1003 17.5661 21.221C17.6874 21.3417 17.8321 21.4013 18.0001 21.402Z" fill="white"/>
</svg>
