<svg width="36" height="36" viewBox="0 0 36 36" fill="none" xmlns="http://www.w3.org/2000/svg">
<circle cx="18" cy="18" r="18" fill="#DA2C2C"/>
<path d="M15.93 20.6L18 19L20.02 20.562L19.238 18.046L21.385 16.385H18.83L18 13.83L17.17 16.384H14.615L16.711 18.045L15.93 20.6ZM18 26.962C15.9907 26.3653 14.3217 25.1483 12.993 23.311C11.6643 21.4737 11 19.4033 11 17.1V11.692L18 9.077L25 11.692V17.1C25 19.4027 24.3357 21.4727 23.007 23.31C21.6783 25.1473 20.0093 26.364 18 26.962ZM18 25.901C19.7333 25.351 21.1667 24.251 22.3 22.601C23.4333 20.951 24 19.1177 24 17.101V12.375L18 10.145L12 12.375V17.1C12 19.1167 12.5667 20.95 13.7 22.6C14.8333 24.25 16.2667 25.351 18 25.901Z" fill="white"/>
</svg>
