<svg width="36" height="36" viewBox="0 0 36 36" fill="none" xmlns="http://www.w3.org/2000/svg">
<circle cx="18" cy="18" r="18" fill="#3183FF"/>
<path d="M24.75 21C24.75 25.1423 22.1423 27.75 18 27.75C13.8577 27.75 11.25 25.1423 11.25 21C11.25 16.5548 16.0889 10.5539 17.573 8.8181C17.6258 8.75643 17.6913 8.70693 17.7651 8.67298C17.8388 8.63904 17.919 8.62146 18.0002 8.62146C18.0814 8.62146 18.1617 8.63904 18.2354 8.67298C18.3092 8.70693 18.3747 8.75643 18.4275 8.8181C19.9111 10.5539 24.75 16.5548 24.75 21Z" stroke="white" stroke-miterlimit="10"/>
<path d="M22.125 21.375C22.125 22.2701 21.7694 23.1285 21.1365 23.7615C20.5035 24.3944 19.6451 24.75 18.75 24.75" stroke="white" stroke-linecap="round" stroke-linejoin="round"/>
</svg>
