<svg width="18" height="19" viewBox="0 0 18 19" fill="none" xmlns="http://www.w3.org/2000/svg">
<path d="M1.5 7.83335C1.5 4.69085 1.5 3.11919 2.47667 2.14335C3.45333 1.16752 5.02417 1.16669 8.16667 1.16669H9.83333C12.9758 1.16669 14.5475 1.16669 15.5233 2.14335C16.4992 3.12002 16.5 4.69085 16.5 7.83335V11.1667C16.5 14.3092 16.5 15.8809 15.5233 16.8567C14.5467 17.8325 12.9758 17.8334 9.83333 17.8334H8.16667C5.02417 17.8334 3.4525 17.8334 2.47667 16.8567C1.50083 15.88 1.5 14.3092 1.5 11.1667V7.83335Z" stroke="black" stroke-width="1.5"/>
<path d="M5.66669 7.83337H12.3334M5.66669 11.1667H9.83335" stroke="black" stroke-width="1.5" stroke-linecap="round"/>
</svg>
