<svg width="14" height="14" viewBox="0 0 14 14" fill="none" xmlns="http://www.w3.org/2000/svg">
<path d="M1.92098 7.5L7.35998 12.939C7.45731 13.0363 7.50831 13.151 7.51298 13.283C7.51698 13.415 7.46365 13.536 7.35298 13.646C7.24365 13.7527 7.12598 13.807 6.99998 13.809C6.87465 13.8103 6.75665 13.756 6.64598 13.646L0.565979 7.566C0.478646 7.478 0.417313 7.38867 0.381979 7.298C0.346646 7.20733 0.328979 7.108 0.328979 7C0.328979 6.892 0.346646 6.79267 0.381979 6.702C0.417313 6.61133 0.478646 6.52233 0.565979 6.435L6.64598 0.353999C6.73931 0.260666 6.85298 0.210666 6.98698 0.203999C7.12165 0.197333 7.24398 0.247333 7.35398 0.353999C7.46398 0.463999 7.51898 0.582666 7.51898 0.709999C7.51898 0.837999 7.46398 0.956999 7.35398 1.067L1.91998 6.5H13.5C13.6426 6.5 13.7616 6.54767 13.857 6.643C13.9523 6.73833 14 6.85733 14 7C14 7.14267 13.9523 7.26167 13.857 7.357C13.7616 7.45233 13.6426 7.5 13.5 7.5H1.92098Z" fill="black"/>
</svg>
