<svg width="18" height="18" viewBox="0 0 18 18" fill="none" xmlns="http://www.w3.org/2000/svg">
<path d="M15.875 14.3133H2.12502C1.66478 14.3133 1.29169 14.6864 1.29169 15.1467V15.98C1.29169 16.4402 1.66478 16.8133 2.12502 16.8133H15.875C16.3353 16.8133 16.7084 16.4402 16.7084 15.98V15.1467C16.7084 14.6864 16.3353 14.3133 15.875 14.3133Z" stroke="black" stroke-width="1.5" stroke-linecap="round" stroke-linejoin="round"/>
<path d="M3.37502 7.22833V14.32M14.625 7.22833V14.32M11.0834 7.22833V14.32M6.91669 7.22833V14.32M8.20002 1.62499L1.72502 5.16666C1.59388 5.23841 1.48446 5.34412 1.40822 5.4727C1.33198 5.60128 1.29173 5.74801 1.29169 5.89749V6.72833C1.29169 6.86093 1.34437 6.98811 1.43813 7.08188C1.5319 7.17565 1.65908 7.22833 1.79169 7.22833H16.2084C16.341 7.22833 16.4681 7.17565 16.5619 7.08188C16.6557 6.98811 16.7084 6.86093 16.7084 6.72833V5.89749C16.7083 5.74801 16.6681 5.60128 16.5918 5.4727C16.5156 5.34412 16.4062 5.23841 16.275 5.16666L9.80002 1.62499C9.55473 1.49078 9.27962 1.42044 9.00002 1.42044C8.72042 1.42044 8.44531 1.49078 8.20002 1.62499Z" stroke="black" stroke-width="1.5" stroke-linecap="round" stroke-linejoin="round"/>
</svg>
