<svg width="18" height="16" viewBox="0 0 18 16" fill="none" xmlns="http://www.w3.org/2000/svg">
<path d="M10.5469 -0.00488281C11.1025 -0.00488281 11.6144 0.282881 11.9046 0.748414L11.9781 0.879702L12.6021 2.12781H14.4046C15.8184 2.12781 16.9753 3.22811 17.0656 4.61913L17.0713 4.79447V13.3285C17.0713 14.7423 15.971 15.8992 14.5799 15.9894L14.4046 15.9951H2.6713C1.25746 15.9951 0.100597 14.8948 0.0103109 13.5038L0.00463867 13.3285V4.79447C0.00463867 3.38061 1.10494 2.22376 2.49597 2.13348L2.6713 2.12781H4.47341L5.1022 0.876641C5.35117 0.381241 5.83672 0.0533496 6.38181 0.0021413L6.53182 -0.00488281H10.5469ZM10.5469 1.06178H6.53182C6.3638 1.06178 6.20775 1.14074 6.10801 1.27131L6.05527 1.35563L5.27881 2.90063C5.20337 3.05075 5.06275 3.15473 4.90129 3.18521L4.80227 3.19447H2.6713C1.83962 3.19447 1.15616 3.82901 1.07863 4.64038L1.0713 4.79447V13.3285C1.0713 14.1601 1.70585 14.8436 2.51721 14.9211L2.6713 14.9285H14.4046C15.2363 14.9285 15.9197 14.2939 15.9973 13.4825L16.0046 13.3285V4.79447C16.0046 3.96279 15.37 3.27932 14.5587 3.20179L14.4046 3.19447H12.2723C12.104 3.19447 11.9477 3.1152 11.848 2.98419L11.7953 2.8996L11.024 1.35664C10.9487 1.20605 10.8079 1.10168 10.6461 1.07107L10.5469 1.06178ZM8.53294 4.26181C10.8893 4.26181 12.7996 6.17205 12.7996 8.52847C12.7996 10.8848 10.8893 12.7951 8.53294 12.7951C6.17653 12.7951 4.26628 10.8848 4.26628 8.52847C4.26628 6.17205 6.17653 4.26181 8.53294 4.26181ZM8.53294 5.32847C6.76564 5.32847 5.33295 6.76116 5.33295 8.52847C5.33295 10.2958 6.76564 11.7285 8.53294 11.7285C10.3003 11.7285 11.7329 10.2958 11.7329 8.52847C11.7329 6.76116 10.3003 5.32847 8.53294 5.32847Z" fill="#27AE60"/>
</svg>
