<svg width="20" height="15" viewBox="0 0 20 15" fill="none" xmlns="http://www.w3.org/2000/svg">
<path d="M18.125 1.25C18.2908 1.25 18.4497 1.31585 18.5669 1.43306C18.6842 1.55027 18.75 1.70924 18.75 1.875V13.125C18.75 13.2908 18.6842 13.4497 18.5669 13.5669C18.4497 13.6842 18.2908 13.75 18.125 13.75H1.875C1.70924 13.75 1.55027 13.6842 1.43306 13.5669C1.31585 13.4497 1.25 13.2908 1.25 13.125V1.875C1.25 1.70924 1.31585 1.55027 1.43306 1.43306C1.55027 1.31585 1.70924 1.25 1.875 1.25H18.125ZM1.875 0C1.37772 0 0.900805 0.197544 0.549175 0.549175C0.197544 0.900806 0 1.37772 0 1.875L0 13.125C0 13.6223 0.197544 14.0992 0.549175 14.4508C0.900805 14.8025 1.37772 15 1.875 15H18.125C18.6223 15 19.0992 14.8025 19.4508 14.4508C19.8025 14.0992 20 13.6223 20 13.125V1.875C20 1.37772 19.8025 0.900806 19.4508 0.549175C19.0992 0.197544 18.6223 0 18.125 0H1.875Z" fill="black"/>
<path d="M3.75 4.375C3.75 4.20924 3.81585 4.05027 3.93306 3.93306C4.05027 3.81585 4.20924 3.75 4.375 3.75H15.625C15.7908 3.75 15.9497 3.81585 16.0669 3.93306C16.1842 4.05027 16.25 4.20924 16.25 4.375C16.25 4.54076 16.1842 4.69973 16.0669 4.81694C15.9497 4.93415 15.7908 5 15.625 5H4.375C4.20924 5 4.05027 4.93415 3.93306 4.81694C3.81585 4.69973 3.75 4.54076 3.75 4.375ZM3.75 7.5C3.75 7.33424 3.81585 7.17527 3.93306 7.05806C4.05027 6.94085 4.20924 6.875 4.375 6.875H15.625C15.7908 6.875 15.9497 6.94085 16.0669 7.05806C16.1842 7.17527 16.25 7.33424 16.25 7.5C16.25 7.66576 16.1842 7.82473 16.0669 7.94194C15.9497 8.05915 15.7908 8.125 15.625 8.125H4.375C4.20924 8.125 4.05027 8.05915 3.93306 7.94194C3.81585 7.82473 3.75 7.66576 3.75 7.5ZM3.75 10.625C3.75 10.4592 3.81585 10.3003 3.93306 10.1831C4.05027 10.0658 4.20924 10 4.375 10H11.875C12.0408 10 12.1997 10.0658 12.3169 10.1831C12.4342 10.3003 12.5 10.4592 12.5 10.625C12.5 10.7908 12.4342 10.9497 12.3169 11.0669C12.1997 11.1842 12.0408 11.25 11.875 11.25H4.375C4.20924 11.25 4.05027 11.1842 3.93306 11.0669C3.81585 10.9497 3.75 10.7908 3.75 10.625Z" fill="black"/>
</svg>
