<svg width="20" height="20" viewBox="0 0 20 20" fill="none" xmlns="http://www.w3.org/2000/svg">
<path d="M10.0043 8.75H10.011M13.3335 8.75H13.341M6.67432 8.75H6.68182" stroke="white" stroke-width="2" stroke-linecap="round" stroke-linejoin="round"/>
<path d="M1.66675 8.75017C1.66675 8.10851 1.67758 7.48101 1.70008 6.87517C1.76925 4.89767 1.80425 3.90851 2.60841 3.09767C3.41258 2.28767 4.43008 2.24434 6.46341 2.15684C7.64165 2.10737 8.82081 2.08292 10.0001 2.08351C11.2334 2.08351 12.4209 2.10851 13.5367 2.15684C15.5701 2.24434 16.5867 2.28767 17.3917 3.09851C18.1959 3.90851 18.2309 4.89767 18.3001 6.87517C18.344 8.12479 18.344 9.37556 18.3001 10.6252C18.2309 12.6027 18.1959 13.5918 17.3917 14.4027C16.5876 15.2127 15.5701 15.256 13.5367 15.3435C12.9245 15.3696 12.2926 15.3891 11.6409 15.4018C11.0242 15.4135 10.7151 15.4185 10.4434 15.5227C10.1717 15.6268 9.94341 15.821 9.48675 16.2127L7.67091 17.771C7.58254 17.8467 7.4743 17.8955 7.35903 17.9116C7.24376 17.9276 7.1263 17.9103 7.02059 17.8616C6.91488 17.8129 6.82536 17.7349 6.76264 17.6369C6.69992 17.5389 6.66664 17.4249 6.66675 17.3085V15.3518L6.46341 15.3435C4.43008 15.256 3.41341 15.2127 2.60841 14.4018C1.80425 13.5918 1.76925 12.6027 1.70008 10.6252C1.67798 10.0004 1.66687 9.37532 1.66675 8.75017Z" stroke="white" stroke-width="1.5" stroke-linecap="round" stroke-linejoin="round"/>
</svg>
