<svg width="19" height="21" viewBox="0 0 19 21" fill="none" xmlns="http://www.w3.org/2000/svg">
<path d="M5 2.72222H2.75C2.15326 2.72222 1.58097 2.95635 1.15901 3.3731C0.737053 3.78984 0.5 4.35507 0.5 4.94444V18.2778C0.5 18.8671 0.737053 19.4324 1.15901 19.8491C1.58097 20.2659 2.15326 20.5 2.75 20.5H16.25C16.8467 20.5 17.419 20.2659 17.841 19.8491C18.2629 19.4324 18.5 18.8671 18.5 18.2778V4.94444C18.5 4.35507 18.2629 3.78984 17.841 3.3731C17.419 2.95635 16.8467 2.72222 16.25 2.72222H14M5 2.72222C5 2.13285 5.23705 1.56762 5.65901 1.15087C6.08097 0.734126 6.65326 0.5 7.25 0.5H11.75C12.3467 0.5 12.919 0.734126 13.341 1.15087C13.7629 1.56762 14 2.13285 14 2.72222M5 2.72222C5 3.31159 5.23705 3.87682 5.65901 4.29357C6.08097 4.71032 6.65326 4.94444 7.25 4.94444H11.75C12.3467 4.94444 12.919 4.71032 13.341 4.29357C13.7629 3.87682 14 3.31159 14 2.72222M5 9.38889H14M5 13.8333H9.5" stroke="black" stroke-linecap="round" stroke-linejoin="round"/>
</svg>
