<?xml version="1.0" standalone="no"?>
<!DOCTYPE svg PUBLIC "-//W3C//DTD SVG 20010904//EN"
 "http://www.w3.org/TR/2001/REC-SVG-20010904/DTD/svg10.dtd">
<svg version="1.0" xmlns="http://www.w3.org/2000/svg"
 width="512.000000pt" height="512.000000pt" viewBox="0 0 512.000000 512.000000"
 preserveAspectRatio="xMidYMid meet">

<g transform="translate(0.000000,512.000000) scale(0.100000,-0.100000)"
fill="#000000" stroke="none">
<path d="M970 4843 c-119 -20 -222 -75 -316 -168 -75 -73 -115 -140 -150 -250
-18 -58 -19 -107 -19 -1440 l0 -1380 22 -67 c32 -97 78 -172 149 -242 70 -71
145 -117 242 -149 l67 -22 1170 0 c1105 0 1173 1 1225 18 202 67 334 198 404
402 20 59 20 82 23 1095 l4 1035 152 7 c166 7 194 2 264 -44 46 -31 96 -97
107 -141 4 -16 7 -634 7 -1374 l-1 -1346 -21 -41 c-27 -54 -64 -92 -119 -124
l-45 -27 -1150 0 -1150 0 -47 28 c-86 51 -131 124 -143 227 -8 77 -33 122 -79
144 -87 41 -190 -1 -214 -88 -11 -37 -1 -144 18 -211 43 -148 148 -274 287
-343 120 -60 55 -57 1333 -57 l1175 0 65 22 c97 32 157 70 232 144 64 64 111
139 136 219 41 126 42 155 42 1465 0 1304 -1 1334 -40 1455 -57 174 -195 313
-370 370 -68 22 -147 33 -292 39 l-147 6 -4 180 c-4 153 -8 191 -27 250 -62
188 -198 325 -389 393 -41 15 -164 17 -1211 18 -641 1 -1176 0 -1190 -3z
m2362 -346 c50 -30 89 -75 116 -135 16 -34 17 -138 17 -1377 l0 -1340 -23 -46
c-33 -66 -86 -115 -149 -139 -53 -20 -75 -20 -1161 -20 -852 0 -1115 3 -1142
13 -89 31 -152 95 -179 182 -9 31 -11 337 -9 1370 l3 1330 23 45 c39 75 89
118 162 141 14 4 536 7 1160 6 l1135 -2 47 -28z"/>
</g>
</svg>
