<svg width="18" height="18" viewBox="0 0 18 18" fill="none" xmlns="http://www.w3.org/2000/svg">
<path d="M9 16.125C10.8897 16.125 12.7019 15.3743 14.0381 14.0381C15.3743 12.7019 16.125 10.8897 16.125 9C16.125 7.11033 15.3743 5.29806 14.0381 3.96186C12.7019 2.62567 10.8897 1.875 9 1.875C7.11033 1.875 5.29806 2.62567 3.96186 3.96186C2.62567 5.29806 1.875 7.11033 1.875 9C1.875 10.8897 2.62567 12.7019 3.96186 14.0381C5.29806 15.3743 7.11033 16.125 9 16.125Z" stroke="#2B7730" stroke-width="1.5" stroke-linecap="round" stroke-linejoin="round"/>
<path d="M6.75 10.8247C6.79785 11.3767 7.06037 11.8878 7.48111 12.2483C7.90186 12.6087 8.44724 12.7897 9 12.7523C10.815 12.7523 11.25 11.7097 11.25 10.8247C11.25 9.93975 10.5 9.00225 9 9.00225C7.5 9.00225 6.75 8.40975 6.75 7.20225C6.76399 6.92446 6.83402 6.65237 6.95588 6.40234C7.07774 6.15232 7.24891 5.92952 7.4591 5.74736C7.66928 5.5652 7.91415 5.42743 8.17895 5.34234C8.44376 5.25726 8.72304 5.22661 9 5.25225C9.55313 5.22843 10.0944 5.41719 10.5128 5.77979C10.9312 6.14239 11.195 6.65135 11.25 7.20225M9 13.875V12.9M9 4.125V5.24925" stroke="#2B7730" stroke-width="1.5" stroke-linecap="round" stroke-linejoin="round"/>
</svg>
