<svg width="21" height="17" viewBox="0 0 21 17" fill="none" xmlns="http://www.w3.org/2000/svg">
<path d="M5.24074 12.3521H11.7593M11.7593 12.3521L16.9481 8.20097C17.4037 7.83656 18.0199 7.74523 18.5616 7.96188C19.5881 8.37249 19.9107 9.66809 19.1965 10.5121L14.7288 15.7921C14.3488 16.2412 13.7903 16.5002 13.202 16.5002H2.5C1.39543 16.5002 0.5 15.6048 0.5 14.5002V9.61133C0.5 8.50676 1.39543 7.61133 2.5 7.61133H7.41307C7.54478 7.61133 7.6766 7.62208 7.80312 7.65865C8.86165 7.96459 10.8684 9.23418 11.7593 12.3521Z" stroke="#2B7730"/>
<path fill-rule="evenodd" clip-rule="evenodd" d="M9.27485 3.89718C8.87206 2.5736 9.34279 1.06077 10.663 0.613125C11.3575 0.377251 12.1241 0.516326 12.7014 0.973455C13.2476 0.528969 14.0423 0.378832 14.736 0.613125C16.0563 1.06077 16.53 2.5736 16.1276 3.89718C15.5007 5.99516 12.7014 7.61111 12.7014 7.61111C12.7014 7.61111 9.92277 6.01965 9.27485 3.89718Z" stroke="#2B7730" stroke-linecap="round" stroke-linejoin="round"/>
</svg>
