<svg width="13" height="12" viewBox="0 0 13 12" fill="none" xmlns="http://www.w3.org/2000/svg">
<path d="M6.50008 8.70602C6.41064 8.70602 6.32786 8.6913 6.25175 8.66185C6.17564 8.63241 6.10147 8.5813 6.02925 8.50852L3.84591 6.32602C3.7648 6.24491 3.72258 6.14935 3.71925 6.03935C3.71591 5.92935 3.75814 5.82852 3.84591 5.73685C3.93814 5.64463 4.0373 5.59769 4.14341 5.59602C4.25008 5.59435 4.34925 5.63963 4.44092 5.73185L6.08342 7.37435V0.582688C6.08342 0.464355 6.12314 0.365188 6.20258 0.285188C6.28203 0.205188 6.38119 0.165466 6.50008 0.166021C6.61897 0.166577 6.71814 0.206299 6.79758 0.285188C6.87703 0.364077 6.91675 0.463244 6.91675 0.582688V7.37435L8.55925 5.73185C8.64036 5.65074 8.73675 5.60824 8.84842 5.60435C8.96008 5.60047 9.06175 5.64463 9.15341 5.73685C9.2423 5.82852 9.28758 5.92685 9.28925 6.03185C9.29092 6.13685 9.24592 6.23491 9.15425 6.32602L6.97091 8.50935C6.89869 8.58158 6.82453 8.63241 6.74842 8.66185C6.67286 8.6913 6.59008 8.70602 6.50008 8.70602ZM2.01341 11.8327C1.62953 11.8327 1.30925 11.7044 1.05258 11.4477C0.795915 11.191 0.667304 10.8705 0.666748 10.486V8.88352C0.666748 8.76519 0.70647 8.6663 0.785915 8.58685C0.865359 8.50741 0.964526 8.46741 1.08341 8.46686C1.2023 8.4663 1.30147 8.5063 1.38091 8.58685C1.46036 8.66741 1.50008 8.7663 1.50008 8.88352V10.486C1.50008 10.6144 1.55341 10.7321 1.66008 10.8394C1.76675 10.9466 1.88425 10.9999 2.01258 10.9994H10.9876C11.1154 10.9994 11.2329 10.946 11.3401 10.8394C11.4473 10.7327 11.5006 10.6149 11.5001 10.486V8.88352C11.5001 8.76519 11.5398 8.6663 11.6192 8.58685C11.6987 8.50741 11.7979 8.46741 11.9167 8.46686C12.0356 8.4663 12.1348 8.5063 12.2142 8.58685C12.2937 8.66741 12.3334 8.7663 12.3334 8.88352V10.486C12.3334 10.8699 12.2051 11.1902 11.9484 11.4469C11.6917 11.7035 11.3712 11.8321 10.9867 11.8327H2.01341Z" fill="url(#paint0_linear_964_2651)"/>
<defs>
<linearGradient id="paint0_linear_964_2651" x1="0.666748" y1="5.99935" x2="12.3334" y2="5.99935" gradientUnits="userSpaceOnUse">
<stop stop-color="#27AE60"/>
<stop offset="1" stop-color="#4DC855"/>
</linearGradient>
</defs>
</svg>
