<svg width="22" height="15" viewBox="0 0 22 15" fill="none" xmlns="http://www.w3.org/2000/svg">
<path d="M20 0H2C1.60218 0 1.22064 0.158035 0.93934 0.43934C0.658035 0.720644 0.5 1.10218 0.5 1.5V13.5C0.5 13.8978 0.658035 14.2794 0.93934 14.5607C1.22064 14.842 1.60218 15 2 15H20C20.3978 15 20.7794 14.842 21.0607 14.5607C21.342 14.2794 21.5 13.8978 21.5 13.5V1.5C21.5 1.10218 21.342 0.720644 21.0607 0.43934C20.7794 0.158035 20.3978 0 20 0ZM18.35 1.5L11 6.585L3.65 1.5H18.35ZM2 13.5V2.1825L10.5725 8.115C10.698 8.2021 10.8472 8.24877 11 8.24877C11.1528 8.24877 11.302 8.2021 11.4275 8.115L20 2.1825V13.5H2Z" fill="black"/>
</svg>
