<svg width="16" height="21" viewBox="0 0 16 21" fill="none" xmlns="http://www.w3.org/2000/svg">
<path d="M14.5 0.75H10.75C10.5511 0.75 10.3603 0.829018 10.2197 0.96967C10.079 1.11032 10 1.30109 10 1.5C10 1.69891 10.079 1.88968 10.2197 2.03033C10.3603 2.17098 10.5511 2.25 10.75 2.25H12.6897L10.3319 4.60781C9.63957 3.96262 8.80445 3.49033 7.89473 3.22954C6.98502 2.96875 6.02652 2.92684 5.09752 3.10724C4.16852 3.28764 3.29536 3.68523 2.54937 4.26754C1.80338 4.84985 1.2057 5.60036 0.805169 6.45777C0.404632 7.31519 0.212592 8.25519 0.244734 9.20099C0.276875 10.1468 0.532286 11.0716 0.990106 11.8998C1.44793 12.7281 2.09517 13.4363 2.87897 13.9666C3.66278 14.4969 4.56091 14.8343 5.50001 14.9513V16.5H3.25001C3.0511 16.5 2.86034 16.579 2.71968 16.7197C2.57903 16.8603 2.50001 17.0511 2.50001 17.25C2.50001 17.4489 2.57903 17.6397 2.71968 17.7803C2.86034 17.921 3.0511 18 3.25001 18H5.50001V20.25C5.50001 20.4489 5.57903 20.6397 5.71968 20.7803C5.86034 20.921 6.0511 21 6.25001 21C6.44893 21 6.63969 20.921 6.78034 20.7803C6.921 20.6397 7.00001 20.4489 7.00001 20.25V18H9.25001C9.44893 18 9.63969 17.921 9.78034 17.7803C9.921 17.6397 10 17.4489 10 17.25C10 17.0511 9.921 16.8603 9.78034 16.7197C9.63969 16.579 9.44893 16.5 9.25001 16.5H7.00001V14.9513C8.00532 14.8257 8.96237 14.4473 9.78173 13.8514C10.6011 13.2555 11.256 12.4616 11.6853 11.544C12.1145 10.6263 12.3041 9.61473 12.2363 8.60388C12.1685 7.59304 11.8455 6.61588 11.2975 5.76375L13.75 3.31031V5.25C13.75 5.44891 13.829 5.63968 13.9697 5.78033C14.1103 5.92098 14.3011 6 14.5 6C14.6989 6 14.8897 5.92098 15.0303 5.78033C15.171 5.63968 15.25 5.44891 15.25 5.25V1.5C15.25 1.30109 15.171 1.11032 15.0303 0.96967C14.8897 0.829018 14.6989 0.75 14.5 0.75ZM6.25001 13.5C5.36 13.5 4.48997 13.2361 3.74995 12.7416C3.00993 12.2471 2.43315 11.5443 2.09256 10.7221C1.75196 9.89981 1.66285 8.99501 1.83648 8.12209C2.01011 7.24918 2.4387 6.44736 3.06803 5.81802C3.69737 5.18868 4.49919 4.7601 5.37211 4.58647C6.24502 4.41283 7.14982 4.50195 7.97209 4.84254C8.79436 5.18314 9.49716 5.75991 9.99163 6.49993C10.4861 7.23995 10.75 8.10998 10.75 9C10.7488 10.1931 10.2743 11.337 9.43062 12.1806C8.58698 13.0243 7.44311 13.4988 6.25001 13.5Z" fill="black"/>
</svg>
