<svg width="20" height="20" viewBox="0 0 20 20" fill="none" xmlns="http://www.w3.org/2000/svg">
<path d="M19.8675 8.43085L17.8738 4.44179C17.8003 4.29496 17.6987 4.16405 17.5746 4.05651C17.4506 3.94898 17.3066 3.86693 17.1508 3.81506C16.995 3.76319 16.8306 3.74251 16.6668 3.7542C16.5031 3.76589 16.3432 3.80972 16.1964 3.88319L14.2535 4.85429L10.1605 3.77147C10.0555 3.74414 9.9452 3.74414 9.84017 3.77147L5.74721 4.85429L3.80424 3.88319C3.65743 3.80972 3.49758 3.76589 3.33383 3.7542C3.17008 3.74251 3.00562 3.76319 2.84986 3.81506C2.6941 3.86693 2.55009 3.94898 2.42604 4.05651C2.30199 4.16405 2.20034 4.29496 2.12689 4.44179L0.133144 8.43007C0.0596727 8.57688 0.0158401 8.73672 0.00414982 8.90048C-0.00754043 9.06423 0.0131407 9.22868 0.0650121 9.38444C0.116883 9.5402 0.198929 9.68422 0.306464 9.80826C0.413998 9.93231 0.544915 10.034 0.691738 10.1074L2.80111 11.1629L7.13627 14.259C7.20018 14.3044 7.27198 14.3375 7.34799 14.3566L12.348 15.6066C12.4527 15.6329 12.5624 15.6316 12.6665 15.6028C12.7705 15.5741 12.8654 15.5189 12.9417 15.4426L17.2441 11.1394L19.3081 10.1074C19.6045 9.95907 19.8298 9.69915 19.9345 9.38476C20.0392 9.07038 20.0149 8.72727 19.8667 8.43085H19.8675ZM15.5792 11.0379L12.891 8.88475C12.7705 8.78831 12.6187 8.73982 12.4646 8.74861C12.3106 8.75741 12.1652 8.82288 12.0566 8.93241C10.6652 10.334 9.11439 10.1566 8.12533 9.53163L11.5035 6.25038H13.9886L16.1144 10.5012L15.5792 11.0379ZM3.24486 5.00038L4.84408 5.79882L2.84643 9.7871L1.25033 8.98944L3.24486 5.00038ZM12.3074 14.3074L7.76752 13.173L3.92377 10.4277L6.11127 6.05272L10.0003 5.02225L10.766 5.2246L7.25033 8.6371L7.24408 8.64413C7.11174 8.77647 7.01081 8.93683 6.94873 9.11339C6.88665 9.28995 6.86501 9.4782 6.88541 9.66424C6.9058 9.85028 6.96771 10.0294 7.06657 10.1883C7.16543 10.3472 7.29871 10.4819 7.45658 10.5824C9.06283 11.6082 11.0011 11.4418 12.5277 10.1918L14.6878 11.9269L12.3074 14.3074ZM17.1511 9.78632L15.1574 5.80194L16.7558 5.00038L18.7503 8.98944L17.1511 9.78632ZM10.2956 17.0262C10.2619 17.1612 10.184 17.2812 10.0743 17.3669C9.9646 17.4527 9.82941 17.4994 9.69018 17.4996C9.63882 17.4996 9.58765 17.4933 9.53783 17.4808L6.28236 16.6668C6.20623 16.648 6.13437 16.6148 6.07064 16.5691L4.01205 15.0988C3.88547 14.9994 3.80211 14.8551 3.77932 14.6957C3.75653 14.5364 3.79607 14.3745 3.8897 14.2436C3.98334 14.1127 4.12385 14.023 4.28198 13.9931C4.44011 13.9632 4.60368 13.9955 4.73861 14.0832L6.70033 15.4848L9.84408 16.2691C10.0049 16.3093 10.1431 16.4118 10.2283 16.5539C10.3136 16.696 10.3389 16.8662 10.2988 17.0269L10.2956 17.0262Z" fill="black"/>
</svg>
