<svg width="12" height="13" viewBox="0 0 12 13" fill="none" xmlns="http://www.w3.org/2000/svg">
<path d="M3.528 0C3.387 0 3.28275 7.89296e-08 3.18975 0.0112501C2.82677 0.0564242 2.4928 0.232675 2.25067 0.506847C2.00854 0.78102 1.87494 1.13422 1.875 1.5H1.095C0.93225 1.49925 0.63975 1.49775 0.40125 1.65675C0.10575 1.85325 0 2.2005 0 2.625C0 4.6185 1.098 5.9325 2.46225 6.6555C2.6535 6.9945 2.883 7.31025 3.14025 7.59225C3.8955 8.41725 4.929 9 6 9C7.43625 9 8.829 8.03775 9.5685 6.654C10.9335 5.92875 12 4.6125 12 2.625C12 2.2005 11.8942 1.85325 11.5987 1.65675C11.3602 1.49775 11.0677 1.49925 10.9042 1.49925L10.875 1.5H10.125C10.1251 1.13433 9.99158 0.781228 9.74961 0.507072C9.50763 0.232917 9.17385 0.0565929 8.811 0.0112501C8.71725 7.89296e-08 8.613 0 8.472 0L3.528 0ZM2.625 1.8765V1.875L2.62575 1.6785C2.62575 1.50225 2.62575 1.4475 2.63175 1.40775C2.65215 1.24205 2.72727 1.08789 2.84519 0.969695C2.96311 0.851503 3.11709 0.776036 3.28275 0.75525C3.32325 0.75075 3.37725 0.75 3.55275 0.75H8.448C8.62425 0.75 8.67825 0.75075 8.718 0.756C8.8837 0.776405 9.03786 0.851517 9.15605 0.969437C9.27425 1.08736 9.34971 1.24134 9.3705 1.407C9.375 1.4475 9.37575 1.50225 9.37575 1.677L9.36675 4.4985V4.5C9.36457 5.10125 9.22068 5.69352 8.94675 6.22875C8.33625 7.42875 7.14975 8.25 6.00075 8.25C5.19825 8.25 4.3515 7.80525 3.69525 7.086C3.44795 6.81578 3.23577 6.5154 3.06375 6.192C2.78175 5.66025 2.6175 5.076 2.61675 4.5L2.625 1.8765ZM10.875 2.25C10.974 2.25 11.0422 2.25 11.1007 2.25825C11.1294 2.26041 11.1574 2.26804 11.1832 2.28075C11.1832 2.28075 11.1952 2.28675 11.211 2.32725C11.2297 2.37525 11.25 2.46525 11.25 2.625C11.25 3.87975 10.755 4.80525 10.014 5.44875L10.1235 2.25H10.875ZM1.866 4.5C1.867 4.811 1.90325 5.1175 1.97475 5.4195C1.24275 4.77525 0.75 3.8595 0.75 2.625C0.75 2.46525 0.77025 2.37525 0.789 2.32725C0.804 2.28675 0.8175 2.28075 0.8175 2.28075C0.843078 2.26814 0.87082 2.2605 0.89925 2.25825C0.95775 2.25075 1.026 2.25 1.125 2.25H1.8735L1.866 4.4985V4.5ZM6.375 10.125C6.375 10.0255 6.33549 9.93016 6.26516 9.85983C6.19484 9.78951 6.09946 9.75 6 9.75C5.90054 9.75 5.80516 9.78951 5.73483 9.85983C5.66451 9.93016 5.625 10.0255 5.625 10.125V12H3C2.90054 12 2.80516 12.0395 2.73483 12.1098C2.66451 12.1802 2.625 12.2755 2.625 12.375C2.625 12.4745 2.66451 12.5698 2.73483 12.6402C2.80516 12.7105 2.90054 12.75 3 12.75H9C9.09946 12.75 9.19484 12.7105 9.26516 12.6402C9.33549 12.5698 9.375 12.4745 9.375 12.375C9.375 12.2755 9.33549 12.1802 9.26516 12.1098C9.19484 12.0395 9.09946 12 9 12H6.375V10.125Z" fill="#2B7730"/>
</svg>
