<?xml version="1.0" standalone="no"?>
<!DOCTYPE svg PUBLIC "-//W3C//DTD SVG 20010904//EN"
 "http://www.w3.org/TR/2001/REC-SVG-20010904/DTD/svg10.dtd">
<svg version="1.0" xmlns="http://www.w3.org/2000/svg"
 width="512.000000pt" height="512.000000pt" viewBox="0 0 512.000000 512.000000"
 preserveAspectRatio="xMidYMid meet">

<g transform="translate(0.000000,512.000000) scale(0.100000,-0.100000)"
fill="#000000" stroke="none">
<path d="M2415 5104 c-40 -7 -111 -34 -165 -60 -79 -39 -109 -61 -180 -133
-92 -92 -139 -168 -182 -296 l-23 -70 -3 -1204 c-3 -1293 -3 -1290 48 -1424
12 -32 44 -91 71 -132 239 -357 735 -416 1051 -126 69 63 147 177 178 258 51
134 51 131 48 1424 l-3 1204 -23 70 c-39 114 -92 205 -166 282 -172 182 -405
256 -651 207z"/>
<path d="M1071 2318 c-71 -48 -76 -64 -75 -216 3 -366 160 -733 436 -1018 165
-170 347 -293 555 -374 99 -39 260 -82 356 -95 l47 -6 0 -236 c0 -216 2 -240
20 -277 59 -122 234 -125 297 -6 22 42 23 52 23 281 l0 238 48 6 c224 31 461
122 663 256 127 85 334 291 418 419 173 260 263 536 265 812 1 152 -4 168 -75
216 -29 20 -44 23 -94 20 -108 -7 -164 -73 -165 -193 -1 -290 -133 -604 -345
-823 -240 -249 -539 -376 -885 -376 -346 0 -646 127 -885 376 -212 219 -344
533 -345 823 -1 120 -57 186 -165 193 -50 3 -65 0 -94 -20z"/>
</g>
</svg>
