<svg width="11" height="15" viewBox="0 0 11 15" fill="none" xmlns="http://www.w3.org/2000/svg">
<path d="M8.32 3.2V3.54H10.9V4.86H8.22C8.1 5.78 7.83333 6.5 7.42 7.02C7.02 7.54 6.43333 7.91333 5.66 8.14C4.9 8.36667 3.88667 8.48 2.62 8.48V10.06C2.62 11.86 3.40667 12.76 4.98 12.76C6.52667 12.76 7.3 11.8933 7.3 10.16H8.98C8.96667 11.4933 8.61333 12.5 7.92 13.18C7.22667 13.86 6.24 14.2 4.96 14.2C3.64 14.2 2.63333 13.8333 1.94 13.1C1.26 12.3667 0.92 11.34 0.92 10.02V7.2C2.44 7.2 3.56 7.15333 4.28 7.06C5.01333 6.95333 5.54667 6.74 5.88 6.42C6.21333 6.08667 6.42667 5.56667 6.52 4.86H0.0200001V3.54H6.6V3.18V1.38H0.0200001V0.0399997H10.9V1.38H8.32V3.2Z" fill="black"/>
</svg>
