<svg width="16" height="18" viewBox="0 0 16 18" fill="none" xmlns="http://www.w3.org/2000/svg">
<path d="M12.6667 17.3327C11.9723 17.3327 11.382 17.0896 10.8959 16.6035C10.4098 16.1174 10.1667 15.5271 10.1667 14.8327C10.1667 14.7493 10.1876 14.5549 10.2292 14.2493L4.37508 10.8327C4.15286 11.041 3.89591 11.2043 3.60425 11.3227C3.31258 11.441 3.00008 11.4999 2.66675 11.4993C1.9723 11.4993 1.38203 11.2563 0.895915 10.7702C0.409804 10.2841 0.166748 9.69379 0.166748 8.99935C0.166748 8.3049 0.409804 7.71463 0.895915 7.22852C1.38203 6.7424 1.9723 6.49935 2.66675 6.49935C3.00008 6.49935 3.31258 6.55852 3.60425 6.67685C3.89591 6.79518 4.15286 6.95824 4.37508 7.16602L10.2292 3.74935C10.2015 3.65213 10.1842 3.55852 10.1776 3.46852C10.1709 3.37852 10.1673 3.27768 10.1667 3.16602C10.1667 2.47157 10.4098 1.88129 10.8959 1.39518C11.382 0.909071 11.9723 0.666016 12.6667 0.666016C13.3612 0.666016 13.9515 0.909071 14.4376 1.39518C14.9237 1.88129 15.1667 2.47157 15.1667 3.16602C15.1667 3.86046 14.9237 4.45074 14.4376 4.93685C13.9515 5.42296 13.3612 5.66602 12.6667 5.66602C12.3334 5.66602 12.0209 5.60685 11.7292 5.48852C11.4376 5.37018 11.1806 5.20713 10.9584 4.99935L5.10425 8.41602C5.13203 8.51324 5.14953 8.60713 5.15675 8.69768C5.16397 8.78824 5.1673 8.88879 5.16675 8.99935C5.16619 9.1099 5.16286 9.21074 5.15675 9.30185C5.15064 9.39296 5.13314 9.48657 5.10425 9.58268L10.9584 12.9993C11.1806 12.791 11.4376 12.628 11.7292 12.5102C12.0209 12.3924 12.3334 12.3332 12.6667 12.3327C13.3612 12.3327 13.9515 12.5757 14.4376 13.0618C14.9237 13.548 15.1667 14.1382 15.1667 14.8327C15.1667 15.5271 14.9237 16.1174 14.4376 16.6035C13.9515 17.0896 13.3612 17.3327 12.6667 17.3327Z" fill="white"/>
</svg>
