<svg width="26" height="34" viewBox="0 0 26 34" fill="none" xmlns="http://www.w3.org/2000/svg">
<g filter="url(#filter0_d_1378_1067)">
<path d="M10 8.33333C10 7.04467 11.0553 6 12.3571 6H17.0714C18.3732 6 19.4286 7.04467 19.4286 8.33333V16.1111C19.4286 17.3998 18.3732 18.4444 17.0714 18.4444H12.3571C11.0553 18.4444 10 17.3998 10 16.1111V8.33333Z" fill="white"/>
<path d="M21 16.8889C21 18.6071 19.5929 20 17.8571 20H12.3571V19.2222H17.8571L17.9784 19.2192C19.1837 19.1587 20.1502 18.202 20.2112 17.0089L20.2143 16.8889V9.88889H21V16.8889Z" fill="white"/>
<path d="M20.9248 9.96387V16.8887C20.9248 18.5647 19.5523 19.9247 17.8574 19.9248H12.4326V19.2969H17.8594L17.9805 19.2939H17.9824C19.1476 19.2354 20.0974 18.3648 20.2637 17.2412L20.2861 17.0127V17.0107L20.2891 16.8906V9.96387H20.9248ZM12.3574 6.0752H17.0713C18.3323 6.0752 19.3533 7.08663 19.3535 8.33301V16.1113C19.3534 17.3578 18.3323 18.3691 17.0713 18.3691H12.3574C11.0964 18.3691 10.0753 17.3578 10.0752 16.1113V8.33301C10.0754 7.08663 11.0964 6.0752 12.3574 6.0752Z" stroke="black" stroke-width="0.15"/>
</g>
<defs>
<filter id="filter0_d_1378_1067" x="0.8" y="0.8" width="29.4" height="32.4" filterUnits="userSpaceOnUse" color-interpolation-filters="sRGB">
<feFlood flood-opacity="0" result="BackgroundImageFix"/>
<feColorMatrix in="SourceAlpha" type="matrix" values="0 0 0 0 0 0 0 0 0 0 0 0 0 0 0 0 0 0 127 0" result="hardAlpha"/>
<feOffset dy="4"/>
<feGaussianBlur stdDeviation="4.6"/>
<feComposite in2="hardAlpha" operator="out"/>
<feColorMatrix type="matrix" values="0 0 0 0 0 0 0 0 0 0 0 0 0 0 0 0 0 0 0.25 0"/>
<feBlend mode="normal" in2="BackgroundImageFix" result="effect1_dropShadow_1378_1067"/>
<feBlend mode="normal" in="SourceGraphic" in2="effect1_dropShadow_1378_1067" result="shape"/>
</filter>
</defs>
</svg>
