<svg width="47" height="41" viewBox="0 0 47 41" fill="none" xmlns="http://www.w3.org/2000/svg">
<path d="M30.9458 3.77771C31.2999 3.77771 31.5874 4.06525 31.5874 4.41931C31.5874 4.77336 31.2999 5.06091 30.9458 5.06091C28.2926 5.06109 25.9024 6.77987 25.0464 9.27087L24.9683 9.51404C24.8777 9.81957 24.5797 10.0048 24.272 9.96423L24.2642 9.974L24.1714 9.94568C23.8323 9.84453 23.6387 9.48826 23.7397 9.1488C24.6612 6.05237 27.5307 3.77789 30.9458 3.77771Z" fill="black" stroke="black" stroke-width="0.3"/>
<path d="M37.8229 28.4884H34.8757C34.6045 28.4884 34.3845 28.2684 34.3845 27.9972C34.3845 27.7259 34.6045 27.5059 34.8757 27.5059H37.8229C41.8854 27.5059 45.1909 24.2005 45.1909 20.1379C45.1909 16.0754 41.8854 12.7699 37.8229 12.7699H37.752C37.6096 12.7699 37.4741 12.7082 37.3808 12.6005C37.2875 12.4927 37.2454 12.3499 37.2657 12.2089C37.3096 11.903 37.3317 11.5956 37.3317 11.2963C37.3317 7.77548 34.4669 4.91067 30.946 4.91067C29.5763 4.91067 28.27 5.33872 27.1683 6.14884C26.9262 6.32673 26.5823 6.24779 26.4424 5.98148C23.3222 0.0400753 15.1726 -0.757795 10.9475 4.41071C9.16764 6.58812 8.4683 9.42059 9.02869 12.1812C9.09044 12.4861 8.85711 12.7703 8.54731 12.7703H8.35047C4.28792 12.7703 0.982451 16.0758 0.982451 20.1383C0.982451 24.2009 4.28792 27.5063 8.35047 27.5063H11.2976C11.5689 27.5063 11.7889 27.7263 11.7889 27.9975C11.7889 28.2687 11.5689 28.4887 11.2976 28.4887H8.35047C3.74612 28.4887 0 24.7426 0 20.1383C0 15.6631 3.53873 11.9987 7.96488 11.7966C7.54911 8.93253 8.34416 6.04356 10.1868 3.78899C14.7104 -1.74508 23.3796 -1.12478 27.0443 5.04611C28.2134 4.31317 29.5511 3.92866 30.9459 3.92866C35.2116 3.92866 38.5918 7.55936 38.296 11.8012C42.6814 12.0472 46.1731 15.6922 46.1731 20.1379C46.1731 24.7426 42.427 28.4884 37.8227 28.4884L37.8229 28.4884Z" fill="black"/>
<path d="M23.0209 15.2893C29.875 15.2894 35.4506 20.8658 35.4506 27.72C35.4505 34.574 29.875 40.1496 23.0209 40.1497C16.1668 40.1497 10.5903 34.5741 10.5902 27.72C10.5902 20.8659 16.1667 15.2893 23.0209 15.2893ZM23.0209 16.5725C16.8743 16.5725 11.8734 21.5734 11.8734 27.72C11.8735 33.8665 16.8744 38.8674 23.0209 38.8674C29.1673 38.8674 34.1683 33.8664 34.1683 27.72C34.1683 21.5734 29.1674 16.5726 23.0209 16.5725Z" fill="black" stroke="black" stroke-width="0.3"/>
<path d="M23.2455 22.8031C23.5268 22.8031 23.7551 23.0316 23.7552 23.3129V32.6635C23.7551 32.9451 23.5267 33.1732 23.2455 33.1732C22.9643 33.1731 22.7359 32.9447 22.7357 32.6635V23.3129C22.7358 23.0317 22.9643 22.8032 23.2455 22.8031Z" fill="black" stroke="black" stroke-width="0.3"/>
<path d="M22.8848 22.9535C23.0836 22.7544 23.4065 22.7548 23.6055 22.9535L26.4824 25.8304C26.6815 26.0295 26.6815 26.3521 26.4824 26.5511C26.3828 26.651 26.2519 26.7006 26.1221 26.7006C25.992 26.7005 25.8611 26.6505 25.7617 26.5511L23.2451 24.0345L20.7285 26.5511C20.5296 26.7503 20.2068 26.7501 20.0078 26.5511C19.809 26.3521 19.8088 26.0294 20.0078 25.8304L22.8848 22.9535Z" fill="black" stroke="black" stroke-width="0.3"/>
</svg>
